<svg xmlns="http://www.w3.org/2000/svg" xmlns:xlink="http://www.w3.org/1999/xlink" width="446" height="224" viewBox="0 0 446 224" fill="none"><path     fill="#383838"  d="M0 224L446 224L446 0L0 0L0 224Z"></path><path d="M334.345 115.241C334.358 115.437 334.35 115.633 334.322 115.83C334.293 116.024 334.245 116.214 334.176 116.399C334.108 116.585 334.022 116.761 333.916 116.927C333.81 117.093 333.688 117.247 333.551 117.388C333.298 117.607 333.013 117.774 332.698 117.889C332.385 118.003 332.061 118.058 331.726 118.054L307.654 118.054C307.637 119.905 307.845 121.73 308.277 123.53C308.473 124.3 308.752 125.038 309.115 125.744C309.477 126.451 309.913 127.109 310.424 127.717C310.885 128.325 311.414 128.867 312.009 129.342C312.606 129.819 313.252 130.215 313.946 130.53C314.838 130.866 315.753 131.114 316.692 131.273C317.631 131.432 318.577 131.499 319.529 131.475C321.097 131.491 322.65 131.347 324.189 131.045C325.384 130.808 326.558 130.493 327.71 130.1C328.698 129.743 329.514 129.428 330.158 129.156C330.618 128.918 331.104 128.775 331.618 128.726C331.804 128.725 331.976 128.775 332.134 128.876C332.293 128.984 332.407 129.127 332.477 129.306C332.579 129.562 332.643 129.827 332.67 130.1C332.695 130.516 332.695 130.931 332.67 131.346C332.686 131.654 332.686 131.962 332.67 132.269C332.67 132.527 332.67 132.763 332.67 132.956C332.638 133.154 332.573 133.34 332.477 133.515C332.376 133.688 332.254 133.845 332.112 133.987C331.707 134.286 331.271 134.53 330.802 134.717C329.883 135.121 328.939 135.45 327.968 135.705C326.638 136.069 325.292 136.362 323.931 136.585C322.31 136.85 320.678 136.979 319.035 136.972C317.691 136.996 316.355 136.902 315.028 136.691C313.7 136.477 312.401 136.149 311.133 135.705C310.047 135.316 309.021 134.805 308.056 134.174C307.091 133.543 306.213 132.808 305.421 131.969C304.611 131.08 303.911 130.111 303.321 129.063C302.73 128.015 302.263 126.915 301.921 125.763C301.094 122.96 300.7 120.097 300.74 117.174C300.703 114.289 301.111 111.469 301.964 108.713C302.322 107.529 302.798 106.395 303.392 105.31C303.985 104.225 304.683 103.212 305.486 102.271C306.246 101.402 307.093 100.629 308.028 99.9501C308.964 99.273 309.963 98.7083 311.026 98.2559C312.178 97.7764 313.368 97.4185 314.594 97.1823C315.82 96.9475 317.057 96.8401 318.305 96.8602C319.561 96.8244 320.805 96.9224 322.039 97.1543C323.275 97.3863 324.471 97.7463 325.627 98.2345C326.588 98.6568 327.488 99.1814 328.329 99.8084C329.17 100.435 329.93 101.149 330.609 101.949C331.269 102.754 331.84 103.617 332.321 104.539C332.802 105.461 333.183 106.423 333.465 107.425C334.094 109.621 334.401 111.861 334.388 114.146L334.345 115.241ZM327.603 113.244C327.666 112.511 327.662 111.779 327.592 111.047C327.522 110.315 327.387 109.594 327.186 108.887C326.987 108.179 326.726 107.494 326.403 106.834C326.079 106.174 325.699 105.548 325.262 104.956C325.035 104.698 324.794 104.455 324.539 104.225C324.284 103.996 324.017 103.782 323.738 103.583C323.459 103.384 323.169 103.203 322.868 103.038C322.568 102.872 322.259 102.724 321.943 102.594C321.625 102.465 321.301 102.354 320.97 102.261C320.641 102.168 320.306 102.094 319.967 102.04C319.629 101.985 319.288 101.951 318.945 101.936C318.603 101.921 318.261 101.925 317.918 101.949C317.176 101.941 316.442 102.016 315.718 102.175C314.992 102.335 314.294 102.575 313.624 102.894C313.015 103.189 312.445 103.544 311.912 103.959C311.381 104.376 310.9 104.844 310.467 105.363C309.598 106.44 308.947 107.635 308.513 108.95C308.045 110.344 307.788 111.775 307.74 113.244L327.603 113.244Z"   fill="#F1F1F2" ></path><path d="M284.272 135.124C284.277 135.331 284.22 135.517 284.1 135.683C283.955 135.86 283.776 135.989 283.563 136.069C283.238 136.195 282.902 136.274 282.554 136.305C282.01 136.339 281.466 136.339 280.922 136.305C280.364 136.339 279.805 136.339 279.247 136.305C278.899 136.274 278.563 136.195 278.238 136.069C278.024 135.989 277.846 135.86 277.701 135.683C277.579 135.517 277.522 135.331 277.529 135.124L277.529 113.78C277.569 112.078 277.405 110.396 277.035 108.734C276.753 107.557 276.281 106.462 275.618 105.449C275.316 104.989 274.959 104.578 274.549 104.214C274.136 103.849 273.684 103.545 273.192 103.301C272.655 103.048 272.096 102.86 271.517 102.737C270.935 102.613 270.349 102.558 269.756 102.571C269.302 102.581 268.851 102.627 268.403 102.709C267.956 102.792 267.519 102.908 267.091 103.059C266.662 103.21 266.247 103.395 265.848 103.613C265.448 103.829 265.069 104.076 264.71 104.354C262.708 105.858 260.948 107.605 259.427 109.593L259.427 135.146C259.433 135.352 259.376 135.538 259.255 135.704C259.111 135.882 258.932 136.011 258.719 136.091C258.394 136.217 258.057 136.295 257.709 136.327C257.151 136.36 256.593 136.36 256.035 136.327C255.491 136.36 254.947 136.36 254.403 136.327C254.049 136.294 253.705 136.215 253.372 136.091C253.153 136.018 252.974 135.889 252.835 135.704C252.728 135.534 252.678 135.348 252.685 135.146L252.685 98.6417C252.679 98.4442 252.722 98.258 252.814 98.0834C252.935 97.8959 253.1 97.7599 253.307 97.6754C253.608 97.5394 253.923 97.4607 254.252 97.4392C255.247 97.3576 256.242 97.3576 257.237 97.4392C257.561 97.4564 257.868 97.5351 258.16 97.6754C258.352 97.7727 258.51 97.9088 258.633 98.0834C258.739 98.2552 258.789 98.4413 258.783 98.6417L258.783 103.473C259.651 102.451 260.602 101.515 261.637 100.664C262.673 99.8127 263.776 99.0597 264.946 98.4055C265.895 97.8887 266.893 97.4944 267.939 97.2223C268.986 96.9489 270.049 96.8065 271.13 96.795C272.191 96.7621 273.242 96.8508 274.285 97.0613C275.325 97.2718 276.328 97.5981 277.293 98.0405C278.087 98.4227 278.826 98.8936 279.509 99.4534C280.192 100.012 280.799 100.643 281.33 101.347C281.848 102.075 282.288 102.847 282.65 103.664C283.011 104.482 283.287 105.327 283.477 106.2C283.96 108.401 284.181 110.627 284.143 112.878L284.272 135.124Z"   fill="#F1F1F2" ></path><path d="M204.112 94.1541C204.305 99.7371 208.171 102.743 215.879 104.053C222.321 105.084 228.312 104.569 230.245 98.9641C234.003 88.0343 225.091 90.7614 217.361 89.5374C209.631 88.3135 203.812 85.1784 204.112 94.1541Z"   fill="#FF4000" ></path><path d="M206.427 117.111C207.136 121.277 211.022 123.682 216.97 123.553C222.918 123.424 227.363 121.062 227.986 116.574C229.124 108.243 222.553 111.464 216.605 111.635C210.657 111.807 205.01 108.93 206.427 117.111Z"   fill="#FF4000" ></path><path d="M214.157 136.2C215.338 139.314 218.581 140.624 222.961 139.701C227.342 138.777 230.37 137.317 230.112 133.774C229.661 127.203 225.345 129.265 220.964 130.209C216.584 131.154 211.86 130.102 214.157 136.2Z"   fill="#FF4000" ></path><path d="M217.92 150.758C218.264 153.378 220.54 154.945 224.105 154.902C227.669 154.859 230.375 153.463 230.826 150.607C231.685 145.39 227.691 147.322 224.126 147.365C220.562 147.408 217.319 145.604 217.92 150.758Z"   fill="#FF4000" ></path><path d="M186.78 116.272C186.815 119.181 186.472 122.044 185.749 124.861C185.451 126.022 185.046 127.145 184.534 128.228C184.02 129.312 183.408 130.337 182.7 131.303C182.046 132.177 181.298 132.96 180.456 133.652C179.613 134.347 178.7 134.931 177.718 135.405C176.657 135.9 175.553 136.269 174.407 136.513C173.262 136.756 172.104 136.866 170.933 136.843C169.918 136.852 168.915 136.745 167.926 136.521C166.982 136.299 166.08 135.963 165.221 135.512C164.289 135.021 163.416 134.441 162.601 133.773C161.728 133.071 160.804 132.248 159.831 131.303L159.831 149.577C159.83 149.78 159.772 149.966 159.659 150.135C159.52 150.324 159.341 150.46 159.122 150.543C158.797 150.669 158.461 150.748 158.113 150.779C157.555 150.814 156.997 150.814 156.438 150.779C155.894 150.812 155.35 150.812 154.806 150.779C154.453 150.746 154.109 150.668 153.776 150.543C153.551 150.467 153.372 150.331 153.239 150.135C153.137 149.963 153.087 149.777 153.088 149.577L153.088 98.5569C153.083 98.3521 153.126 98.1589 153.217 97.9771C153.339 97.7924 153.504 97.6636 153.711 97.5906C154.015 97.4703 154.33 97.3987 154.656 97.3758C155.586 97.2942 156.517 97.2942 157.447 97.3758C157.767 97.4002 158.074 97.4717 158.371 97.5906C158.581 97.6679 158.753 97.7967 158.886 97.9771C158.991 98.156 159.041 98.3493 159.036 98.5569L159.036 103.474C160.047 102.426 161.114 101.439 162.236 100.511C163.204 99.6935 164.242 98.9777 165.35 98.3636C166.366 97.8153 167.432 97.393 168.549 97.0967C169.404 96.8891 170.27 96.7574 171.149 96.7016C172.027 96.6444 172.903 96.663 173.778 96.7574C174.652 96.8533 175.513 97.0237 176.359 97.2685C177.205 97.5118 178.023 97.8268 178.813 98.2133C179.741 98.7301 180.591 99.3513 181.364 100.077C182.139 100.804 182.813 101.615 183.387 102.508C184 103.46 184.522 104.459 184.954 105.506C185.388 106.552 185.725 107.629 185.964 108.735C186.519 111.217 186.791 113.73 186.78 116.272ZM179.823 117.045C179.827 115.223 179.684 113.412 179.393 111.612C179.144 109.982 178.65 108.429 177.911 106.953C177.588 106.304 177.19 105.706 176.717 105.158C176.245 104.609 175.713 104.127 175.12 103.71C174.483 103.292 173.798 102.979 173.065 102.77C172.333 102.562 171.587 102.468 170.825 102.486C169.948 102.486 169.089 102.615 168.248 102.873C167.334 103.164 166.475 103.572 165.672 104.097C164.687 104.725 163.771 105.441 162.923 106.244C161.839 107.294 160.83 108.41 159.895 109.594L159.895 124.131C161.436 126.074 163.197 127.792 165.178 129.285C165.553 129.568 165.948 129.82 166.363 130.039C166.778 130.259 167.208 130.445 167.654 130.597C168.099 130.747 168.553 130.862 169.017 130.943C169.481 131.021 169.948 131.063 170.417 131.067C171.177 131.082 171.924 130.984 172.657 130.775C173.388 130.567 174.073 130.257 174.712 129.843C175.326 129.429 175.881 128.948 176.378 128.4C176.876 127.852 177.301 127.252 177.654 126.601C178.432 125.166 178.984 123.649 179.307 122.048C179.658 120.399 179.837 118.731 179.844 117.045L179.823 117.045Z"   fill="#F1F1F2" ></path><path d="M136.9 125.161C136.917 126.023 136.838 126.876 136.664 127.721C136.49 128.566 136.225 129.38 135.869 130.164C135.531 130.887 135.113 131.561 134.615 132.185C134.118 132.809 133.556 133.367 132.927 133.858C132.249 134.38 131.526 134.833 130.761 135.215C129.995 135.599 129.199 135.905 128.375 136.134C126.472 136.669 124.533 136.927 122.556 136.907C120.201 136.913 117.903 136.555 115.663 135.833C114.843 135.574 114.048 135.252 113.279 134.867C112.77 134.617 112.297 134.309 111.862 133.944C111.537 133.627 111.322 133.248 111.218 132.806C111.066 132.149 111.002 131.483 111.025 130.809C110.992 130.372 110.992 129.936 111.025 129.499C111.059 129.205 111.123 128.919 111.218 128.64C111.278 128.444 111.393 128.286 111.561 128.167C111.717 128.066 111.889 128.016 112.077 128.017C112.561 128.093 112.997 128.279 113.387 128.575C113.974 128.948 114.689 129.348 115.534 129.778C116.51 130.262 117.52 130.663 118.562 130.98C119.872 131.371 121.21 131.557 122.577 131.539C123.624 131.552 124.654 131.43 125.669 131.174C126.535 130.959 127.337 130.601 128.074 130.1C128.408 129.871 128.707 129.603 128.972 129.297C129.238 128.992 129.461 128.659 129.642 128.296C129.835 127.891 129.979 127.469 130.073 127.029C130.168 126.591 130.21 126.148 130.2 125.698C130.212 125.233 130.149 124.778 130.013 124.334C129.877 123.889 129.675 123.478 129.406 123.1C128.809 122.341 128.093 121.718 127.258 121.232C126.331 120.66 125.357 120.181 124.338 119.793L120.988 118.483C119.836 118.022 118.712 117.5 117.617 116.916C116.535 116.34 115.554 115.624 114.675 114.768C113.765 113.905 113.049 112.903 112.528 111.762C112.247 111.101 112.04 110.417 111.907 109.711C111.773 109.006 111.715 108.293 111.733 107.575C111.732 106.866 111.802 106.165 111.944 105.47C112.084 104.776 112.293 104.103 112.571 103.452C112.851 102.789 113.201 102.166 113.621 101.584C114.042 101 114.522 100.47 115.062 99.9948C115.673 99.4666 116.328 99.0021 117.028 98.6012C117.73 98.2004 118.463 97.8704 119.227 97.6113C121.116 96.9757 123.055 96.6751 125.047 96.7094C126.027 96.708 127.001 96.7867 127.967 96.9456C128.86 97.0859 129.741 97.2863 130.608 97.5469C131.304 97.7544 131.977 98.0193 132.627 98.3414C133.07 98.5561 133.493 98.8066 133.894 99.093C134.114 99.2446 134.3 99.4308 134.452 99.6513C134.548 99.8259 134.612 100.012 134.645 100.21C134.645 100.41 134.688 100.661 134.774 100.961C134.798 101.326 134.798 101.691 134.774 102.056C134.798 102.457 134.798 102.858 134.774 103.259C134.75 103.548 134.685 103.827 134.581 104.096C134.51 104.287 134.396 104.444 134.237 104.569C134.104 104.669 133.954 104.719 133.786 104.719C133.394 104.666 133.043 104.516 132.734 104.268C132.161 103.913 131.567 103.598 130.952 103.323C130.114 102.95 129.255 102.635 128.375 102.378C127.265 102.062 126.135 101.912 124.982 101.927C123.961 101.912 122.959 102.04 121.976 102.314C121.183 102.526 120.467 102.891 119.829 103.409C119.273 103.876 118.851 104.441 118.562 105.105C118.265 105.791 118.122 106.507 118.132 107.253C118.117 107.729 118.179 108.196 118.319 108.653C118.458 109.108 118.668 109.529 118.948 109.915C119.545 110.68 120.261 111.31 121.096 111.805C122.037 112.385 123.025 112.871 124.059 113.265L127.452 114.597C128.597 115.055 129.735 115.57 130.866 116.143C131.964 116.715 132.959 117.431 133.851 118.29C134.758 119.123 135.474 120.097 135.998 121.21C136.287 121.829 136.507 122.471 136.659 123.138C136.812 123.804 136.892 124.478 136.9 125.161Z"   fill="#F1F1F2" ></path><rect  x="338" y="172" width="95" height="37" rx="15"    fill="#FF4000" ></rect><g ><path     fill="#FFFFFF"  d="M365.72 199.2L369.3 199.2L369.3 194.26L371.04 194.26C374.2 194.26 376.92 192.7 376.92 189.16C376.92 185.48 374.22 184.3 370.96 184.3L365.72 184.3L365.72 199.2ZM369.3 191.44L369.3 187.14L370.76 187.14C372.48 187.14 373.44 187.66 373.44 189.16C373.44 190.62 372.6 191.44 370.86 191.44L369.3 191.44ZM383.04 191.14L383.04 187.14L384.64 187.14C386.34 187.14 387.26 187.6 387.26 189C387.26 190.4 386.34 191.14 384.64 191.14L383.04 191.14ZM387.5 199.2L391.5 199.2L388.18 193.3C389.72 192.58 390.74 191.18 390.74 189C390.74 185.4 388.1 184.3 384.92 184.3L379.46 184.3L379.46 199.2L383.04 199.2L383.04 193.96L384.76 193.96L387.5 199.2ZM399.76 199.48C403.82 199.48 406.58 196.56 406.58 191.68C406.58 186.82 403.82 184.04 399.76 184.04C395.7 184.04 392.94 186.8 392.94 191.68C392.94 196.56 395.7 199.48 399.76 199.48ZM399.76 196.4C397.8 196.4 396.6 194.56 396.6 191.68C396.6 188.8 397.8 187.1 399.76 187.1C401.72 187.1 402.94 188.8 402.94 191.68C402.94 194.56 401.72 196.4 399.76 196.4Z"></path></g></svg>