<svg xmlns="http://www.w3.org/2000/svg" xmlns:xlink="http://www.w3.org/1999/xlink" width="600" height="300" viewBox="0 0 600 300" fill="none"><g  clip-path="url(#clip-path-PoIjPtMuplmbNp7WIv0jJ)"><rect x="0" y="0" width="600" height="300"   fill="#F9F9F9" ></rect><path d="M493.42 -57.7L539.04 -57.7L561.85 -18.19L539.04 21.32L493.42 21.32L470.61 -18.19L493.42 -57.7Z" stroke="rgba(229, 229, 229, 1.00)" stroke-width="3.63"   ></path><path d="M493.42 21.3201L539.04 21.3201L561.85 60.8201L539.04 100.33L493.42 100.33L470.61 60.8201L493.42 21.3201Z" stroke="rgba(229, 229, 229, 1.00)" stroke-width="3.63"   ></path><path d="M425.29 -18.1899L470.91 -18.1899L493.72 21.3201L470.91 60.8201L425.29 60.8201L402.48 21.3201L425.29 -18.1899Z" stroke="rgba(229, 229, 229, 1.00)" stroke-width="3.63"   ></path><path d="M561.55 60.8201L607.17 60.8201L629.98 100.33L607.17 139.84L561.55 139.84L538.74 100.33L561.55 60.8201Z" stroke="rgba(229, 229, 229, 1.00)" stroke-width="3.63"   ></path><path d="M561.55 139.84L607.17 139.84L629.98 179.34L607.17 218.85L561.55 218.85L538.74 179.34L561.55 139.84Z" stroke="rgba(229, 229, 229, 1.00)" stroke-width="3.63"   ></path><path d="M493.42 100.33L539.04 100.33L561.85 139.84L539.04 179.34L493.42 179.34L470.61 139.84L493.42 100.33Z" stroke="rgba(229, 229, 229, 1.00)" stroke-width="3.63"   ></path><path d="M357.16 -57.7L402.78 -57.7L425.59 -18.19L402.78 21.32L357.16 21.32L334.35 -18.19L357.16 -57.7Z" stroke="rgba(229, 229, 229, 1.00)" stroke-width="3.63"   ></path><path d="M357.16 21.3201L402.78 21.3201L425.59 60.8201L402.78 100.33L357.16 100.33L334.35 60.8201L357.16 21.3201Z" stroke="rgba(229, 229, 229, 1.00)" stroke-width="3.63"   ></path><path d="M289.03 -18.1899L334.65 -18.1899L357.46 21.3201L334.65 60.8201L289.03 60.8201L266.23 21.3201L289.03 -18.1899Z" stroke="rgba(229, 229, 229, 1.00)" stroke-width="3.63"   ></path><path d="M289.03 60.8201L334.65 60.8201L357.46 100.33L334.65 139.84L289.03 139.84L266.23 100.33L289.03 60.8201Z" stroke="rgba(229, 229, 229, 1.00)" stroke-width="3.63"   ></path><path d="M289.03 139.84L334.65 139.84L357.46 179.34L334.65 218.85L289.03 218.85L266.23 179.34L289.03 139.84Z" stroke="rgba(229, 229, 229, 1.00)" stroke-width="3.63"   ></path><path d="M220.91 100.33L266.52 100.33L289.33 139.84L266.52 179.34L220.91 179.34L198.1 139.84L220.91 100.33Z" stroke="rgba(229, 229, 229, 1.00)" stroke-width="3.63"   ></path><path d="M357.16 179.34L402.78 179.34L425.59 218.85L402.78 258.36L357.16 258.36L334.35 218.85L357.16 179.34Z" stroke="rgba(229, 229, 229, 1.00)" stroke-width="3.63"   ></path><path d="M357.16 258.36L402.78 258.36L425.59 297.87L402.78 337.37L357.16 337.37L334.35 297.87L357.16 258.36Z" stroke="rgba(229, 229, 229, 1.00)" stroke-width="3.63"   ></path><path d="M289.03 218.85L334.65 218.85L357.46 258.36L334.65 297.87L289.03 297.87L266.23 258.36L289.03 218.85Z" stroke="rgba(229, 229, 229, 1.00)" stroke-width="3.63"   ></path><path d="M220.91 258.36L266.52 258.36L289.33 297.87L266.52 337.37L220.91 337.37L198.1 297.87L220.91 258.36Z" stroke="rgba(229, 229, 229, 1.00)" stroke-width="3.63"   ></path><path d="M84.6498 100.33L130.27 100.33L153.08 139.84L130.27 179.34L84.6498 179.34L61.8398 139.84L84.6498 100.33Z" stroke="rgba(229, 229, 229, 1.00)" stroke-width="3.63"   ></path><path d="M220.91 179.34L266.52 179.34L289.33 218.85L266.52 258.36L220.91 258.36L198.1 218.85L220.91 179.34Z" stroke="rgba(215, 233, 244, 1.00)" stroke-width="3.63"   ></path><path d="M493.42 179.34L539.04 179.34L561.85 218.85L539.04 258.36L493.42 258.36L470.61 218.85L493.42 179.34Z" stroke="rgba(229, 229, 229, 1.00)" stroke-width="3.63"   ></path><path d="M493.42 258.36L539.04 258.36L561.85 297.87L539.04 337.37L493.42 337.37L470.61 297.87L493.42 258.36Z" stroke="rgba(229, 229, 229, 1.00)" stroke-width="3.63"   ></path><path d="M425.29 218.85L470.91 218.85L493.72 258.36L470.91 297.87L425.29 297.87L402.48 258.36L425.29 218.85Z" stroke="rgba(229, 229, 229, 1.00)" stroke-width="3.63"   ></path><path d="M84.6498 179.34L130.27 179.34L153.08 218.85L130.27 258.36L84.6498 258.36L61.8398 218.85L84.6498 179.34Z" stroke="rgba(229, 229, 229, 1.00)" stroke-width="3.63"   ></path><path d="M84.6498 258.36L130.27 258.36L153.08 297.87L130.27 337.37L84.6498 337.37L61.8398 297.87L84.6498 258.36Z" stroke="rgba(229, 229, 229, 1.00)" stroke-width="3.63"   ></path><path d="M16.52 218.85L62.14 218.85L84.95 258.36L62.14 297.87L16.52 297.87L-6.29004 258.36L16.52 218.85Z" stroke="rgba(229, 229, 229, 1.00)" stroke-width="3.63"   ></path><path d="M152.78 139.84L198.4 139.84L221.2 179.34L198.4 218.85L152.78 218.85L129.97 179.34L152.78 139.84Z" stroke="rgba(221, 232, 237, 1.00)" stroke-width="3.63"   ></path><path d="M220.91 -57.7L266.52 -57.7L289.33 -18.19L266.52 21.32L220.91 21.32L198.1 -18.19L220.91 -57.7Z" stroke="rgba(229, 229, 229, 1.00)" stroke-width="3.63"   ></path><path d="M220.91 21.3201L266.52 21.3201L289.33 60.8201L266.52 100.33L220.91 100.33L198.1 60.8201L220.91 21.3201Z" stroke="rgba(195, 226, 210, 1.00)" stroke-width="3.63"   ></path><path d="M152.78 218.85L198.4 218.85L221.2 258.36L198.4 297.87L152.78 297.87L129.97 258.36L152.78 218.85Z" stroke="rgba(190, 220, 234, 1.00)" stroke-width="3.63"   ></path><path d="M84.6498 -57.7L130.27 -57.7L153.08 -18.19L130.27 21.32L84.6498 21.32L61.8398 -18.19L84.6498 -57.7Z" stroke="rgba(229, 229, 229, 1.00)" stroke-width="3.63"   ></path><path d="M84.6498 21.3201L130.27 21.3201L153.08 60.8201L130.27 100.33L84.6498 100.33L61.8398 60.8201L84.6498 21.3201Z" stroke="rgba(229, 229, 229, 1.00)" stroke-width="3.63"   ></path><path d="M16.52 -18.1899L62.14 -18.1899L84.95 21.3201L62.14 60.8201L16.52 60.8201L-6.29004 21.3201L16.52 -18.1899Z" stroke="rgba(229, 229, 229, 1.00)" stroke-width="3.63"   ></path><path d="M357.16 100.33L402.78 100.33L425.59 139.84L402.78 179.34L357.16 179.34L334.35 139.84L357.16 100.33Z" stroke="rgba(234, 220, 224, 1.00)" stroke-width="3.63"   ></path><path d="M425.29 139.84L470.91 139.84L493.72 179.34L470.91 218.85L425.29 218.85L402.48 179.34L425.29 139.84Z" stroke="rgba(237, 217, 223, 1.00)" stroke-width="3.63"   ></path><path d="M425.29 60.8201L470.91 60.8201L493.72 100.33L470.91 139.84L425.29 139.84L402.48 100.33L425.29 60.8201Z" stroke="rgba(237, 190, 205, 1.00)" stroke-width="3.63"   ></path><path d="M152.78 60.8201L198.4 60.8201L221.2 100.33L198.4 139.84L152.78 139.84L129.97 100.33L152.78 60.8201Z" stroke="rgba(209, 232, 218, 1.00)" stroke-width="3.63"   ></path><path d="M152.78 -18.1899L198.4 -18.1899L221.2 21.3201L198.4 60.8201L152.78 60.8201L129.97 21.3201L152.78 -18.1899Z" stroke="rgba(170, 226, 195, 1.00)" stroke-width="3.63"   ></path><path d="M16.52 60.8201L62.14 60.8201L84.95 100.33L62.14 139.84L16.52 139.84L-6.29004 100.33L16.52 60.8201Z" stroke="rgba(229, 229, 229, 1.00)" stroke-width="3.63"   ></path><path d="M16.52 139.84L62.14 139.84L84.95 179.34L62.14 218.85L16.52 218.85L-6.29004 179.34L16.52 139.84Z" stroke="rgba(229, 229, 229, 1.00)" stroke-width="3.63"   ></path><path d="M-51.6099 100.33L-5.98992 100.33L16.8201 139.84L-5.98992 179.34L-51.6099 179.34L-74.4199 139.84L-51.6099 100.33Z" stroke="rgba(229, 229, 229, 1.00)" stroke-width="3.63"   ></path><path d="M30.5542 138.897L30.5542 87.1403L13 87.1403L13 74.9793L62.6036 74.9793L62.6036 87.1403L45.0601 87.1403L45.0601 138.897L30.5542 138.897ZM67.2826 138.897L67.2826 90.2739L79.0493 90.2739L80.0299 98.8005L80.4243 98.8005C82.189 95.5325 84.3036 93.1215 86.7872 91.5528C89.2709 89.9189 91.7537 89.1015 94.2374 89.1015C95.6099 89.1015 96.7543 89.1931 97.6693 89.3892C98.5844 89.5199 99.3712 89.7552 100.025 90.082L97.6693 102.531C96.8197 102.269 95.9717 102.075 95.122 101.945C94.3377 101.814 93.4286 101.742 92.3828 101.742C90.5528 101.742 88.6215 102.427 86.5954 103.799C84.6346 105.106 82.9998 107.395 81.6926 110.663L81.6926 138.897L67.2826 138.897ZM115.82 140.08C111.376 140.08 107.851 138.67 105.237 135.859C102.622 132.983 101.314 129.489 101.314 125.371C101.314 120.273 103.47 116.289 107.784 113.413C112.098 110.537 119.056 108.606 128.664 107.625C128.533 105.469 127.879 103.773 126.702 102.531C125.591 101.224 123.701 100.57 121.022 100.57C118.995 100.57 116.931 100.958 114.84 101.742C112.748 102.526 110.531 103.61 108.178 104.982L102.977 95.4751C106.049 93.5797 109.319 92.0365 112.783 90.8601C116.312 89.6836 119.97 89.1015 123.761 89.1015C129.97 89.1015 134.742 90.8998 138.075 94.4945C141.408 98.0893 143.074 103.606 143.074 111.057L143.074 138.897L131.318 138.897L130.337 133.898L129.943 133.898C127.916 135.728 125.719 137.23 123.366 138.406C121.079 139.518 118.565 140.08 115.82 140.08ZM120.723 128.899C122.357 128.899 123.767 128.542 124.944 127.823C126.186 127.039 127.422 126.027 128.664 124.785L128.664 116.259C123.566 116.912 120.041 117.954 118.08 119.392C116.119 120.765 115.138 122.4 115.138 124.295C115.138 125.864 115.629 127.039 116.609 127.823C117.655 128.542 119.024 128.899 120.723 128.899ZM155.267 138.897L155.267 90.2739L167.033 90.2739L168.014 96.4556L168.408 96.4556C170.5 94.4949 172.789 92.7882 175.272 91.3503C177.821 89.8471 180.723 89.1015 183.991 89.1015C189.285 89.1015 193.106 90.8585 195.459 94.3879C197.877 97.852 199.093 102.624 199.093 108.702L199.093 138.897L184.684 138.897L184.684 110.567C184.684 107.038 184.193 104.616 183.213 103.309C182.298 102.002 180.785 101.348 178.694 101.348C176.863 101.348 175.3 101.777 173.993 102.627C172.686 103.411 171.245 104.555 169.677 106.059L169.677 138.897L155.267 138.897ZM225.686 140.08C222.483 140.08 219.183 139.456 215.784 138.215C212.451 136.973 209.539 135.338 207.055 133.312L213.525 124.295C215.747 125.929 217.872 127.206 219.898 128.121C221.99 128.971 224.054 129.39 226.08 129.39C228.237 129.39 229.8 129.032 230.781 128.313C231.761 127.529 232.251 126.517 232.251 125.276C232.251 124.164 231.761 123.245 230.781 122.526C229.866 121.807 228.66 121.153 227.157 120.565C225.653 119.911 224.049 119.257 222.35 118.603C220.389 117.819 218.427 116.838 216.466 115.662C214.571 114.485 212.977 112.983 211.67 111.153C210.363 109.258 209.709 106.969 209.709 104.289C209.709 99.7797 211.405 96.1219 214.804 93.3115C218.268 90.501 222.774 89.1015 228.329 89.1015C232.055 89.1015 235.324 89.7554 238.135 91.0626C241.011 92.3044 243.463 93.704 245.489 95.2726L239.019 103.906C237.32 102.599 235.624 101.576 233.925 100.857C232.225 100.139 230.519 99.781 228.819 99.781C225.094 99.781 223.234 101.058 223.234 103.607C223.234 105.176 224.154 106.381 225.984 107.231C227.88 108.015 230.066 108.874 232.55 109.789C234.641 110.508 236.664 111.448 238.625 112.624C240.651 113.735 242.317 115.237 243.624 117.133C244.996 118.963 245.681 121.384 245.681 124.391C245.681 128.77 243.985 132.5 240.586 135.571C237.187 138.578 232.222 140.08 225.686 140.08ZM257.288 138.897L257.288 101.55L250.818 101.55L250.818 90.8601L257.288 90.3698L257.288 87.7265C257.288 84.2625 257.88 81.1258 259.057 78.3153C260.233 75.5049 262.123 73.2467 264.738 71.5473C267.352 69.848 270.857 69 275.236 69C277.262 69 279.122 69.194 280.821 69.5862C282.521 69.9784 283.889 70.3771 284.935 70.7693L282.292 81.3529C281.442 81.0261 280.594 80.8015 279.745 80.6708C278.895 80.4747 278.078 80.3723 277.293 80.3723C275.529 80.3723 274.149 80.9239 273.169 82.035C272.188 83.0808 271.698 84.8485 271.698 87.3322L271.698 90.2739L280.427 90.2739L280.427 101.55L271.698 101.55L271.698 138.897L257.288 138.897ZM308.181 140.08C304.063 140.08 300.17 139.099 296.51 137.138C292.915 135.112 290.003 132.2 287.781 128.409C285.559 124.553 284.456 119.945 284.456 114.585C284.456 109.16 285.559 104.552 287.781 100.762C290.003 96.9707 292.915 94.0998 296.51 92.1391C300.17 90.1129 304.063 89.1015 308.181 89.1015C312.299 89.1015 316.15 90.1129 319.745 92.1391C323.34 94.0998 326.252 96.9707 328.474 100.762C330.697 104.552 331.81 109.16 331.81 114.585C331.81 119.945 330.697 124.553 328.474 128.409C326.252 132.2 323.34 135.112 319.745 137.138C316.15 139.099 312.299 140.08 308.181 140.08ZM308.181 128.409C311.122 128.409 313.339 127.173 314.842 124.689C316.346 122.14 317.102 118.768 317.102 114.585C317.102 110.337 316.346 106.976 314.842 104.492C313.339 102.008 311.122 100.762 308.181 100.762C305.174 100.762 302.916 102.008 301.413 104.492C299.975 106.976 299.26 110.337 299.26 114.585C299.26 118.768 299.975 122.14 301.413 124.689C302.916 127.173 305.174 128.409 308.181 128.409ZM341.68 138.897L341.68 90.2739L353.436 90.2739L354.417 98.8005L354.811 98.8005C356.576 95.5325 358.701 93.1215 361.185 91.5528C363.668 89.9189 366.151 89.1015 368.635 89.1015C370.007 89.1015 371.152 89.1931 372.067 89.3892C372.982 89.5199 373.769 89.7552 374.422 90.082L372.067 102.531C371.217 102.269 370.369 102.075 369.519 101.945C368.735 101.814 367.815 101.742 366.77 101.742C364.939 101.742 363.019 102.427 360.993 103.799C359.032 105.106 357.397 107.395 356.09 110.663L356.09 138.897L341.68 138.897ZM380.742 138.897L380.742 90.2739L392.499 90.2739L393.479 96.5516L393.873 96.5516C395.9 94.5254 398.056 92.7882 400.343 91.3503C402.631 89.8471 405.379 89.1015 408.582 89.1015C412.046 89.1015 414.825 89.8165 416.917 91.2544C419.074 92.627 420.77 94.6193 422.011 97.2337C424.168 95.0115 426.457 93.1215 428.875 91.5528C431.294 89.9189 434.103 89.1015 437.306 89.1015C442.535 89.1015 446.356 90.8585 448.774 94.3879C451.258 97.852 452.505 102.624 452.505 108.702L452.505 138.897L438.095 138.897L438.095 110.567C438.095 107.038 437.604 104.616 436.624 103.309C435.709 102.002 434.207 101.348 432.115 101.348C429.697 101.348 426.918 102.921 423.781 106.059L423.781 138.897L409.371 138.897L409.371 110.567C409.371 107.038 408.88 104.616 407.9 103.309C406.985 102.002 405.472 101.348 403.381 101.348C400.962 101.348 398.224 102.921 395.152 106.059L395.152 138.897L380.742 138.897ZM486.569 140.08C481.928 140.08 477.739 139.068 474.013 137.042C470.288 135.016 467.345 132.104 465.188 128.313C463.031 124.522 461.959 119.945 461.959 114.585C461.959 109.291 463.031 104.755 465.188 100.964C467.41 97.1732 470.292 94.2611 473.821 92.235C477.351 90.1435 481.039 89.1015 484.895 89.1015C489.536 89.1015 493.357 90.1435 496.363 92.235C499.435 94.2611 501.724 97.0403 503.227 100.57C504.796 104.034 505.583 107.988 505.583 112.432C505.583 113.674 505.522 114.91 505.391 116.152C505.26 117.329 505.127 118.218 504.997 118.806L475.878 118.806C476.532 122.335 478.003 124.951 480.291 126.65C482.578 128.284 485.327 129.102 488.53 129.102C491.994 129.102 495.488 128.019 499.017 125.862L503.824 134.591C501.341 136.29 498.561 137.629 495.49 138.609C492.418 139.589 489.444 140.08 486.569 140.08ZM475.782 109.299L493.326 109.299C493.326 106.619 492.672 104.422 491.365 102.723C490.123 100.958 488.069 100.079 485.194 100.079C482.971 100.079 480.979 100.866 479.214 102.435C477.45 103.938 476.305 106.227 475.782 109.299ZM515.538 138.897L515.538 90.2739L527.304 90.2739L528.285 98.8005L528.679 98.8005C530.444 95.5325 532.569 93.1215 535.053 91.5528C537.537 89.9189 540.019 89.1015 542.503 89.1015C543.876 89.1015 545.02 89.1931 545.935 89.3892C546.85 89.5199 547.637 89.7552 548.291 90.082L545.935 102.531C545.085 102.269 544.237 102.075 543.388 101.945C542.603 101.814 541.684 101.742 540.638 101.742C538.808 101.742 536.887 102.427 534.861 103.799C532.9 105.106 531.266 107.395 529.958 110.663L529.958 138.897L515.538 138.897ZM568.158 140.08C564.955 140.08 561.655 139.456 558.256 138.215C554.923 136.973 552.011 135.338 549.527 133.312L555.997 124.295C558.219 125.929 560.344 127.206 562.37 128.121C564.462 128.971 566.515 129.39 568.541 129.39C570.698 129.39 572.272 129.032 573.252 128.313C574.233 127.529 574.723 126.517 574.723 125.276C574.723 124.164 574.233 123.245 573.252 122.526C572.337 121.807 571.132 121.153 569.628 120.565C568.125 119.911 566.521 119.257 564.822 118.603C562.861 117.819 560.899 116.838 558.938 115.662C557.043 114.485 555.439 112.983 554.131 111.153C552.824 109.258 552.17 106.969 552.17 104.289C552.17 99.7797 553.877 96.1219 557.276 93.3115C560.74 90.501 565.245 89.1015 570.801 89.1015C574.526 89.1015 577.796 89.7554 580.606 91.0626C583.482 92.3044 585.935 93.704 587.961 95.2726L581.491 103.906C579.792 102.599 578.085 101.576 576.386 100.857C574.686 100.139 572.99 99.781 571.291 99.781C567.566 99.781 565.706 101.058 565.706 103.607C565.706 105.176 566.615 106.381 568.445 107.231C570.341 108.015 572.527 108.874 575.011 109.789C577.102 110.508 579.136 111.448 581.097 112.624C583.123 113.735 584.788 115.237 586.095 117.133C587.468 118.963 588.153 121.384 588.153 124.391C588.153 128.77 586.457 132.5 583.058 135.571C579.659 138.578 574.694 140.08 568.158 140.08Z"   fill="#000000" ></path><path d="M368.355 204.625C368.058 203.506 367.577 202.444 366.933 201.482C367.071 200.976 367.176 200.46 367.247 199.94C367.704 196.64 366.56 193.618 364.404 191.281C363.236 190.004 361.984 189.16 360.658 188.643C361.529 184.919 361.969 181.108 361.971 177.284C361.971 175.537 361.872 173.826 361.707 172.14C361.62 171.299 361.516 170.459 361.393 169.622C361.013 167.152 360.45 164.713 359.708 162.326C359.221 160.758 358.659 159.215 358.021 157.702C357.066 155.461 355.952 153.291 354.685 151.21C353.855 149.826 352.95 148.487 351.975 147.2C351.497 146.55 351 145.915 350.482 145.296C348.947 143.432 347.28 141.681 345.493 140.057C344.899 139.512 344.289 138.985 343.662 138.477C343.046 137.962 342.415 137.464 341.772 136.984C340.476 136.02 339.138 135.115 337.761 134.273C330.15 129.651 321.225 127 311.685 127C283.91 127 261.399 149.512 261.399 177.285C261.398 181.158 261.847 185.017 262.736 188.786C261.543 189.304 260.4 190.111 259.339 191.28C257.184 193.616 256.039 196.627 256.497 199.927C256.566 200.451 256.671 200.971 256.81 201.481C256.166 202.443 255.686 203.506 255.389 204.625C254.726 207.145 254.944 209.416 255.787 211.406C254.871 214.008 255.099 216.777 256.292 219.186C257.159 220.945 258.4 222.306 259.93 223.522C261.748 224.968 264.025 226.196 266.771 227.375C270.047 228.772 274.046 230.084 275.865 230.566C280.562 231.783 285.067 232.553 289.632 232.591C296.136 232.651 301.737 231.122 305.747 227.208C307.717 227.449 309.7 227.57 311.685 227.569C313.782 227.565 315.877 227.433 317.958 227.174C321.959 231.113 327.582 232.657 334.109 232.594C338.674 232.558 343.178 231.787 347.864 230.569C349.694 230.088 353.691 228.774 356.969 227.378C359.715 226.197 361.992 224.969 363.822 223.525C365.341 222.308 366.581 220.948 367.448 219.189C368.653 216.781 368.869 214.01 367.967 211.409C368.8 209.419 369.018 207.142 368.355 204.625ZM363.694 211.238C364.617 212.989 364.676 214.967 363.861 216.811C362.627 219.603 359.559 221.804 353.602 224.166C349.898 225.635 346.505 226.574 346.476 226.583C341.576 227.854 337.145 228.499 333.309 228.499C326.957 228.499 322.229 226.747 319.232 223.284C314.162 224.148 308.986 224.178 303.907 223.372C300.906 226.776 296.206 228.499 289.907 228.499C286.071 228.499 281.64 227.854 276.739 226.583C276.71 226.574 273.319 225.635 269.613 224.166C263.656 221.804 260.587 219.605 259.353 216.811C258.539 214.967 258.598 212.989 259.521 211.238C259.606 211.075 259.698 210.917 259.796 210.763C259.242 209.932 258.871 208.994 258.707 208.009C258.542 207.025 258.588 206.017 258.841 205.052C259.208 203.659 259.965 202.499 260.993 201.667C260.498 200.853 260.173 199.948 260.038 199.004C259.742 196.953 260.423 194.906 261.954 193.235C263.147 191.936 264.833 191.22 266.7 191.22L266.75 191.22C265.342 186.709 264.629 182.01 264.633 177.284C264.633 151.508 285.529 130.611 311.309 130.611C337.088 130.611 357.983 151.506 357.983 177.284C357.986 182.022 357.268 186.734 355.852 191.256C356.077 191.234 356.297 191.223 356.515 191.222C358.382 191.222 360.068 191.937 361.26 193.237C362.792 194.906 363.473 196.955 363.177 199.006C363.042 199.949 362.717 200.855 362.222 201.669C363.25 202.501 364.008 203.66 364.374 205.054C364.627 206.019 364.672 207.027 364.508 208.012C364.344 208.995 363.973 209.934 363.419 210.764C363.517 210.917 363.61 211.075 363.694 211.238Z"   fill="#FFFFFF" ></path><path d="M363.421 210.764C363.975 209.933 364.346 208.995 364.51 208.011C364.674 207.026 364.629 206.018 364.376 205.053C364.009 203.66 363.251 202.5 362.224 201.668C362.718 200.854 363.044 199.949 363.178 199.005C363.475 196.954 362.793 194.907 361.262 193.236C360.07 191.937 358.383 191.221 356.516 191.221C356.299 191.221 356.078 191.233 355.854 191.255C357.268 186.733 357.985 182.022 357.98 177.284C357.98 151.508 337.085 130.611 311.308 130.611C285.531 130.611 264.633 151.506 264.633 177.284C264.629 182.01 265.342 186.709 266.75 191.221L266.7 191.221C264.833 191.221 263.147 191.935 261.955 193.235C260.423 194.903 259.742 196.953 260.038 199.004C260.173 199.948 260.498 200.854 260.994 201.667C259.965 202.5 259.208 203.658 258.841 205.051C258.588 206.018 258.543 207.025 258.707 208.01C258.872 208.995 259.243 209.933 259.796 210.764C259.698 210.917 259.607 211.076 259.522 211.239C258.6 212.99 258.54 214.968 259.355 216.811C260.59 219.604 263.657 221.805 269.614 224.167C273.318 225.636 276.711 226.575 276.741 226.584C281.641 227.855 286.072 228.5 289.908 228.5C296.208 228.5 300.907 226.777 303.909 223.373C308.988 224.179 314.164 224.149 319.233 223.285C322.231 226.747 326.958 228.5 333.31 228.5C337.146 228.5 341.578 227.855 346.476 226.584C346.507 226.575 349.898 225.636 353.603 224.167C359.561 221.805 362.629 219.604 363.863 216.811C364.677 214.968 364.619 212.99 363.695 211.239C363.612 211.074 363.519 210.915 363.421 210.764ZM301.761 218.043C301.503 218.495 301.226 218.936 300.932 219.366C300.156 220.501 299.135 221.37 297.95 222.015C295.686 223.249 292.82 223.68 289.908 223.68C285.308 223.68 280.593 222.605 277.95 221.919C277.82 221.885 261.75 217.346 263.784 213.482C264.127 212.832 264.69 212.573 265.4 212.573C268.264 212.573 273.481 216.839 275.722 216.839C276.223 216.839 276.577 216.626 276.721 216.105C277.676 212.679 262.2 211.239 263.503 206.277C263.733 205.399 264.357 205.042 265.234 205.042C269.022 205.042 277.522 211.703 279.3 211.703C279.437 211.703 279.534 211.662 279.587 211.579C279.595 211.566 279.603 211.553 279.61 211.54C280.444 210.162 279.966 209.161 274.249 205.659L273.7 205.325C267.409 201.517 262.994 199.226 265.505 196.492C265.794 196.177 266.203 196.038 266.701 196.038C267.291 196.038 268.005 196.234 268.791 196.566C272.114 197.967 276.719 201.788 278.642 203.454C278.945 203.717 279.246 203.983 279.544 204.251C279.544 204.251 281.98 206.783 283.452 206.783C283.791 206.783 284.079 206.649 284.274 206.319C285.318 204.558 274.574 196.417 273.968 193.057C273.557 190.781 274.257 189.628 275.549 189.628C276.164 189.628 276.914 189.89 277.741 190.415C280.31 192.045 285.268 200.565 287.083 203.88C287.692 204.991 288.731 205.46 289.667 205.46C291.524 205.46 292.976 203.614 289.837 201.268C285.119 197.738 286.775 191.968 289.026 191.612C289.122 191.597 289.219 191.589 289.316 191.589C291.364 191.589 292.267 195.118 292.267 195.118C292.267 195.118 294.915 201.766 299.463 206.311C303.589 210.436 304.166 213.82 301.761 218.043ZM316.468 218.822L316.232 218.85L315.83 218.896C315.618 218.918 315.406 218.939 315.194 218.959L314.987 218.977L314.797 218.994L314.529 219.015L314.232 219.036L313.936 219.056L313.87 219.06C313.793 219.064 313.716 219.069 313.637 219.074L313.539 219.079C313.447 219.084 313.355 219.088 313.262 219.092L312.941 219.106L312.65 219.115L312.456 219.121L312.357 219.121C312.296 219.121 312.236 219.125 312.175 219.126L312.079 219.126C312.019 219.126 311.958 219.126 311.898 219.128L311.65 219.132L311.305 219.132C311.034 219.132 310.763 219.128 310.494 219.123L310.275 219.118C310.213 219.118 310.15 219.115 310.089 219.113L309.857 219.106L309.569 219.095L309.31 219.084L309.243 219.081L308.996 219.068C308.927 219.064 308.859 219.061 308.791 219.056L308.631 219.046C308.431 219.034 308.23 219.02 308.03 219.005L307.82 218.988C307.731 218.981 307.643 218.973 307.555 218.965C307.452 218.956 307.349 218.946 307.245 218.936C307.072 218.92 306.9 218.902 306.727 218.884L306.718 218.884C309.242 213.253 307.966 207.995 302.866 202.899C299.521 199.558 297.296 194.626 296.834 193.542C295.899 190.336 293.426 186.772 289.319 186.772C288.972 186.772 288.625 186.8 288.282 186.854C286.482 187.137 284.91 188.173 283.787 189.731C282.575 188.223 281.396 187.024 280.33 186.347C278.723 185.328 277.119 184.811 275.557 184.811C273.607 184.811 271.864 185.612 270.649 187.064L270.618 187.101C270.595 187.006 270.572 186.91 270.55 186.814L270.547 186.802C270.316 185.813 270.122 184.816 269.965 183.813C269.965 183.806 269.965 183.799 269.962 183.793C269.949 183.717 269.938 183.641 269.927 183.565C269.893 183.341 269.861 183.116 269.831 182.891C269.818 182.789 269.804 182.687 269.791 182.585L269.753 182.278C269.741 182.176 269.731 182.083 269.72 181.986L269.717 181.962C269.673 181.564 269.634 181.167 269.601 180.768L269.589 180.615L269.569 180.354C269.564 180.283 269.558 180.211 269.555 180.139C269.555 180.122 269.552 180.106 269.551 180.09C269.537 179.89 269.525 179.689 269.515 179.489C269.51 179.385 269.504 179.281 269.5 179.176L269.489 178.902L269.486 178.819L269.477 178.567L269.472 178.352C269.472 178.266 269.467 178.181 269.466 178.095C269.465 178.009 269.462 177.915 269.462 177.825C269.461 177.734 269.462 177.645 269.459 177.555C269.457 177.464 269.459 177.374 269.459 177.284C269.459 154.17 288.198 135.43 311.315 135.43C334.431 135.43 353.17 154.169 353.17 177.284L353.17 177.825C353.17 177.915 353.167 178.005 353.166 178.095C353.166 178.169 353.162 178.243 353.16 178.319C353.16 178.385 353.157 178.452 353.155 178.516C353.155 178.6 353.15 178.685 353.147 178.769L353.147 178.776L353.136 179.069C353.132 179.155 353.128 179.241 353.124 179.327L353.121 179.387L353.106 179.661C353.074 180.248 353.029 180.834 352.973 181.42L352.973 181.427C352.964 181.523 352.954 181.619 352.944 181.715L352.919 181.942L352.87 182.386L352.842 182.611L352.807 182.875C352.794 182.972 352.782 183.068 352.767 183.164C352.753 183.271 352.736 183.379 352.721 183.486L352.683 183.739L352.638 184.026C352.622 184.122 352.605 184.217 352.587 184.312C352.569 184.407 352.555 184.502 352.539 184.597C352.506 184.787 352.471 184.977 352.434 185.167C352.379 185.45 352.322 185.733 352.263 186.016L352.202 186.296C352.182 186.389 352.161 186.483 352.139 186.576C350.961 185.431 349.401 184.808 347.682 184.808C346.12 184.808 344.514 185.324 342.908 186.343C341.842 187.02 340.665 188.22 339.451 189.728C338.327 188.169 336.754 187.133 334.956 186.85C334.613 186.796 334.266 186.768 333.919 186.768C329.81 186.768 327.339 190.332 326.404 193.538C325.94 194.621 323.714 199.554 320.366 202.9C315.269 207.979 313.984 213.215 316.468 218.822ZM359.679 207.551L359.662 207.6C359.62 207.711 359.571 207.819 359.517 207.924C359.475 208.002 359.43 208.076 359.381 208.149C359.289 208.287 359.188 208.418 359.078 208.542C359.053 208.57 359.029 208.599 359 208.628C358.961 208.67 358.92 208.712 358.879 208.753C358.135 209.489 357.002 210.136 355.721 210.729C355.575 210.794 355.428 210.86 355.28 210.926L355.131 210.992C355.033 211.035 354.934 211.079 354.83 211.121C354.731 211.164 354.628 211.207 354.526 211.249L354.218 211.376C353.497 211.673 352.759 211.956 352.038 212.234L351.73 212.355L351.426 212.474C351.223 212.552 351.023 212.631 350.826 212.711L350.533 212.829L350.245 212.947L350.104 213.006C350.009 213.045 349.916 213.084 349.824 213.124C347.705 214.033 346.181 214.958 346.501 216.106C346.51 216.139 346.52 216.169 346.531 216.2C346.56 216.285 346.599 216.365 346.648 216.44C346.677 216.485 346.71 216.528 346.746 216.566C347.124 216.958 347.808 216.896 348.673 216.585C348.795 216.541 348.916 216.494 349.036 216.445L349.111 216.415C349.308 216.33 349.518 216.237 349.732 216.135C349.784 216.11 349.839 216.086 349.893 216.057C350.95 215.541 352.148 214.844 353.337 214.211C353.812 213.954 354.294 213.71 354.782 213.48C355.908 212.95 356.966 212.574 357.817 212.574C358.216 212.574 358.568 212.656 358.862 212.843L358.911 212.876C359.095 213.006 359.25 213.173 359.366 213.366C359.388 213.403 359.41 213.442 359.432 213.482C359.852 214.28 359.501 215.106 358.677 215.917C357.887 216.695 356.658 217.458 355.26 218.164C355.156 218.216 355.052 218.269 354.947 218.32C350.789 220.362 345.342 221.9 345.267 221.92C343.816 222.296 341.74 222.79 339.401 223.159L339.056 223.213L338.999 223.221C338.737 223.261 338.475 223.298 338.212 223.332C337.945 223.368 337.676 223.401 337.404 223.431L337.355 223.437C336.372 223.55 335.385 223.625 334.396 223.661L334.382 223.661C334.024 223.674 333.666 223.68 333.308 223.68L332.896 223.68C332.35 223.673 331.806 223.648 331.262 223.606C331.249 223.606 331.235 223.606 331.223 223.603C331.027 223.588 330.833 223.57 330.638 223.548C330.437 223.527 330.236 223.502 330.035 223.475C329.903 223.458 329.772 223.438 329.641 223.416C329.507 223.395 329.374 223.373 329.241 223.349L329.058 223.315L329.045 223.313C328.853 223.276 328.662 223.236 328.472 223.192C328.363 223.167 328.253 223.142 328.144 223.112L328.078 223.096C328.024 223.083 327.972 223.068 327.918 223.054L327.888 223.046L327.719 222.997C327.656 222.979 327.594 222.961 327.533 222.943L327.511 222.936L327.351 222.888C327.289 222.869 327.229 222.848 327.168 222.829L327.021 222.779L326.912 222.741C326.807 222.704 326.703 222.666 326.599 222.627L326.501 222.588L326.42 222.556C326.263 222.493 326.107 222.428 325.953 222.358L325.851 222.308L325.834 222.301C325.797 222.284 325.762 222.267 325.725 222.251C325.654 222.217 325.583 222.182 325.513 222.146L325.491 222.135L325.39 222.082C325.209 221.987 325.033 221.887 324.859 221.78L324.764 221.722C324.717 221.693 324.669 221.662 324.623 221.631L324.499 221.549L324.366 221.458L324.286 221.401C324.202 221.342 324.12 221.279 324.04 221.216L323.911 221.117C323.859 221.076 323.809 221.034 323.758 220.992C323.716 220.957 323.674 220.92 323.633 220.883L323.63 220.881C323.585 220.842 323.541 220.803 323.498 220.762C323.455 220.722 323.412 220.683 323.37 220.642L323.365 220.638C323.32 220.596 323.277 220.553 323.235 220.51C323.192 220.467 323.149 220.424 323.107 220.379C323.066 220.336 323.023 220.291 322.982 220.246C322.942 220.2 322.904 220.159 322.865 220.114L322.853 220.099C322.815 220.056 322.778 220.012 322.742 219.967C322.663 219.873 322.586 219.776 322.512 219.677C322.437 219.578 322.364 219.476 322.293 219.373L322.225 219.271C322.135 219.139 322.046 219.005 321.961 218.869C321.897 218.772 321.834 218.673 321.773 218.574C321.734 218.511 321.697 218.448 321.659 218.386L321.644 218.361C321.608 218.3 321.572 218.241 321.538 218.18C321.518 218.148 321.5 218.115 321.482 218.081C321.464 218.047 321.443 218.012 321.423 217.977L321.392 217.923L321.373 217.887C321.336 217.822 321.299 217.754 321.264 217.687C321.247 217.657 321.231 217.627 321.214 217.598L321.165 217.503L321.115 217.409C320.991 217.16 320.873 216.909 320.763 216.653L320.724 216.56C320.698 216.497 320.675 216.436 320.649 216.375C320.637 216.345 320.625 216.315 320.614 216.285C320.555 216.133 320.5 215.978 320.449 215.822C320.431 215.767 320.413 215.712 320.397 215.657C320.357 215.531 320.321 215.405 320.289 215.277C320.25 215.129 320.215 214.979 320.186 214.828C320.18 214.797 320.174 214.767 320.169 214.738C320.14 214.59 320.117 214.442 320.098 214.293C320.094 214.263 320.091 214.234 320.087 214.205L320.078 214.116C320.066 213.998 320.056 213.881 320.051 213.763C320.051 213.733 320.048 213.704 320.047 213.675C320.044 213.616 320.043 213.558 320.043 213.499C320.012 211.139 321.206 208.87 323.759 206.319C328.307 201.775 330.954 195.126 330.954 195.126C330.954 195.126 331.026 194.847 331.174 194.446C331.194 194.39 331.216 194.332 331.24 194.272C331.326 194.047 331.424 193.827 331.531 193.611L331.553 193.57C331.644 193.386 331.745 193.207 331.853 193.033C331.878 192.993 331.903 192.953 331.931 192.913C332.012 192.793 332.098 192.676 332.188 192.563C332.237 192.502 332.291 192.441 332.344 192.382C332.366 192.359 332.387 192.335 332.409 192.313C332.673 192.041 332.974 191.819 333.314 191.701L333.358 191.686C333.386 191.677 333.415 191.668 333.445 191.66C333.478 191.651 333.512 191.643 333.546 191.636L333.562 191.633C333.635 191.618 333.707 191.609 333.78 191.604L333.787 191.604C333.824 191.604 333.864 191.6 333.903 191.6C333.951 191.6 333.997 191.6 334.046 191.605C334.095 191.61 334.145 191.615 334.194 191.623C334.604 191.688 334.994 191.932 335.329 192.309C335.457 192.452 335.572 192.607 335.673 192.771C335.739 192.877 335.801 192.989 335.86 193.107C335.884 193.156 335.907 193.201 335.929 193.25C335.986 193.375 336.038 193.502 336.083 193.632C336.191 193.935 336.272 194.248 336.326 194.566C336.373 194.845 336.4 195.126 336.409 195.409C336.414 195.56 336.414 195.712 336.409 195.866C336.379 196.584 336.232 197.291 335.974 197.961C335.951 198.022 335.925 198.084 335.9 198.146C335.849 198.271 335.794 198.393 335.733 198.514C335.689 198.605 335.642 198.696 335.591 198.787C335.558 198.847 335.523 198.909 335.488 198.969C335.399 199.121 335.303 199.271 335.2 199.421L335.138 199.51C334.893 199.85 334.622 200.169 334.324 200.464C334.031 200.758 333.718 201.029 333.386 201.276C333.054 201.523 332.742 201.795 332.453 202.092C331.624 202.963 331.43 203.732 331.617 204.314C331.647 204.406 331.686 204.495 331.734 204.579C331.789 204.675 331.855 204.763 331.93 204.844L331.96 204.874L331.99 204.904C332.02 204.933 332.051 204.961 332.084 204.988L332.118 205.015C332.198 205.077 332.283 205.132 332.371 205.181C332.398 205.194 332.421 205.209 332.45 205.222C332.546 205.268 332.645 205.309 332.747 205.342C332.775 205.351 332.803 205.36 332.831 205.368L332.868 205.377L332.917 205.391L332.96 205.401L333.006 205.411L333.052 205.421L333.095 205.428C333.128 205.433 333.161 205.439 333.194 205.442L333.226 205.447L333.283 205.453L333.319 205.457L333.376 205.461L333.411 205.461L333.471 205.464L333.663 205.464L333.717 205.461L333.78 205.457L333.857 205.45L333.928 205.441C333.945 205.441 333.962 205.437 333.979 205.434C334.199 205.401 334.416 205.343 334.623 205.259L334.71 205.222C334.76 205.2 334.809 205.178 334.855 205.153C334.952 205.105 335.047 205.049 335.137 204.99C335.263 204.906 335.383 204.814 335.495 204.712C335.521 204.688 335.547 204.663 335.572 204.638C335.585 204.626 335.597 204.614 335.609 204.602C335.634 204.577 335.658 204.552 335.683 204.525C335.859 204.331 336.013 204.117 336.139 203.886C337.219 201.92 338.352 199.984 339.535 198.08L339.698 197.819L339.861 197.56C339.943 197.428 340.027 197.297 340.108 197.169L340.191 197.039C340.466 196.608 340.746 196.181 341.03 195.756L341.199 195.504C341.537 195.003 341.874 194.516 342.208 194.053L342.374 193.824C342.738 193.323 343.116 192.832 343.508 192.354L343.664 192.167C343.69 192.137 343.714 192.106 343.742 192.076C343.794 192.015 343.845 191.956 343.895 191.899C343.92 191.869 343.944 191.841 343.971 191.812L344.119 191.645L344.193 191.564C344.268 191.484 344.34 191.407 344.412 191.334C344.462 191.284 344.508 191.235 344.555 191.188C344.835 190.902 345.144 190.645 345.477 190.423L345.554 190.373C345.628 190.323 345.705 190.277 345.784 190.235C347.089 189.494 348.17 189.439 348.792 190.062C349.169 190.438 349.378 191.063 349.366 191.932C349.366 191.97 349.366 192.009 349.364 192.049L349.364 192.091C349.364 192.131 349.36 192.171 349.357 192.211C349.357 192.261 349.351 192.31 349.347 192.36C349.342 192.409 349.339 192.446 349.334 192.491C349.334 192.503 349.331 192.515 349.33 192.529C349.326 192.567 349.321 192.606 349.315 192.645C349.315 192.657 349.315 192.669 349.311 192.681C349.305 192.734 349.297 192.785 349.289 192.837C349.282 192.887 349.274 192.934 349.265 192.982L349.25 193.064C349.237 193.143 349.218 193.22 349.196 193.296C349.152 193.439 349.1 193.579 349.039 193.715C348.954 193.902 348.859 194.083 348.756 194.26C348.698 194.358 348.639 194.455 348.578 194.551C348.515 194.649 348.448 194.749 348.38 194.85C348.205 195.1 348.024 195.344 347.836 195.584L347.75 195.693C347.442 196.075 347.125 196.451 346.798 196.817L346.695 196.933C346.556 197.088 346.415 197.244 346.27 197.401L346.161 197.519C346.089 197.598 346.013 197.677 345.941 197.756C345.868 197.836 345.792 197.916 345.716 197.996L345.489 198.235L345.259 198.475L345.027 198.716C344.871 198.878 344.715 199.039 344.557 199.2C342.319 201.497 339.958 203.786 339.16 205.213C339.107 205.306 339.059 205.402 339.016 205.5C338.902 205.76 338.855 205.981 338.887 206.161C338.897 206.22 338.918 206.277 338.948 206.329C338.993 206.406 339.048 206.478 339.111 206.543C339.141 206.571 339.172 206.597 339.204 206.622C339.368 206.738 339.567 206.799 339.769 206.794L339.832 206.794L339.896 206.789L339.961 206.781L340.015 206.773C340.021 206.773 340.029 206.772 340.037 206.769L340.086 206.76L340.099 206.757L340.154 206.745L340.172 206.74C340.192 206.735 340.211 206.731 340.23 206.725C340.25 206.72 340.276 206.712 340.299 206.704C340.396 206.675 340.492 206.641 340.584 206.6C340.634 206.581 340.682 206.56 340.729 206.536C340.754 206.525 340.779 206.514 340.803 206.502L340.877 206.465C341.053 206.373 341.225 206.273 341.393 206.166L341.467 206.117C341.492 206.101 341.516 206.085 341.54 206.067L341.613 206.018L341.653 205.991L341.759 205.917C341.858 205.848 341.95 205.779 342.043 205.707L342.051 205.7L342.2 205.585C342.403 205.425 342.594 205.264 342.769 205.113L342.886 205.01L342.896 205.001L342.956 204.947C343.1 204.819 343.226 204.699 343.332 204.602L343.376 204.559C343.413 204.523 343.448 204.489 343.479 204.461L343.542 204.4L343.564 204.378L343.57 204.372L343.634 204.307L343.675 204.264L343.68 204.261L343.699 204.243L343.724 204.221L343.732 204.214L343.752 204.195L343.864 204.096L343.927 204.039C343.961 204.01 343.994 203.981 344.026 203.95L344.101 203.884C344.115 203.872 344.128 203.861 344.142 203.848L344.221 203.779L344.337 203.677L344.399 203.624C344.639 203.414 344.931 203.162 345.267 202.878L345.405 202.761L345.632 202.571L345.864 202.377C346.168 202.125 346.495 201.856 346.841 201.579L347.067 201.397C347.261 201.242 347.459 201.086 347.66 200.928C347.741 200.864 347.824 200.8 347.907 200.737C348.113 200.578 348.319 200.42 348.528 200.263C349.002 199.905 349.491 199.547 349.985 199.198L350.197 199.05C350.346 198.948 350.494 198.845 350.642 198.745L350.776 198.655C351.041 198.475 351.309 198.3 351.58 198.129L351.714 198.045L351.847 197.962C351.981 197.879 352.113 197.798 352.245 197.719L352.377 197.64L352.641 197.486L352.9 197.338L352.953 197.309L353.157 197.197C353.243 197.15 353.328 197.106 353.414 197.061L353.54 196.997L353.663 196.934C353.706 196.914 353.748 196.893 353.791 196.872C354.068 196.735 354.35 196.609 354.637 196.495C354.716 196.462 354.793 196.432 354.87 196.406L355.096 196.326C355.164 196.303 355.23 196.282 355.294 196.262L355.316 196.256C355.35 196.245 355.384 196.235 355.418 196.226L355.428 196.223C355.498 196.203 355.569 196.185 355.638 196.169L355.642 196.169C355.838 196.122 356.037 196.088 356.238 196.067C356.33 196.058 356.422 196.053 356.515 196.054L356.561 196.054C356.623 196.054 356.682 196.058 356.742 196.064C356.769 196.064 356.796 196.069 356.823 196.073L356.834 196.073C356.86 196.076 356.887 196.08 356.913 196.086C356.939 196.09 356.965 196.096 356.991 196.102L356.999 196.102C357.026 196.107 357.049 196.113 357.076 196.121C357.216 196.16 357.349 196.222 357.472 196.301C357.532 196.34 357.589 196.384 357.641 196.434L357.655 196.447C357.665 196.457 357.675 196.466 357.683 196.475L357.71 196.504C357.933 196.737 358.116 197.003 358.254 197.294L358.275 197.344C358.322 197.454 358.359 197.569 358.386 197.686C358.464 198.042 358.433 198.414 358.298 198.754C358.247 198.891 358.185 199.023 358.111 199.149C357.939 199.438 357.735 199.707 357.504 199.95L357.455 200.003C357.382 200.081 357.305 200.158 357.225 200.235C357.19 200.27 357.152 200.304 357.116 200.339L357.003 200.443L356.944 200.495C356.801 200.623 356.654 200.746 356.506 200.865C356.416 200.938 356.326 201.009 356.234 201.08C355.91 201.327 355.58 201.565 355.245 201.796C355.042 201.935 354.838 202.071 354.631 202.207C354.124 202.54 353.611 202.864 353.093 203.18C352.007 203.848 350.801 204.563 349.518 205.34L349.185 205.542C348.821 205.763 348.478 205.975 348.154 206.178L347.991 206.28L347.683 206.478C347.479 206.608 347.274 206.74 347.071 206.872L346.906 206.98C346.826 207.032 346.747 207.086 346.668 207.139L346.59 207.188L346.351 207.349L346.225 207.436L346.077 207.538L345.939 207.634C345.709 207.797 345.494 207.952 345.298 208.099L345.224 208.156C345.108 208.243 344.993 208.333 344.879 208.424C344.709 208.562 344.553 208.693 344.414 208.82L344.345 208.882C344.305 208.918 344.267 208.954 344.23 208.989C344.205 209.014 344.181 209.039 344.155 209.063L344.119 209.098C344.04 209.178 343.963 209.259 343.888 209.342L343.851 209.384C343.771 209.478 343.7 209.568 343.638 209.656L343.611 209.695C343.562 209.765 343.517 209.839 343.477 209.914C343.467 209.932 343.457 209.951 343.448 209.97L343.421 210.027L343.402 210.067L343.391 210.095L343.381 210.12L343.369 210.154C343.335 210.247 343.311 210.344 343.297 210.443L343.292 210.477L343.289 210.509L343.289 210.683C343.289 210.697 343.289 210.712 343.293 210.727L343.295 210.753C343.295 210.768 343.299 210.781 343.301 210.797C343.303 210.811 343.307 210.837 343.312 210.857L343.312 210.861C343.316 210.879 343.319 210.898 343.324 210.918C343.33 210.937 343.335 210.959 343.341 210.979C343.351 211.018 343.364 211.057 343.378 211.096C343.387 211.119 343.395 211.142 343.404 211.164C343.404 211.168 343.408 211.173 343.41 211.178L343.43 211.223L343.457 211.284C343.487 211.348 343.52 211.409 343.555 211.47L343.592 211.533L343.629 211.596C343.636 211.606 343.644 211.616 343.652 211.626L343.664 211.638L343.678 211.651L343.692 211.662C343.714 211.677 343.736 211.689 343.76 211.696C343.772 211.701 343.786 211.704 343.799 211.707C344.117 211.78 344.772 211.516 345.643 211.057C345.692 211.03 345.746 211.002 345.798 210.974L346.063 210.829L346.193 210.757C346.285 210.708 346.379 210.652 346.475 210.598L346.65 210.499C347.801 209.836 349.175 208.986 350.595 208.156C350.728 208.077 350.862 208 350.996 207.923L351.264 207.751C351.576 207.572 351.888 207.397 352.202 207.222C352.598 207.005 352.997 206.793 353.4 206.588L353.663 206.454C353.838 206.368 354.011 206.284 354.181 206.203C354.511 206.046 354.845 205.896 355.183 205.756L355.368 205.681L355.39 205.672C356.371 205.284 357.259 205.044 357.979 205.044C358.134 205.042 358.29 205.055 358.442 205.082L358.447 205.082C358.496 205.09 358.541 205.101 358.587 205.112L358.595 205.112C358.713 205.141 358.827 205.184 358.935 205.239C359.088 205.317 359.224 205.422 359.339 205.548C359.392 205.606 359.439 205.67 359.48 205.737C359.558 205.856 359.619 205.985 359.662 206.119C359.68 206.171 359.696 206.223 359.712 206.278C359.828 206.696 359.817 207.139 359.679 207.551Z"   fill="#FF9D00" ></path><path d="M353.164 177.555L353.164 177.284C353.164 154.169 334.431 135.431 311.315 135.431C288.199 135.431 269.459 154.17 269.459 177.284L269.459 177.374C269.458 177.435 269.458 177.495 269.459 177.555C269.462 177.645 269.463 177.735 269.462 177.825L269.465 178.024L269.467 178.095C269.467 178.128 269.468 178.161 269.469 178.194C269.47 178.246 269.472 178.299 269.472 178.352L269.478 178.567L269.487 178.819L269.489 178.902L269.5 179.163L269.5 179.176C269.505 179.278 269.51 179.38 269.515 179.481L269.516 179.489C269.521 179.593 269.527 179.697 269.534 179.802C269.539 179.898 269.544 179.994 269.552 180.09L269.553 180.107C269.558 180.189 269.563 180.272 269.569 180.354L269.571 180.377L269.589 180.615L269.591 180.631C269.594 180.677 269.597 180.723 269.602 180.768C269.635 181.166 269.673 181.565 269.717 181.962L269.72 181.987L269.754 182.279L269.791 182.585L269.819 182.793L269.832 182.891C269.861 183.116 269.893 183.341 269.927 183.565L269.929 183.58L269.962 183.792C270.12 184.803 270.315 185.807 270.547 186.802L270.55 186.815L270.568 186.889L270.618 187.102L270.649 187.065C271.864 185.612 273.607 184.811 275.557 184.811C277.12 184.811 278.723 185.328 280.33 186.347C281.396 187.024 282.575 188.223 283.788 189.732C284.91 188.173 286.483 187.137 288.282 186.854C288.625 186.8 288.972 186.773 289.319 186.773C293.426 186.773 295.9 190.336 296.834 193.542C297.296 194.626 299.521 199.558 302.877 202.895C307.977 207.991 309.254 213.249 306.729 218.88L306.738 218.88C306.91 218.899 307.083 218.916 307.257 218.933C307.36 218.943 307.463 218.953 307.566 218.961L307.603 218.965L307.831 218.984L308.041 219.001C308.241 219.016 308.441 219.03 308.642 219.043L308.802 219.053L308.928 219.06L309.007 219.065L309.254 219.077L309.321 219.08L309.58 219.092L309.868 219.103L310.1 219.11L310.138 219.111C310.188 219.113 310.237 219.115 310.286 219.115L310.339 219.117C310.665 219.124 310.99 219.128 311.316 219.127L311.662 219.127L311.908 219.124C311.969 219.122 312.029 219.122 312.091 219.122L312.187 219.122L312.27 219.119C312.303 219.118 312.335 219.117 312.369 219.117L312.467 219.117L312.661 219.112L312.953 219.102L313.274 219.088C313.367 219.085 313.458 219.08 313.55 219.076L313.649 219.069L313.796 219.061L313.882 219.056L313.947 219.052L314.243 219.033L314.54 219.011L314.808 218.99L314.997 218.973L315.205 218.955C315.552 218.924 315.898 218.887 316.243 218.846L316.479 218.818C313.994 213.211 315.281 207.975 320.36 202.9C323.708 199.555 325.934 194.621 326.397 193.538C327.332 190.332 329.805 186.769 333.913 186.769C334.26 186.769 334.607 186.796 334.95 186.85C336.748 187.133 338.321 188.169 339.444 189.728C340.658 188.22 341.836 187.02 342.902 186.343C344.509 185.324 346.114 184.808 347.675 184.808C349.396 184.808 350.956 185.432 352.134 186.576C352.156 186.483 352.177 186.39 352.197 186.296L352.257 186.016C352.279 185.914 352.3 185.812 352.321 185.71C352.357 185.529 352.393 185.349 352.428 185.167C352.465 184.978 352.5 184.788 352.533 184.598L352.55 184.495C352.56 184.434 352.57 184.373 352.582 184.312C352.601 184.217 352.616 184.122 352.632 184.026L352.638 183.99L352.677 183.739L352.715 183.486L352.715 183.484C352.744 183.296 352.771 183.109 352.795 182.922L352.801 182.876L352.836 182.612L352.864 182.386L352.914 181.942L352.933 181.764L352.938 181.715C352.949 181.619 352.959 181.523 352.967 181.427L352.967 181.419C352.975 181.343 352.983 181.266 352.989 181.19C353.028 180.754 353.061 180.317 353.088 179.878C353.092 179.806 353.097 179.734 353.101 179.661L353.101 179.658L353.115 179.387L353.119 179.326C353.127 179.143 353.135 178.96 353.141 178.776L353.141 178.769L353.144 178.698C353.147 178.637 353.149 178.577 353.149 178.516L353.15 178.492C353.152 178.435 353.155 178.376 353.155 178.318L353.156 178.269C353.158 178.211 353.16 178.153 353.16 178.095L353.161 178.046C353.162 177.973 353.164 177.899 353.164 177.825L353.164 177.555ZM300.934 219.366C304.248 214.505 304.013 210.857 299.466 206.311C294.917 201.766 292.27 195.119 292.27 195.119C292.27 195.119 291.282 191.258 289.029 191.612C286.776 191.967 285.123 197.736 289.841 201.268C294.558 204.8 288.902 207.194 287.086 203.88C285.27 200.566 280.312 192.046 277.742 190.416C275.172 188.786 273.364 189.7 273.97 193.059C274.271 194.726 277.07 197.572 279.685 200.231C282.338 202.928 284.802 205.433 284.275 206.32C283.229 208.079 279.547 204.251 279.547 204.251C279.547 204.251 268.018 193.759 265.508 196.494C263.194 199.013 266.763 201.156 272.261 204.458C272.728 204.738 273.21 205.028 273.703 205.326C279.994 209.135 280.483 210.139 279.59 211.58C279.261 212.112 277.155 210.848 274.565 209.293C270.149 206.642 264.327 203.146 263.505 206.275C262.793 208.983 267.077 210.642 270.962 212.147C274.198 213.401 277.158 214.547 276.722 216.103C276.271 217.717 273.825 216.371 271.152 214.9C268.15 213.248 264.861 211.439 263.785 213.481C261.751 217.341 277.818 221.885 277.951 221.92C283.142 223.266 296.326 226.119 300.934 219.366ZM322.287 219.366C318.973 214.505 319.208 210.857 323.756 206.311C328.304 201.766 330.951 195.119 330.951 195.119C330.951 195.119 331.939 191.258 334.193 191.612C336.445 191.967 338.099 197.736 333.381 201.268C328.663 204.8 334.32 207.194 336.135 203.88C337.951 200.566 342.906 192.046 345.476 190.416C348.047 188.786 349.856 189.7 349.25 193.059C348.949 194.726 346.149 197.572 343.534 200.231C340.881 202.928 338.417 205.433 338.944 206.32C339.989 208.079 343.674 204.249 343.674 204.249C343.674 204.249 355.203 193.757 357.714 196.492C360.027 199.011 356.459 201.154 350.96 204.456C350.479 204.745 349.998 205.034 349.519 205.324C343.227 209.133 342.738 210.137 343.63 211.577C343.96 212.11 346.066 210.846 348.656 209.291C353.072 206.64 358.894 203.145 359.717 206.274C360.429 208.981 356.145 210.64 352.259 212.145C349.024 213.399 346.063 214.545 346.498 216.101C346.949 217.715 349.394 216.369 352.068 214.898C355.069 213.246 358.359 211.436 359.434 213.479C361.469 217.342 345.399 221.882 345.269 221.915C340.077 223.266 326.894 226.119 322.287 219.366Z" fill-rule="evenodd"  fill="#FFD21E" ></path><path d="M324.904 165.892C325.557 166.123 326.042 166.825 326.504 167.494C327.128 168.397 327.708 169.239 328.6 168.765C329.652 168.205 330.514 167.347 331.077 166.298C331.641 165.248 331.881 164.056 331.768 162.87C331.683 161.984 331.401 161.127 330.946 160.362C330.489 159.597 329.869 158.943 329.13 158.447C328.391 157.95 327.55 157.624 326.67 157.492C325.789 157.359 324.89 157.424 324.037 157.681C323.185 157.937 322.4 158.38 321.739 158.976C321.078 159.573 320.557 160.309 320.214 161.131C319.872 161.952 319.716 162.84 319.757 163.73C319.799 164.619 320.037 165.488 320.455 166.275C320.868 167.052 321.785 166.685 322.753 166.298C323.511 165.994 324.301 165.679 324.904 165.892ZM296.531 165.892C295.878 166.123 295.392 166.826 294.931 167.494C294.307 168.398 293.725 169.239 292.834 168.765C291.512 168.064 290.498 166.896 289.989 165.489C289.481 164.082 289.515 162.535 290.085 161.152C290.655 159.768 291.719 158.646 293.071 158.004C294.423 157.363 295.965 157.248 297.398 157.682C298.538 158.025 299.551 158.699 300.309 159.618C301.066 160.537 301.534 161.659 301.654 162.844C301.773 164.029 301.539 165.223 300.98 166.275C300.566 167.052 299.649 166.685 298.682 166.298C297.923 165.994 297.134 165.679 296.531 165.892ZM320.514 191.711C325.011 188.168 326.663 182.384 326.663 178.821C326.663 176.004 324.768 176.89 321.735 178.393L321.564 178.477C318.779 179.856 315.072 181.692 311.003 181.692C306.933 181.692 303.226 179.856 300.442 178.476C297.31 176.925 295.346 175.952 295.346 178.821C295.346 182.497 297.103 188.533 301.927 192.039C302.564 190.748 303.46 189.601 304.56 188.671C305.66 187.741 306.94 187.048 308.319 186.635C308.801 186.491 309.297 187.32 309.805 188.169C310.294 188.987 310.795 189.825 311.305 189.825C311.847 189.825 312.38 189 312.901 188.194C313.445 187.352 313.976 186.532 314.489 186.696C317.071 187.525 319.231 189.323 320.514 191.711Z" fill-rule="evenodd"  fill="#32343D" ></path><path d="M320.516 191.712C318.173 193.558 315.06 194.796 311.006 194.796C307.197 194.796 304.218 193.703 301.929 192.04C302.566 190.748 303.462 189.601 304.562 188.672C305.662 187.742 306.942 187.049 308.322 186.636C309.267 186.354 310.27 189.826 311.307 189.826C312.417 189.826 313.487 186.376 314.491 186.697C317.073 187.527 319.232 189.324 320.516 191.712Z"   fill="#FF323D" ></path><path d="M285.778 170.903C285.243 171.26 284.628 171.481 283.988 171.544C283.347 171.607 282.7 171.511 282.106 171.264C281.63 171.068 281.199 170.78 280.835 170.416C280.471 170.053 280.183 169.621 279.987 169.145C279.74 168.55 279.645 167.904 279.708 167.264C279.771 166.623 279.992 166.008 280.35 165.473C280.78 164.829 281.391 164.327 282.106 164.03C282.822 163.734 283.609 163.657 284.369 163.808C285.128 163.959 285.826 164.332 286.373 164.879C286.92 165.427 287.293 166.125 287.444 166.885C287.595 167.644 287.517 168.431 287.221 169.146C286.924 169.862 286.422 170.472 285.778 170.903ZM341.786 170.903C341.251 171.26 340.636 171.481 339.995 171.544C339.354 171.607 338.708 171.511 338.113 171.264C337.638 171.068 337.206 170.78 336.842 170.416C336.479 170.053 336.191 169.621 335.994 169.145C335.749 168.55 335.653 167.904 335.716 167.264C335.779 166.623 336 166.008 336.357 165.473C336.679 164.991 337.103 164.587 337.599 164.289C338.096 163.992 338.652 163.808 339.229 163.752C339.805 163.695 340.386 163.767 340.931 163.962C341.476 164.157 341.971 164.471 342.38 164.881C342.928 165.428 343.301 166.125 343.451 166.885C343.603 167.644 343.525 168.431 343.228 169.146C342.932 169.862 342.43 170.472 341.786 170.903Z" fill-rule="evenodd"  fill="#FFAD03" ></path></g><defs><clipPath id="clip-path-PoIjPtMuplmbNp7WIv0jJ"><path d="M0 300L600 300L600 0L0 0L0 300Z" fill="white"/></clipPath></defs></svg>