<?xml version="1.0" encoding="UTF-8" standalone="no"?>
<svg
   width="600"
   height="300"
   viewBox="0 0 600 300"
   version="1.1"
   id="svg45"
   sodipodi:docname="Maps.svg"
   inkscape:version="1.4 (86a8ad7, 2024-10-11)"
   xmlns:inkscape="http://www.inkscape.org/namespaces/inkscape"
   xmlns:sodipodi="http://sodipodi.sourceforge.net/DTD/sodipodi-0.dtd"
   xmlns:xlink="http://www.w3.org/1999/xlink"
   xmlns="http://www.w3.org/2000/svg"
   xmlns:svg="http://www.w3.org/2000/svg">
  <defs
     id="defs45">
    <linearGradient
       id="linearGradient67"
       inkscape:collect="always">
      <stop
         style="stop-color:#e73ca0;stop-opacity:1;"
         offset="0"
         id="stop67" />
      <stop
         style="stop-color:#ff42b1;stop-opacity:1;"
         offset="1"
         id="stop68" />
    </linearGradient>
    <linearGradient
       inkscape:collect="always"
       xlink:href="#linearGradient67"
       id="linearGradient68"
       x1="0.00390625"
       y1="230.00781"
       x2="600.00391"
       y2="70.007812"
       gradientUnits="userSpaceOnUse" />
  </defs>
  <sodipodi:namedview
     id="namedview45"
     pagecolor="#ffffff"
     bordercolor="#000000"
     borderopacity="0.25"
     inkscape:showpageshadow="2"
     inkscape:pageopacity="0.0"
     inkscape:pagecheckerboard="0"
     inkscape:deskcolor="#d1d1d1"
     inkscape:zoom="1.005102"
     inkscape:cx="286.04061"
     inkscape:cy="270.12183"
     inkscape:current-layer="svg45" />
  <path
     style="fill:url(#linearGradient68);fill-opacity:1;fill-rule:nonzero;stroke:none"
     d="M 0.00390625,300.00781 V 0.0078125 H 600.00391 V 300.00781 Z m 0,0"
     id="path1" />
  <path
     d="m 277.32666,26.611291 c -11.46695,3.910686 -21.42846,12.242851 -27.17639,24.046481 -11.48686,23.60447 -1.73846,52.193518 21.77777,63.867508 39.91958,19.81411 31.37585,15.6115 48.5991,24.19226 L 71.927344,223.48596 c -21.791903,7.43069 -33.277005,31.18043 -25.751444,53.25058 7.525516,22.07004 31.127583,33.85566 52.919487,26.42497 L 413.60008,195.92061 c 3.5546,4.43075 6.56714,9.15101 8.21928,13.96022 1.30203,3.79216 1.90668,7.96775 2.03244,12.24842 -0.33687,0.10974 -0.67989,0.17091 -1.01753,0.28607 L 108.15024,329.71736 c -21.791892,7.43068 -33.277032,31.18031 -25.751474,53.25046 7.525516,22.07003 31.127574,33.85563 52.919474,26.42495 l 249.9571,-85.23122 c -8.89906,18.29415 -7.73336,15.89091 -23.77203,48.86959 -11.492,23.5919 -1.73801,52.19736 21.77777,63.86752 23.51176,11.68485 51.89102,2.008 63.38242,-21.61236 45.3393,-93.19442 104.64955,-215.14013 104.64955,-215.14013 11.48437,-23.59949 1.7347,-52.19224 -21.77776,-63.8675 0,0 -140.74687,-69.874928 -216.01658,-107.231345 -11.75627,-5.837689 -24.72605,-6.34937 -36.19316,-2.438672 z"
     style="display:inline;fill:#cb348c;fill-opacity:1;stroke-width:0;stroke-dasharray:none;-ms-transform:rotate(360deg);-webkit-transform:rotate(360deg)"
     id="path47"
     sodipodi:nodetypes="ccccssscscssssccccccccc" />
  <path
     d="m 95.578873,117.83974 c -1.845744,0.62947 -3.449171,1.97064 -4.37437,3.87057 -1.84895,3.79943 -0.279826,8.40118 3.505397,10.28026 6.42554,3.18931 5.050325,2.51286 7.82262,3.89403 l -40.015163,13.64451 c -3.507672,1.19606 -5.356339,5.01887 -4.145008,8.57133 1.211323,3.55244 5.010362,5.44948 8.518034,4.25342 l 50.623347,-17.26172 c 0.57217,0.71318 1.05707,1.47296 1.323,2.24706 0.20958,0.6104 0.3069,1.2825 0.32715,1.97153 -0.0542,0.0177 -0.10944,0.0275 -0.16379,0.0461 L 68.347872,166.6284 c -3.50767,1.19605 -5.356343,5.01885 -4.145013,8.5713 1.211323,3.55244 5.010362,5.44947 8.518033,4.25342 l 40.233638,-13.719 c -1.43242,2.94466 -1.24478,2.55784 -3.8264,7.86615 -1.84978,3.79741 -0.27975,8.40181 3.50539,10.28026 3.78451,1.88081 8.3525,0.32321 10.20218,-3.47878 7.29791,-15.00076 16.84461,-34.62941 16.84461,-34.62941 1.84855,-3.79862 0.27922,-8.40098 -3.50539,-10.28025 0,0 -22.65492,-11.24722 -34.7705,-17.26019 -1.892314,-0.93964 -3.979954,-1.022 -5.825725,-0.39253 z"
     style="display:inline;fill:#cb348c;fill-opacity:1;stroke-width:0;stroke-dasharray:none;-ms-transform:rotate(360deg);-webkit-transform:rotate(360deg)"
     id="path53"
     sodipodi:nodetypes="ccccssscscssssccccccccc" />
  <path
     d="m 55.578873,17.839738 c -1.845744,0.629472 -3.449171,1.970641 -4.37437,3.870572 -1.84895,3.799432 -0.279826,8.401183 3.505397,10.280256 6.425539,3.189319 5.050325,2.512861 7.822616,3.894036 l -40.015159,13.64451 c -3.507672,1.196058 -5.356339,5.018867 -4.145008,8.571329 1.211323,3.552441 5.010362,5.449476 8.518034,4.253417 L 77.513735,45.092136 c 0.572161,0.713181 1.057061,1.472961 1.322997,2.247064 0.209576,0.610397 0.306902,1.282503 0.327148,1.971529 -0.05422,0.01769 -0.109442,0.02751 -0.163785,0.04607 L 28.347872,66.628366 c -3.50767,1.196057 -5.356343,5.018857 -4.145013,8.571307 1.211323,3.55244 5.010362,5.44947 8.518033,4.25342 L 72.954528,65.734094 c -1.432417,2.944659 -1.244783,2.557839 -3.826397,7.866149 -1.84978,3.79741 -0.279755,8.40181 3.505391,10.28026 3.784508,1.88081 8.352497,0.32321 10.202176,-3.47878 7.297909,-15.000767 16.844614,-34.629411 16.844614,-34.629411 1.848548,-3.798624 0.27922,-8.400979 -3.505391,-10.280256 0,0 -22.654921,-11.247219 -34.770497,-17.260187 -1.892318,-0.939642 -3.979958,-1.022004 -5.825729,-0.392532 z"
     style="display:inline;fill:#cb348c;fill-opacity:1;stroke-width:0;stroke-dasharray:none;-ms-transform:rotate(360deg);-webkit-transform:rotate(360deg)"
     id="path48"
     sodipodi:nodetypes="ccccssscscssssccccccccc" />
  <path
     d="m -19.842447,103.90065 c -1.845744,0.62947 -3.449171,1.97064 -4.37437,3.87057 -1.84895,3.79943 -0.279826,8.40118 3.505397,10.28026 6.42554,3.18931 5.050325,2.51286 7.82262,3.89403 l -40.015163,13.64451 c -3.507672,1.19606 -5.356339,5.01887 -4.145008,8.57133 1.211323,3.55244 5.010362,5.44948 8.518034,4.25342 L 2.0924102,131.15305 c 0.57217,0.71318 1.05707,1.47296 1.323,2.24706 0.20958,0.6104 0.3069,1.2825 0.32715,1.97153 -0.0542,0.0177 -0.10944,0.0275 -0.16379,0.0461 l -50.6522182,17.27157 c -3.50767,1.19605 -5.356343,5.01885 -4.145013,8.5713 1.211323,3.55244 5.010362,5.44947 8.518033,4.25342 l 40.2336382,-13.719 c -1.43242,2.94466 -1.24478,2.55784 -3.8264,7.86615 -1.84978,3.79741 -0.27975,8.40181 3.50539,10.28026 3.78451,1.88081 8.3525,0.32321 10.2021799,-3.47878 C 14.71229,151.4619 24.25899,131.83325 24.25899,131.83325 c 1.84855,-3.79862 0.27922,-8.40098 -3.50539,-10.28025 0,0 -22.6549198,-11.24722 -34.7705,-17.26019 -1.892314,-0.93964 -3.979954,-1.022 -5.825725,-0.39253 z"
     style="display:inline;fill:#cb348c;fill-opacity:1;stroke-width:0;stroke-dasharray:none;-ms-transform:rotate(360deg);-webkit-transform:rotate(360deg)"
     id="path49"
     sodipodi:nodetypes="ccccssscscssssccccccccc" />
  <path
     d="m 169.57887,31.83974 c -1.84574,0.62947 -3.44917,1.97064 -4.37437,3.87057 -1.84895,3.79943 -0.27982,8.40118 3.5054,10.28026 6.42554,3.18931 5.05033,2.51286 7.82262,3.89403 l -40.01516,13.64451 c -3.50768,1.19606 -5.35634,5.01887 -4.14501,8.57133 1.21132,3.55244 5.01036,5.44948 8.51803,4.25342 l 50.62335,-17.26172 c 0.57217,0.71318 1.05707,1.47296 1.323,2.24706 0.20958,0.6104 0.3069,1.2825 0.32715,1.97153 -0.0542,0.0177 -0.10944,0.0275 -0.16379,0.0461 L 142.34787,80.6284 c -3.50767,1.19605 -5.35634,5.01885 -4.14501,8.5713 1.21132,3.55244 5.01036,5.44947 8.51803,4.25342 l 40.23364,-13.719 c -1.43242,2.94466 -1.24478,2.55784 -3.8264,7.86615 -1.84978,3.79741 -0.27975,8.40181 3.50539,10.28026 3.78451,1.88081 8.3525,0.32321 10.20218,-3.47878 7.29791,-15.00076 16.84461,-34.62941 16.84461,-34.62941 1.84855,-3.79862 0.27922,-8.40098 -3.50539,-10.28025 0,0 -22.65492,-11.24722 -34.7705,-17.26019 -1.89231,-0.93964 -3.97995,-1.022 -5.82573,-0.39253 z"
     style="display:inline;fill:#cb348c;fill-opacity:1;stroke-width:0;stroke-dasharray:none;-ms-transform:rotate(360deg);-webkit-transform:rotate(360deg)"
     id="path50"
     sodipodi:nodetypes="ccccssscscssssccccccccc" />
  <path
     d="m 517.57887,21.83974 c -1.84574,0.62947 -3.44917,1.97064 -4.37437,3.87057 -1.84895,3.79943 -0.27982,8.40118 3.5054,10.28026 6.42554,3.18931 5.05033,2.51286 7.82262,3.89403 l -40.01516,13.64451 c -3.50768,1.19606 -5.35634,5.01887 -4.14501,8.57133 1.21132,3.55244 5.01036,5.44948 8.51803,4.25342 l 50.62335,-17.26172 c 0.57217,0.71318 1.05707,1.47296 1.323,2.24706 0.20958,0.6104 0.3069,1.2825 0.32715,1.97153 -0.0542,0.0177 -0.10944,0.0275 -0.16379,0.0461 L 490.34787,70.6284 c -3.50767,1.19605 -5.35634,5.01885 -4.14501,8.5713 1.21132,3.55244 5.01036,5.44947 8.51803,4.25342 l 40.23364,-13.719 c -1.43242,2.94466 -1.24478,2.55784 -3.8264,7.86615 -1.84978,3.79741 -0.27975,8.40181 3.50539,10.28026 3.78451,1.88081 8.3525,0.32321 10.20218,-3.47878 7.29791,-15.00076 16.84461,-34.62941 16.84461,-34.62941 1.84855,-3.79862 0.27922,-8.40098 -3.50539,-10.28025 0,0 -22.65492,-11.24722 -34.7705,-17.26019 -1.89231,-0.93964 -3.97995,-1.022 -5.82573,-0.39253 z"
     style="display:inline;fill:#cb348c;fill-opacity:1;stroke-width:0;stroke-dasharray:none;-ms-transform:rotate(360deg);-webkit-transform:rotate(360deg)"
     id="path51"
     sodipodi:nodetypes="ccccssscscssssccccccccc" />
  <path
     d="m 573.29461,260.62147 c -1.84574,0.62947 -3.44917,1.97064 -4.37437,3.87057 -1.84895,3.79943 -0.27982,8.40118 3.5054,10.28026 6.42554,3.18931 5.05033,2.51286 7.82262,3.89403 l -40.01516,13.64451 c -3.50768,1.19606 -5.35634,5.01887 -4.14501,8.57133 1.21132,3.55244 5.01036,5.44948 8.51803,4.25342 l 50.62335,-17.26172 c 0.57217,0.71318 1.05707,1.47296 1.323,2.24706 0.20958,0.6104 0.3069,1.2825 0.32715,1.97153 -0.0542,0.0177 -0.10944,0.0275 -0.16379,0.0461 l -50.65222,17.27157 c -3.50767,1.19605 -5.35634,5.01885 -4.14501,8.5713 1.21132,3.55244 5.01036,5.44947 8.51803,4.25342 l 40.23364,-13.719 c -1.43242,2.94466 -1.24478,2.55784 -3.8264,7.86615 -1.84978,3.79741 -0.27975,8.40181 3.50539,10.28026 3.78451,1.88081 8.3525,0.32321 10.20218,-3.47878 7.29791,-15.00076 16.84461,-34.62941 16.84461,-34.62941 1.84855,-3.79862 0.27922,-8.40098 -3.50539,-10.28025 0,0 -22.65492,-11.24722 -34.7705,-17.26019 -1.89231,-0.93964 -3.97995,-1.022 -5.82573,-0.39253 z"
     style="display:inline;fill:#cb348c;fill-opacity:1;stroke-width:0;stroke-dasharray:none;-ms-transform:rotate(360deg);-webkit-transform:rotate(360deg)"
     id="path52"
     sodipodi:nodetypes="ccccssscscssssccccccccc" />
  <path
     d="m 362.10584,43.522798 v 22.857495 h 4.75095 c 11.87997,0 15.44436,7.221468 15.44436,19.252537 0,3.609113 -1.18848,9.625357 -1.18848,14.43787 0,4.81185 -1.18848,10.82706 -1.18848,18.04587 0,20.453 8.31689,27.67062 22.5723,31.28011 -14.25541,3.60906 -22.5723,10.8301 -22.5723,31.2831 0,7.21918 1.18848,13.23335 1.18848,18.04584 0,6.01599 1.18848,10.82896 1.18848,15.64157 0,12.03145 -3.56501,19.24953 -15.44436,19.24953 h -4.75095 v 22.86048 h 9.50192 c 24.94728,0 40.39066,-10.82896 40.39066,-36.09472 0,-6.01546 -1.1855,-13.23496 -1.1855,-20.45318 0,-7.21835 -1.18848,-13.23445 -1.18848,-20.4532 0,-8.42242 2.37636,-18.04584 20.19533,-18.04584 l -1.1885,-22.86051 c -17.81917,0 -20.19533,-10.83 -20.19533,-18.04889 0,-6.01548 5.7e-4,-13.23191 1.1885,-20.45016 1.18793,-7.218225 1.1855,-13.234342 1.1855,-20.453176 0,-26.468964 -15.44251,-36.094726 -39.20218,-36.094726 z m -133.98029,2.407333 c -23.7597,0 -40.39066,9.625281 -40.39066,36.094726 0,6.015509 -0.002,13.234343 1.1855,20.453173 0,7.21823 1.18848,13.23138 1.18848,20.45017 0,7.21832 -2.37628,18.04888 -20.19533,18.04888 v 20.45318 c 17.81917,0 20.19533,9.6269 20.19533,18.04888 0,6.01546 -5.5e-4,13.23127 -1.18848,20.45016 0,7.21822 -1.1855,13.23439 -1.1855,20.45318 0,25.26576 15.44341,36.09472 40.39066,36.09472 h 9.50194 v -22.85749 h -4.75097 c -10.69209,-1.20264 -15.44436,-7.2215 -15.44436,-19.25252 0,-4.81279 5.2e-4,-9.62588 1.18848,-15.64157 0,-4.81279 1.18848,-10.82698 1.18848,-18.04584 0,-20.453 -8.31686,-27.67069 -22.5723,-31.28009 14.25544,-3.60916 22.5723,-10.83012 22.5723,-31.28312 0,-6.01548 -1.18848,-12.03013 -1.18848,-18.04587 -1.18796,-4.81231 -1.18848,-9.625356 -1.18848,-14.43787 0,-12.031448 3.56499,-19.249522 15.44436,-19.249522 h 4.75097 V 45.930131 Z m 80.80517,56.013939 c -2.66756,1.3e-4 -5.33557,1.02866 -7.37218,3.08004 -4.07113,4.10282 -4.07113,10.75337 0,14.85723 6.91109,6.96584 5.42925,5.48292 8.40876,8.49499 h -57.83074 c -5.06936,0 -9.15045,4.13322 -9.15045,9.26731 0,5.13406 4.08109,9.26728 9.15045,9.26728 h 73.16192 c 0.42592,1.17594 0.7183,2.37369 0.72086,3.49331 0.002,0.88279 -0.16884,1.79593 -0.44682,2.69694 -0.078,-0.001 -0.15383,-0.0127 -0.23237,-0.0127 h -73.20364 c -5.06936,0 -9.15045,4.13319 -9.15045,9.26728 0,5.13406 4.08109,9.26728 9.15045,9.26728 h 58.14648 c -3.1545,3.18006 -2.7408,2.76207 -8.42664,8.49499 -4.07131,4.09983 -4.07131,10.7542 0,14.85723 4.06943,4.10581 10.67118,4.10581 14.74439,0 16.07087,-16.19953 37.09627,-37.39794 37.09627,-37.39794 4.07026,-4.10196 4.07026,-10.75337 0,-14.85723 0,0 -24.36577,-24.56304 -37.39713,-37.69658 -2.03513,-2.05194 -4.70162,-3.0802 -7.36921,-3.08007 z"
     style="display:inline;fill:none;fill-opacity:0.14902;stroke:#000000;stroke-width:12.5;stroke-dasharray:none;stroke-opacity:0.14902;-ms-transform:rotate(360deg);-webkit-transform:rotate(360deg)"
     id="path14" />
  <path
     d="m 362.10584,43.522798 v 22.857495 h 4.75095 c 11.87997,0 15.44436,7.221468 15.44436,19.252537 0,3.609113 -1.18848,9.625357 -1.18848,14.43787 0,4.81185 -1.18848,10.82706 -1.18848,18.04587 0,20.453 8.31689,27.67062 22.5723,31.28011 -14.25541,3.60906 -22.5723,10.8301 -22.5723,31.2831 0,7.21918 1.18848,13.23335 1.18848,18.04584 0,6.01599 1.18848,10.82896 1.18848,15.64157 0,12.03145 -3.56501,19.24953 -15.44436,19.24953 h -4.75095 v 22.86048 h 9.50192 c 24.94728,0 40.39066,-10.82896 40.39066,-36.09472 0,-6.01546 -1.1855,-13.23496 -1.1855,-20.45318 0,-7.21835 -1.18848,-13.23445 -1.18848,-20.4532 0,-8.42242 2.37636,-18.04584 20.19533,-18.04584 l -1.1885,-22.86051 c -17.81917,0 -20.19533,-10.83 -20.19533,-18.04889 0,-6.01548 5.7e-4,-13.23191 1.1885,-20.45016 1.18793,-7.218225 1.1855,-13.234342 1.1855,-20.453176 0,-26.468964 -15.44251,-36.094726 -39.20218,-36.094726 z m -133.98029,2.407333 c -23.7597,0 -40.39066,9.625281 -40.39066,36.094726 0,6.015509 -0.002,13.234343 1.1855,20.453173 0,7.21823 1.18848,13.23138 1.18848,20.45017 0,7.21832 -2.37628,18.04888 -20.19533,18.04888 v 20.45318 c 17.81917,0 20.19533,9.6269 20.19533,18.04888 0,6.01546 -5.5e-4,13.23127 -1.18848,20.45016 0,7.21822 -1.1855,13.23439 -1.1855,20.45318 0,25.26576 15.44341,36.09472 40.39066,36.09472 h 9.50194 v -22.85749 h -4.75097 c -10.69209,-1.20264 -15.44436,-7.2215 -15.44436,-19.25252 0,-4.81279 5.2e-4,-9.62588 1.18848,-15.64157 0,-4.81279 1.18848,-10.82698 1.18848,-18.04584 0,-20.453 -8.31686,-27.67069 -22.5723,-31.28009 14.25544,-3.60916 22.5723,-10.83012 22.5723,-31.28312 0,-6.01548 -1.18848,-12.03013 -1.18848,-18.04587 -1.18796,-4.81231 -1.18848,-9.625356 -1.18848,-14.43787 0,-12.031448 3.56499,-19.249522 15.44436,-19.249522 h 4.75097 V 45.930131 Z m 80.80517,56.013939 c -2.66756,1.3e-4 -5.33557,1.02866 -7.37218,3.08004 -4.07113,4.10282 -4.07113,10.75337 0,14.85723 6.91109,6.96584 5.42925,5.48292 8.40876,8.49499 h -57.83074 c -5.06936,0 -9.15045,4.13322 -9.15045,9.26731 0,5.13406 4.08109,9.26728 9.15045,9.26728 h 73.16192 c 0.42592,1.17594 0.7183,2.37369 0.72086,3.49331 0.002,0.88279 -0.16884,1.79593 -0.44682,2.69694 -0.078,-0.001 -0.15383,-0.0127 -0.23237,-0.0127 h -73.20364 c -5.06936,0 -9.15045,4.13319 -9.15045,9.26728 0,5.13406 4.08109,9.26728 9.15045,9.26728 h 58.14648 c -3.1545,3.18006 -2.7408,2.76207 -8.42664,8.49499 -4.07131,4.09983 -4.07131,10.7542 0,14.85723 4.06943,4.10581 10.67118,4.10581 14.74439,0 16.07087,-16.19953 37.09627,-37.39794 37.09627,-37.39794 4.07026,-4.10196 4.07026,-10.75337 0,-14.85723 0,0 -24.36577,-24.56304 -37.39713,-37.69658 -2.03513,-2.05194 -4.70162,-3.0802 -7.36921,-3.08007 z"
     style="display:inline;fill:#ffffff;stroke-width:0.999995;-ms-transform:rotate(360deg);-webkit-transform:rotate(360deg)"
     id="path11" />
  <g
     data-paper-data="{&quot;index&quot;:null}"
     fill="#ffffff"
     fill-rule="evenodd"
     stroke-linecap="butt"
     id="g37"
     style="mix-blend-mode:normal"
     transform="translate(98.00221,-30.02114)">
    <path
       d="m 345.37445,100.03702 c -4.42376,-2.82602 -2.26549,-9.68549 2.97975,-9.47029 l 11.09297,0.46797 c 4.87568,0.20863 9.49313,-2.19644 12.11687,-6.31126 l 5.96754,-9.36048 c 2.82727,-4.42442 9.68579,-2.26644 9.46361,2.97765 l -0.4613,11.09507 c -0.20473,4.87335 2.20082,9.48704 6.31367,12.10924 l 9.36048,5.96754 c 4.42471,2.82632 2.26644,9.68579 -2.97975,9.47029 l -11.09202,-0.46767 c -4.87612,-0.20501 -9.49202,2.20382 -12.11259,6.32099 l -5.97422,9.35838 c -2.81869,4.42712 -9.67816,2.26884 -9.46265,-2.97735 l 0.46767,-11.09202 c 0.20881,-4.87794 -2.19927,-9.49707 -6.31794,-12.11897 z"
       stroke-opacity="0.129"
       stroke="#000000"
       stroke-width="10"
       id="path36" />
    <path
       d="m 345.37445,100.03702 c -4.42376,-2.82602 -2.26549,-9.68549 2.97975,-9.47029 l 11.09297,0.46797 c 4.87568,0.20863 9.49313,-2.19644 12.11687,-6.31126 l 5.96754,-9.36048 c 2.82727,-4.42442 9.68579,-2.26644 9.46361,2.97765 l -0.4613,11.09507 c -0.20473,4.87335 2.20082,9.48704 6.31367,12.10924 l 9.36048,5.96754 c 4.42471,2.82632 2.26644,9.68579 -2.97975,9.47029 l -11.09202,-0.46767 c -4.87612,-0.20501 -9.49202,2.20382 -12.11259,6.32099 l -5.97422,9.35838 c -2.81869,4.42712 -9.67816,2.26884 -9.46265,-2.97735 l 0.46767,-11.09202 c 0.20881,-4.87794 -2.19927,-9.49707 -6.31794,-12.11897 z"
       stroke="none"
       stroke-width="1"
       id="path37" />
  </g>
  <g
     data-paper-data="{&quot;index&quot;:null}"
     fill="#ffffff"
     fill-rule="evenodd"
     stroke-linecap="butt"
     id="g39"
     style="mix-blend-mode:normal"
     transform="translate(18.002207,-30.02114)">
    <path
       d="m 142.14964,268.509 c 2.537,0.686 2.537,4.285 0,4.97 l -5.365,1.442 c -2.35913,0.63263 -4.20241,2.47439 -4.837,4.833 l -1.443,5.366 c -0.684,2.536 -4.284,2.536 -4.964,0 l -1.447,-5.366 c -0.63405,-2.35748 -2.47552,-4.19895 -4.833,-4.833 l -5.365,-1.442 c -2.537,-0.685 -2.537,-4.284 0,-4.969 l 5.365,-1.443 c 2.35835,-0.63441 4.20006,-2.47726 4.833,-4.836 l 1.447,-5.366 c 0.681,-2.537 4.279,-2.537 4.964,0 l 1.443,5.366 c 0.63298,2.36036 2.47664,4.20402 4.837,4.837 z"
       stroke-opacity="0.129"
       stroke="#000000"
       stroke-width="10"
       id="path38" />
    <path
       d="m 142.14964,268.509 c 2.537,0.686 2.537,4.285 0,4.97 l -5.365,1.442 c -2.35913,0.63263 -4.20241,2.47439 -4.837,4.833 l -1.443,5.366 c -0.684,2.536 -4.284,2.536 -4.964,0 l -1.447,-5.366 c -0.63405,-2.35748 -2.47552,-4.19895 -4.833,-4.833 l -5.365,-1.442 c -2.537,-0.685 -2.537,-4.284 0,-4.969 l 5.365,-1.443 c 2.35835,-0.63441 4.20006,-2.47726 4.833,-4.836 l 1.447,-5.366 c 0.681,-2.537 4.279,-2.537 4.964,0 l 1.443,5.366 c 0.63298,2.36036 2.47664,4.20402 4.837,4.837 z"
       stroke="none"
       stroke-width="1"
       id="path39" />
  </g>
  <g
     data-paper-data="{&quot;index&quot;:null}"
     fill="#ffffff"
     fill-rule="evenodd"
     stroke-linecap="butt"
     id="g41"
     style="mix-blend-mode:normal"
     transform="translate(18.002207,-30.02114)">
    <path
       d="m 96.65597,254.18905 c 1.97172,-0.0482 2.74023,2.54108 1.06128,3.57564 l -3.55189,2.18306 c -1.56217,0.9589 -2.49503,2.67755 -2.44793,4.50995 l 0.10769,4.16866 c 0.04943,1.97057 -2.54057,2.7393 -3.57132,1.06 l -2.18687,-3.55155 c -0.95957,-1.56068 -2.67763,-2.49229 -4.50909,-2.44504 l -4.16773,0.10818 c -1.9715,0.0489 -2.74002,-2.54035 -1.06106,-3.57491 l 3.55168,-2.18378 c 1.56123,-0.96001 2.49272,-2.67911 2.44441,-4.51125 l -0.1048,-4.16952 c -0.0518,-1.97064 2.53675,-2.73895 3.57131,-1.06 l 2.18399,3.5524 c 0.95942,1.56298 2.67952,2.4957 4.51283,2.44707 z"
       stroke-opacity="0.129"
       stroke="#000000"
       stroke-width="10"
       id="path40" />
    <path
       d="m 96.65597,254.18905 c 1.97172,-0.0482 2.74023,2.54108 1.06128,3.57564 l -3.55189,2.18306 c -1.56217,0.9589 -2.49503,2.67755 -2.44793,4.50995 l 0.10769,4.16866 c 0.04943,1.97057 -2.54057,2.7393 -3.57132,1.06 l -2.18687,-3.55155 c -0.95957,-1.56068 -2.67763,-2.49229 -4.50909,-2.44504 l -4.16773,0.10818 c -1.9715,0.0489 -2.74002,-2.54035 -1.06106,-3.57491 l 3.55168,-2.18378 c 1.56123,-0.96001 2.49272,-2.67911 2.44441,-4.51125 l -0.1048,-4.16952 c -0.0518,-1.97064 2.53675,-2.73895 3.57131,-1.06 l 2.18399,3.5524 c 0.95942,1.56298 2.67952,2.4957 4.51283,2.44707 z"
       stroke="none"
       stroke-width="1"
       id="path41" />
  </g>
</svg>
