<?xml version="1.0" encoding="UTF-8" standalone="no"?>
<svg
   width="600"
   height="300"
   viewBox="0 0 600 300"
   version="1.1"
   id="svg45"
   xmlns="http://www.w3.org/2000/svg"
   xmlns:svg="http://www.w3.org/2000/svg">
  <defs
     id="defs45" />
  <g
     id="g6">
    <path
       style="fill:#3f46a3;fill-opacity:1;fill-rule:nonzero;stroke:none"
       d="M 0,300 V 0 h 600 v 300 z m 0,0"
       id="path1" />
    <path
       style="fill:#4850b9;fill-opacity:1;fill-rule:nonzero;stroke:none"
       d="M 0,300 V 166 L 59.5,119.5 69,73 173.75,59.75 198.5,86.5 218,0 h 382 v 300 z"
       id="path4" />
    <path
       style="fill:#5058ce;fill-opacity:1;fill-rule:nonzero;stroke:none"
       d="m 60,300 19.5,-100.5 79,7 54.875,-71.625 74.875,8.375 L 323.125,31.625 418,0 h 182 v 300 z"
       id="path6" />
    <path
       style="fill:#4850b9;fill-opacity:1;fill-rule:nonzero;stroke:none"
       d="M 180,300 232.25,242.5 324.5,245 336.75,187.5 429,150 421.25,92.5 493.5,55 545.75,97.5 558,0 h 42 v 300 z"
       id="path7" />
    <path
       style="fill:#3f46a3;fill-opacity:1;fill-rule:nonzero;stroke:none"
       d="M 400,300 392.25,262.5 434.5,265 475.625,206.25 516.75,247.5 549,170 h 51 v 130 z"
       id="path8" />
  </g>
  <g
     id="g5">
    <path
       d="m 345.37445,100.03702 c -4.42376,-2.82602 -2.26549,-9.68549 2.97975,-9.47029 l 11.09297,0.46797 c 4.87568,0.20863 9.49313,-2.19644 12.11687,-6.31126 l 5.96754,-9.36048 c 2.82727,-4.42442 9.68579,-2.26644 9.46361,2.97765 l -0.4613,11.09507 c -0.20473,4.87335 2.20082,9.48704 6.31367,12.10924 l 9.36048,5.96754 c 4.42471,2.82632 2.26644,9.68579 -2.97975,9.47029 l -11.09202,-0.46767 c -4.87612,-0.20501 -9.49202,2.20382 -12.11259,6.32099 l -5.97422,9.35838 c -2.81869,4.42712 -9.67816,2.26884 -9.46265,-2.97735 l 0.46767,-11.09202 c 0.20881,-4.87794 -2.19927,-9.49707 -6.31794,-12.11897 z"
       stroke-opacity="0.129"
       stroke="#000000"
       stroke-width="10"
       id="path36"
       style="mix-blend-mode:normal;fill:#ffffff;fill-opacity:1;paint-order:stroke fill markers"
       transform="translate(98.00221,-30.02114)" />
    <path
       d="m 142.14964,268.509 c 2.537,0.686 2.537,4.285 0,4.97 l -5.365,1.442 c -2.35913,0.63263 -4.20241,2.47439 -4.837,4.833 l -1.443,5.366 c -0.684,2.536 -4.284,2.536 -4.964,0 l -1.447,-5.366 c -0.63405,-2.35748 -2.47552,-4.19895 -4.833,-4.833 l -5.365,-1.442 c -2.537,-0.685 -2.537,-4.284 0,-4.969 l 5.365,-1.443 c 2.35835,-0.63441 4.20006,-2.47726 4.833,-4.836 l 1.447,-5.366 c 0.681,-2.537 4.279,-2.537 4.964,0 l 1.443,5.366 c 0.63298,2.36036 2.47664,4.20402 4.837,4.837 z"
       stroke-opacity="0.129"
       stroke="#000000"
       stroke-width="10"
       id="path38"
       style="mix-blend-mode:normal;fill:#ffffff;fill-opacity:1;paint-order:stroke fill markers"
       transform="translate(18.002207,-30.02114)" />
    <path
       d="m 96.65597,254.18905 c 1.97172,-0.0482 2.74023,2.54108 1.06128,3.57564 l -3.55189,2.18306 c -1.56217,0.9589 -2.49503,2.67755 -2.44793,4.50995 l 0.10769,4.16866 c 0.04943,1.97057 -2.54057,2.7393 -3.57132,1.06 l -2.18687,-3.55155 c -0.95957,-1.56068 -2.67763,-2.49229 -4.50909,-2.44504 l -4.16773,0.10818 c -1.9715,0.0489 -2.74002,-2.54035 -1.06106,-3.57491 l 3.55168,-2.18378 c 1.56123,-0.96001 2.49272,-2.67911 2.44441,-4.51125 l -0.1048,-4.16952 c -0.0518,-1.97064 2.53675,-2.73895 3.57131,-1.06 l 2.18399,3.5524 c 0.95942,1.56298 2.67952,2.4957 4.51283,2.44707 z"
       stroke-opacity="0.129"
       stroke="#000000"
       stroke-width="10"
       id="path40"
       style="mix-blend-mode:normal;fill:#ffffff;fill-opacity:1;paint-order:stroke fill markers"
       transform="translate(18.002207,-30.02114)" />
  </g>
  <g
     id="g4">
    <path
       d="m 293.40758,46.288961 c -5.74201,-0.502368 -10.76908,3.715839 -11.27142,9.457855 l -1.03829,11.867725 c -26.45045,6.070053 -48.37847,24.469854 -58.94938,49.464389 l -11.86773,-1.03829 c -5.742,-0.50237 -10.76907,3.71584 -11.27142,9.45786 l -2.72038,31.09391 c -0.50237,5.74203 3.71585,10.76908 9.45785,11.27145 l 11.86774,1.03829 c 6.07005,26.45042 24.46985,48.37845 49.46438,58.94938 l -1.03829,11.8677 c -0.50235,5.74202 3.71585,10.76908 9.45787,11.27143 l 31.09392,2.72038 c 5.74202,0.50234 10.76907,-3.71585 11.27144,-9.45786 l 1.03829,-11.86772 c 26.45041,-6.07007 48.37845,-24.46987 58.94937,-49.4644 l 11.86771,1.03829 c 5.74201,0.50237 10.76908,-3.71585 11.27143,-9.45786 l 2.72038,-31.09392 c 0.50234,-5.74201 -3.71585,-10.76908 -9.45787,-11.27143 l -11.88036,-1.03941 C 376.30118,104.65397 357.90669,82.732265 332.91996,72.161129 l 1.03939,-11.880373 c 0.50237,-5.742005 -3.71584,-10.769077 -9.45783,-11.271425 z m 11.69311,45.409921 c 32.19882,2.817037 56.01748,31.202988 53.20043,63.401808 -2.81702,32.1988 -31.20298,56.01746 -63.4018,53.20043 -32.19882,-2.81703 -56.01748,-31.203 -53.20044,-63.4018 2.81705,-32.19883 31.20299,-56.017465 63.40181,-53.200438 z m -2.26698,25.911608 c -17.88823,-1.56502 -33.65821,11.66755 -35.22321,29.55579 -1.56502,17.88824 11.66756,33.65821 29.55578,35.22323 17.88826,1.56502 33.65822,-11.66757 35.22323,-29.5558 1.56504,-17.88824 -11.66756,-33.65821 -29.5558,-35.22322 z"
       style="fill:#ffffff;stroke:#000000;stroke-width:12.5;stroke-linecap:round;stroke-dasharray:none;stroke-opacity:0.14902;paint-order:stroke fill markers"
       id="path10" />
    <path
       d="m 447.10929,181.04079 c -1.86199,1.56237 -2.10317,4.31917 -0.54079,6.18115 l 3.22918,3.84837 c -6.0771,9.69708 -7.12917,21.72217 -2.82828,32.32723 l -3.84836,3.22916 c -1.86195,1.56236 -2.10317,4.31916 -0.54077,6.18115 l 8.46053,10.08287 c 1.56238,1.862 4.31917,2.10317 6.18112,0.5408 l 3.84839,-3.22918 c 9.69708,6.07709 21.72217,7.12916 32.32724,2.82828 l 3.22914,3.84836 c 1.5624,1.86197 4.31918,2.10315 6.18117,0.54076 l 10.08286,-8.46053 c 1.862,-1.56239 2.10317,-4.31917 0.5408,-6.18114 l -3.22917,-3.84838 c 6.07709,-9.69707 7.12915,-21.72217 2.82827,-32.32723 l 3.84836,-3.22915 c 1.86195,-1.56239 2.10315,-4.31917 0.54077,-6.18116 l -8.46055,-10.08287 c -1.56236,-1.86197 -4.31916,-2.10317 -6.18112,-0.54078 l -3.85247,3.23261 c -9.69527,-6.07435 -21.71692,-7.12609 -32.31969,-2.82762 l -3.23261,-3.85246 c -1.56238,-1.86195 -4.31917,-2.10316 -6.18115,-0.54077 z m 17.02721,10.05381 c 10.44118,-8.76117 26.00775,-7.39929 34.76892,3.0419 8.76117,10.44116 7.39926,26.00774 -3.0419,34.7689 -10.44117,8.76119 -26.00775,7.39928 -34.76892,-3.04188 -8.76117,-10.44119 -7.39926,-26.00775 3.0419,-34.76892 z m 7.05046,8.40241 c -5.80067,4.86732 -6.5573,13.51542 -1.68997,19.31606 4.86733,5.80064 13.51544,6.55726 19.31608,1.68994 5.80065,-4.86733 6.55726,-13.51542 1.68995,-19.31605 -4.86732,-5.80066 -13.51542,-6.55728 -19.31606,-1.68995 z"
       style="fill:#ffffff;stroke:#000000;stroke-width:12.5;stroke-linecap:round;stroke-dasharray:none;stroke-opacity:0.14902;paint-order:stroke fill markers"
       id="path2" />
    <path
       d="m 102.42959,49.853824 c -2.34782,0.629089 -3.731476,3.02566 -3.102376,5.373479 l 1.300226,4.85251 C 91.021537,66.30006 84.986021,76.753888 84.402067,88.182961 l -4.852508,1.300228 c -2.347799,0.629083 -3.731468,3.025658 -3.102363,5.373462 l 3.406633,12.713769 c 0.62909,2.34783 3.025666,3.73148 5.373467,3.1024 l 4.852518,-1.30023 c 6.220252,9.60587 16.674076,15.64139 28.103146,16.22536 l 1.30022,4.85249 c 0.62909,2.34782 3.02567,3.73147 5.37348,3.10237 l 12.71376,-3.40663 c 2.34783,-0.6291 3.73148,-3.02566 3.10239,-5.37347 l -1.30022,-4.85252 c 9.60587,-6.22024 15.64139,-16.67407 16.22536,-28.103139 l 4.8525,-1.300236 c 2.3478,-0.629088 3.73146,-3.025658 3.10238,-5.373468 l -3.40666,-12.71377 c -0.62909,-2.347796 -3.02565,-3.731472 -5.37346,-3.102374 l -4.85768,1.301601 c -6.21977,-9.602615 -16.6706,-15.636401 -28.09659,-16.22157 l -1.30162,-4.857673 c -0.62909,-2.34781 -3.02566,-3.731479 -5.37346,-3.102376 z m 11.18296,16.307858 c 13.16555,-3.527687 26.69809,4.285312 30.22578,17.45087 3.5277,13.165543 -4.28533,26.698078 -17.45086,30.225778 -13.16556,3.5277 -26.698094,-4.28534 -30.225795,-17.45086 -3.527681,-13.165561 4.285345,-26.698093 17.450875,-30.225788 z m 2.83886,10.594817 c -7.31419,1.959823 -11.65477,9.4779 -9.69491,16.792095 1.95983,7.314186 9.47791,11.654756 16.79209,9.694936 7.3142,-1.95985 11.65476,-9.477925 9.69493,-16.792111 -1.95982,-7.31419 -9.47792,-11.654763 -16.79211,-9.69492 z"
       style="fill:#ffffff;stroke:#000000;stroke-width:12.5;stroke-linecap:round;stroke-dasharray:none;stroke-opacity:0.14902;paint-order:stroke fill markers"
       id="path3" />
  </g>
</svg>
