<svg
   width="600"
   height="300"
   viewBox="0 0 600 300"
   version="1.1"
   id="svg45"
   xmlns="http://www.w3.org/2000/svg"
   xmlns:svg="http://www.w3.org/2000/svg">
  <defs
     id="defs45" />
  <path
     d="M 1.5e-5,300 V 0 H 599.99999 v 300 z"
     fill="#8863dd"
     fill-rule="nonzero"
     stroke="none"
     stroke-width="0"
     stroke-linecap="butt"
     stroke-linejoin="miter"
     id="path1-4"
     style="display:inline;fill:#f7df1e;fill-opacity:1;stroke-miterlimit:10" />
  <g
     fill="none"
     fill-rule="nonzero"
     stroke-opacity="0.6549"
     stroke="#633eb8"
     stroke-width="3.9596"
     stroke-linecap="butt"
     stroke-linejoin="miter"
     id="g18"
     transform="matrix(1.0096125,0.0338797,-0.03387815,1.0096587,0.69835918,-55.641175)"
     style="display:inline;stroke:#ffffff;stroke-width:9.89899;stroke-miterlimit:10;stroke-dasharray:none;stroke-opacity:0.3">
    <path
       d="m 13.5,31 c 0,-2.20914 1.79086,-4 4,-4 h 8 c 2,0 3,1 4,2 l 4,4 c 1,1 2,2 4,2 h 12 c 2,0 3,-1 4,-2 l 4,-4 c 1,-1 2,-2 4,-2 h 76.72223 c 2.20914,0 4,1.79086 4,4 v 40 c 0,2.20914 -1.79086,4 -4,4 H 61.5 c -2,0 -3,1 -4,2 l -4,4 c -1,1 -2,2 -4,2 h -12 c -2,0 -3,-1 -4,-2 l -4,-4 c -1,-1 -2,-2 -4,-2 h -8 c -2.20914,0 -4,-1.79086 -4,-4 z"
       id="path14"
       style="stroke:#ffffff;stroke-width:9.89899;stroke-miterlimit:10;stroke-dasharray:none;stroke-opacity:0.3" />
    <path
       d="m 13.5,101 c 0,-2.20914 1.79086,-4 4,-4 h 8 c 2,0 3,1 4,2 l 4,4 c 1,1 2,2 4,2 h 12 c 2,0 3,-1 4,-2 l 4,-4 c 1,-1 2,-2 4,-2 h 76.72223 c 2.20914,0 4,1.79086 4,4 v 40 c 0,2.20914 -1.79086,4 -4,4 H 61.5 c -2,0 -3,1 -4,2 l -4,4 c -1,1 -2,2 -4,2 h -12 c -2,0 -3,-1 -4,-2 l -4,-4 c -1,-1 -2,-2 -4,-2 h -8 c -2.20914,0 -4,-1.79086 -4,-4 z"
       id="path44"
       style="stroke:#ffffff;stroke-width:9.89899;stroke-miterlimit:10;stroke-dasharray:none;stroke-opacity:0.3" />
    <path
       d="m 13.5,171 c 0,-2.20914 1.79086,-4 4,-4 h 8 c 2,0 3,1 4,2 l 4,4 c 1,1 2,2 4,2 h 12 c 2,0 3,-1 4,-2 l 4,-4 c 1,-1 2,-2 4,-2 h 76.72223 c 2.20914,0 4,1.79086 4,4 v 40 c 0,2.20914 -1.79086,4 -4,4 H 61.5 c -2,0 -3,1 -4,2 l -4,4 c -1,1 -2,2 -4,2 h -12 c -2,0 -3,-1 -4,-2 l -4,-4 c -1,-1 -2,-2 -4,-2 h -8 c -2.20914,0 -4,-1.79086 -4,-4 z"
       id="path45"
       style="stroke:#ffffff;stroke-width:9.89899;stroke-miterlimit:10;stroke-dasharray:none;stroke-opacity:0.3" />
    <path
       d="m 13.5,241 c 0,-2.20914 1.79086,-4 4,-4 h 8 c 2,0 3,1 4,2 l 4,4 c 1,1 2,2 4,2 h 12 c 2,0 3,-1 4,-2 l 4,-4 c 1,-1 2,-2 4,-2 h 76.72223 c 2.20914,0 4,1.79086 4,4 v 40 c 0,2.20914 -1.79086,4 -4,4 H 61.5 c -2,0 -3,1 -4,2 l -4,4 c -1,1 -2,2 -4,2 h -12 c -2,0 -3,-1 -4,-2 l -4,-4 c -1,-1 -2,-2 -4,-2 h -8 c -2.20914,0 -4,-1.79086 -4,-4 z"
       id="path46"
       style="stroke:#ffffff;stroke-width:9.89899;stroke-miterlimit:10;stroke-dasharray:none;stroke-opacity:0.3" />
    <path
       d="m 13.5,311 c 0,-2.20914 1.79086,-4 4,-4 h 8 c 2,0 3,1 4,2 l 4,4 c 1,1 2,2 4,2 h 12 c 2,0 3,-1 4,-2 l 4,-4 c 1,-1 2,-2 4,-2 h 76.72223 c 2.20914,0 4,1.79086 4,4 v 40 c 0,2.20914 -1.79086,4 -4,4 H 61.5 c -2,0 -3,1 -4,2 l -4,4 c -1,1 -2,2 -4,2 h -12 c -2,0 -3,-1 -4,-2 l -4,-4 c -1,-1 -2,-2 -4,-2 h -8 c -2.20914,0 -4,-1.79086 -4,-4 z"
       id="path47"
       style="stroke:#ffffff;stroke-width:9.89899;stroke-miterlimit:10;stroke-dasharray:none;stroke-opacity:0.3" />
    <path
       d="m 163.5,31 c 0,-2.20914 1.79086,-4 4,-4 h 8 c 2,0 3,1 4,2 l 4,4 c 1,1 2,2 4,2 h 12 c 2,0 3,-1 4,-2 l 4,-4 c 1,-1 2,-2 4,-2 h 76.72223 c 2.20914,0 4,1.79086 4,4 v 40 c 0,2.20914 -1.79086,4 -4,4 H 211.5 c -2,0 -3,1 -4,2 l -4,4 c -1,1 -2,2 -4,2 h -12 c -2,0 -3,-1 -4,-2 l -4,-4 c -1,-1 -2,-2 -4,-2 h -8 c -2.20914,0 -4,-1.79086 -4,-4 z"
       id="path51"
       style="stroke:#ffffff;stroke-width:9.89899;stroke-miterlimit:10;stroke-dasharray:none;stroke-opacity:0.3" />
    <path
       d="m 163.5,101 c 0,-2.20914 1.79086,-4 4,-4 h 8 c 2,0 3,1 4,2 l 4,4 c 1,1 2,2 4,2 h 12 c 2,0 3,-1 4,-2 l 4,-4 c 1,-1 2,-2 4,-2 h 76.72223 c 2.20914,0 4,1.79086 4,4 v 40 c 0,2.20914 -1.79086,4 -4,4 H 211.5 c -2,0 -3,1 -4,2 l -4,4 c -1,1 -2,2 -4,2 h -12 c -2,0 -3,-1 -4,-2 l -4,-4 c -1,-1 -2,-2 -4,-2 h -8 c -2.20914,0 -4,-1.79086 -4,-4 z"
       id="path52"
       style="stroke:#ffffff;stroke-width:9.89899;stroke-miterlimit:10;stroke-dasharray:none;stroke-opacity:0.3" />
    <path
       d="m 163.5,171 c 0,-2.20914 1.79086,-4 4,-4 h 8 c 2,0 3,1 4,2 l 4,4 c 1,1 2,2 4,2 h 12 c 2,0 3,-1 4,-2 l 4,-4 c 1,-1 2,-2 4,-2 h 76.72223 c 2.20914,0 4,1.79086 4,4 v 40 c 0,2.20914 -1.79086,4 -4,4 H 211.5 c -2,0 -3,1 -4,2 l -4,4 c -1,1 -2,2 -4,2 h -12 c -2,0 -3,-1 -4,-2 l -4,-4 c -1,-1 -2,-2 -4,-2 h -8 c -2.20914,0 -4,-1.79086 -4,-4 z"
       id="path53"
       style="stroke:#ffffff;stroke-width:9.89899;stroke-miterlimit:10;stroke-dasharray:none;stroke-opacity:0.3" />
    <path
       d="m 163.5,241 c 0,-2.20914 1.79086,-4 4,-4 h 8 c 2,0 3,1 4,2 l 4,4 c 1,1 2,2 4,2 h 12 c 2,0 3,-1 4,-2 l 4,-4 c 1,-1 2,-2 4,-2 h 76.72223 c 2.20914,0 4,1.79086 4,4 v 40 c 0,2.20914 -1.79086,4 -4,4 H 211.5 c -2,0 -3,1 -4,2 l -4,4 c -1,1 -2,2 -4,2 h -12 c -2,0 -3,-1 -4,-2 l -4,-4 c -1,-1 -2,-2 -4,-2 h -8 c -2.20914,0 -4,-1.79086 -4,-4 z"
       id="path54"
       style="stroke:#ffffff;stroke-width:9.89899;stroke-miterlimit:10;stroke-dasharray:none;stroke-opacity:0.3" />
    <path
       d="m 163.5,311 c 0,-2.20914 1.79086,-4 4,-4 h 8 c 2,0 3,1 4,2 l 4,4 c 1,1 2,2 4,2 h 12 c 2,0 3,-1 4,-2 l 4,-4 c 1,-1 2,-2 4,-2 h 76.72223 c 2.20914,0 4,1.79086 4,4 v 40 c 0,2.20914 -1.79086,4 -4,4 H 211.5 c -2,0 -3,1 -4,2 l -4,4 c -1,1 -2,2 -4,2 h -12 c -2,0 -3,-1 -4,-2 l -4,-4 c -1,-1 -2,-2 -4,-2 h -8 c -2.20914,0 -4,-1.79086 -4,-4 z"
       id="path55"
       style="stroke:#ffffff;stroke-width:9.89899;stroke-miterlimit:10;stroke-dasharray:none;stroke-opacity:0.3" />
    <path
       d="m 313.5,31 c 0,-2.20914 1.79086,-4 4,-4 h 8 c 2,0 3,1 4,2 l 4,4 c 1,1 2,2 4,2 h 12 c 2,0 3,-1 4,-2 l 4,-4 c 1,-1 2,-2 4,-2 h 76.72223 c 2.20914,0 4,1.79086 4,4 v 40 c 0,2.20914 -1.79086,4 -4,4 H 361.5 c -2,0 -3,1 -4,2 l -4,4 c -1,1 -2,2 -4,2 h -12 c -2,0 -3,-1 -4,-2 l -4,-4 c -1,-1 -2,-2 -4,-2 h -8 c -2.20914,0 -4,-1.79086 -4,-4 z"
       id="path56"
       style="stroke:#ffffff;stroke-width:9.89899;stroke-miterlimit:10;stroke-dasharray:none;stroke-opacity:0.3" />
    <path
       d="m 313.5,101 c 0,-2.20914 1.79086,-4 4,-4 h 8 c 2,0 3,1 4,2 l 4,4 c 1,1 2,2 4,2 h 12 c 2,0 3,-1 4,-2 l 4,-4 c 1,-1 2,-2 4,-2 h 76.72223 c 2.20914,0 4,1.79086 4,4 v 40 c 0,2.20914 -1.79086,4 -4,4 H 361.5 c -2,0 -3,1 -4,2 l -4,4 c -1,1 -2,2 -4,2 h -12 c -2,0 -3,-1 -4,-2 l -4,-4 c -1,-1 -2,-2 -4,-2 h -8 c -2.20914,0 -4,-1.79086 -4,-4 z"
       id="path57"
       style="stroke:#ffffff;stroke-width:9.89899;stroke-miterlimit:10;stroke-dasharray:none;stroke-opacity:0.3" />
    <path
       d="m 313.5,171 c 0,-2.20914 1.79086,-4 4,-4 h 8 c 2,0 3,1 4,2 l 4,4 c 1,1 2,2 4,2 h 12 c 2,0 3,-1 4,-2 l 4,-4 c 1,-1 2,-2 4,-2 h 76.72223 c 2.20914,0 4,1.79086 4,4 v 40 c 0,2.20914 -1.79086,4 -4,4 H 361.5 c -2,0 -3,1 -4,2 l -4,4 c -1,1 -2,2 -4,2 h -12 c -2,0 -3,-1 -4,-2 l -4,-4 c -1,-1 -2,-2 -4,-2 h -8 c -2.20914,0 -4,-1.79086 -4,-4 z"
       id="path58"
       style="stroke:#ffffff;stroke-width:9.89899;stroke-miterlimit:10;stroke-dasharray:none;stroke-opacity:0.3" />
    <path
       d="m 313.5,241 c 0,-2.20914 1.79086,-4 4,-4 h 8 c 2,0 3,1 4,2 l 4,4 c 1,1 2,2 4,2 h 12 c 2,0 3,-1 4,-2 l 4,-4 c 1,-1 2,-2 4,-2 h 76.72223 c 2.20914,0 4,1.79086 4,4 v 40 c 0,2.20914 -1.79086,4 -4,4 H 361.5 c -2,0 -3,1 -4,2 l -4,4 c -1,1 -2,2 -4,2 h -12 c -2,0 -3,-1 -4,-2 l -4,-4 c -1,-1 -2,-2 -4,-2 h -8 c -2.20914,0 -4,-1.79086 -4,-4 z"
       id="path59"
       style="stroke:#ffffff;stroke-width:9.89899;stroke-miterlimit:10;stroke-dasharray:none;stroke-opacity:0.3" />
    <path
       d="m 313.5,311 c 0,-2.20914 1.79086,-4 4,-4 h 8 c 2,0 3,1 4,2 l 4,4 c 1,1 2,2 4,2 h 12 c 2,0 3,-1 4,-2 l 4,-4 c 1,-1 2,-2 4,-2 h 76.72223 c 2.20914,0 4,1.79086 4,4 v 40 c 0,2.20914 -1.79086,4 -4,4 H 361.5 c -2,0 -3,1 -4,2 l -4,4 c -1,1 -2,2 -4,2 h -12 c -2,0 -3,-1 -4,-2 l -4,-4 c -1,-1 -2,-2 -4,-2 h -8 c -2.20914,0 -4,-1.79086 -4,-4 z"
       id="path60"
       style="stroke:#ffffff;stroke-width:9.89899;stroke-miterlimit:10;stroke-dasharray:none;stroke-opacity:0.3" />
    <path
       d="m 463.5,31 c 0,-2.20914 1.79086,-4 4,-4 h 8 c 2,0 3,1 4,2 l 4,4 c 1,1 2,2 4,2 h 12 c 2,0 3,-1 4,-2 l 4,-4 c 1,-1 2,-2 4,-2 h 76.72223 c 2.20914,0 4,1.79086 4,4 v 40 c 0,2.20914 -1.79086,4 -4,4 H 511.5 c -2,0 -3,1 -4,2 l -4,4 c -1,1 -2,2 -4,2 h -12 c -2,0 -3,-1 -4,-2 l -4,-4 c -1,-1 -2,-2 -4,-2 h -8 c -2.20914,0 -4,-1.79086 -4,-4 z"
       id="path61"
       style="stroke:#ffffff;stroke-width:9.89899;stroke-miterlimit:10;stroke-dasharray:none;stroke-opacity:0.3" />
    <path
       d="m 463.5,101 c 0,-2.20914 1.79086,-4 4,-4 h 8 c 2,0 3,1 4,2 l 4,4 c 1,1 2,2 4,2 h 12 c 2,0 3,-1 4,-2 l 4,-4 c 1,-1 2,-2 4,-2 h 76.72223 c 2.20914,0 4,1.79086 4,4 v 40 c 0,2.20914 -1.79086,4 -4,4 H 511.5 c -2,0 -3,1 -4,2 l -4,4 c -1,1 -2,2 -4,2 h -12 c -2,0 -3,-1 -4,-2 l -4,-4 c -1,-1 -2,-2 -4,-2 h -8 c -2.20914,0 -4,-1.79086 -4,-4 z"
       id="path62"
       style="stroke:#ffffff;stroke-width:9.89899;stroke-miterlimit:10;stroke-dasharray:none;stroke-opacity:0.3" />
    <path
       d="m 463.5,171 c 0,-2.20914 1.79086,-4 4,-4 h 8 c 2,0 3,1 4,2 l 4,4 c 1,1 2,2 4,2 h 12 c 2,0 3,-1 4,-2 l 4,-4 c 1,-1 2,-2 4,-2 h 76.72223 c 2.20914,0 4,1.79086 4,4 v 40 c 0,2.20914 -1.79086,4 -4,4 H 511.5 c -2,0 -3,1 -4,2 l -4,4 c -1,1 -2,2 -4,2 h -12 c -2,0 -3,-1 -4,-2 l -4,-4 c -1,-1 -2,-2 -4,-2 h -8 c -2.20914,0 -4,-1.79086 -4,-4 z"
       id="path63"
       style="stroke:#ffffff;stroke-width:9.89899;stroke-miterlimit:10;stroke-dasharray:none;stroke-opacity:0.3" />
    <path
       d="m 463.5,241 c 0,-2.20914 1.79086,-4 4,-4 h 8 c 2,0 3,1 4,2 l 4,4 c 1,1 2,2 4,2 h 12 c 2,0 3,-1 4,-2 l 4,-4 c 1,-1 2,-2 4,-2 h 76.72223 c 2.20914,0 4,1.79086 4,4 v 40 c 0,2.20914 -1.79086,4 -4,4 H 511.5 c -2,0 -3,1 -4,2 l -4,4 c -1,1 -2,2 -4,2 h -12 c -2,0 -3,-1 -4,-2 l -4,-4 c -1,-1 -2,-2 -4,-2 h -8 c -2.20914,0 -4,-1.79086 -4,-4 z"
       id="path64"
       style="stroke:#ffffff;stroke-width:9.89899;stroke-miterlimit:10;stroke-dasharray:none;stroke-opacity:0.3" />
    <path
       d="m 463.5,311 c 0,-2.20914 1.79086,-4 4,-4 h 8 c 2,0 3,1 4,2 l 4,4 c 1,1 2,2 4,2 h 12 c 2,0 3,-1 4,-2 l 4,-4 c 1,-1 2,-2 4,-2 h 76.72223 c 2.20914,0 4,1.79086 4,4 v 40 c 0,2.20914 -1.79086,4 -4,4 H 511.5 c -2,0 -3,1 -4,2 l -4,4 c -1,1 -2,2 -4,2 h -12 c -2,0 -3,-1 -4,-2 l -4,-4 c -1,-1 -2,-2 -4,-2 h -8 c -2.20914,0 -4,-1.79086 -4,-4 z"
       id="path65"
       style="stroke:#ffffff;stroke-width:9.89899;stroke-miterlimit:10;stroke-dasharray:none;stroke-opacity:0.3" />
  </g>
  <g
     id="g4"
     style="display:inline"
     transform="translate(-61.661301)">
    <path
       d="m 355.23755,70.026149 -9.98724,1.261684 c -9.57639,2.337436 -18.69949,7.437296 -24.22433,14.237111 -16.14956,18.288666 -11.48798,50.161906 8.06148,63.336556 19.33699,14.44961 47.612,17.62286 51.2244,31.23664 3.39992,16.57455 -12.3238,21.88689 -27.85003,19.97445 -11.48886,-2.54993 -17.84951,-8.30054 -24.86182,-18.92526 l -25.92428,14.88789 c 2.97491,6.79979 6.37482,9.76145 11.47468,15.71127 24.64933,24.87598 86.27177,23.60013 97.33562,-14.22383 0.41082,-1.27495 3.40079,-9.98723 1.0492,-23.37436 l 0.65074,0.9518 c -2.47909,-15.51206 -12.58143,-28.54682 -42.54309,-40.70148 -10.42639,-4.88736 -22.01264,-8.28729 -25.45504,-16.14957 -1.28912,-4.67487 -1.48658,-7.22481 -0.65076,-9.98721 2.12495,-9.151435 12.96215,-11.899693 21.4619,-9.349763 5.52486,1.699953 10.62384,5.949843 13.82542,12.749653 14.64794,-9.57641 14.64794,-9.57641 24.8618,-15.937068 -3.82487,-5.949836 -5.72226,-8.513933 -8.30054,-11.049696 -8.92476,-9.987228 -20.81115,-15.087972 -40.14811,-14.648817 z m -102.15216,2.439255 c 0,27.454249 -0.12832,54.738516 -0.12832,82.235266 0,17.45284 0.89072,33.47402 -1.9567,38.40388 -4.67487,9.76058 -16.71532,8.51393 -22.18351,6.79982 -5.60985,-2.7766 -8.45726,-6.60148 -11.75802,-12.11216 -0.89247,-1.48747 -1.55651,-2.7757 -1.79734,-2.7757 l -25.85346,15.93705 c 4.32071,8.92475 10.62118,16.6011 18.7526,21.48847 12.11219,7.2248 28.39189,9.56224 45.43392,5.73736 11.09221,-3.20159 20.65355,-9.78802 25.65425,-19.98774 7.22481,-13.17464 5.69307,-29.32331 5.62224,-47.39949 0.17001,-29.09753 0,-58.21013 0,-87.534327 l 0.0575,-0.792429 z"
       style="fill:#1a1a1a;fill-opacity:1;stroke:#000000;stroke-width:12.5;stroke-linecap:round;stroke-dasharray:none;stroke-opacity:0.14902;paint-order:stroke fill markers"
       id="path5" />
    <path
       d="m 452.25,142.50752 c -2.216,0 -4,1.784 -4,4 v 79.5 c 0,2.216 1.784,4 4,4 h 79.5 c 2.216,0 4,-1.784 4,-4 v -79.5 c 0,-2.216 -1.784,-4 -4,-4 z m 6,10 h 67.5 v 67.5 h -67.5 z m 16.50195,12.55078 c -0.0774,0.002 -0.1392,0.0143 -0.18164,0.0391 -1.81081,1.05801 -1.81081,41.26232 0,42.32032 1.81081,1.058 36.2168,-19.04415 36.2168,-21.16016 0,-2.06641 -32.81067,-21.28479 -36.03516,-21.19922 z"
       style="fill:#1a1a1a;fill-opacity:1;stroke:#000000;stroke-width:12.5;stroke-linecap:round;stroke-opacity:0.14902;paint-order:stroke fill markers"
       id="path15" />
  </g>
</svg>
