<svg width="600" height="300" viewBox="0 0 600 300" fill="none" xmlns="http://www.w3.org/2000/svg">
<g clip-path="url(#clip0_331_77)">
<path d="M-0.000976562 300V0H599.999V300H-0.000976562Z" fill="#7480FF"/>
<path d="M-0.000976562 41C17.499 62.2 49.999 111.9 89.999 118.5C129.999 125.1 143.354 78.518 191.999 77C240.646 75.482 239.433 109.184 285.499 102.5C331.566 95.816 330.097 55.944 397.999 46.5C465.903 37.056 479.384 84.415 521.499 83.5C563.616 82.586 583.499 43.3 599.999 23V300H-0.000976562V41Z" fill="#626FFF"/>
<path d="M-0.000976562 156.334C15.315 167.93 33.635 183.046 62.302 186.119C90.97 189.192 108.041 154.894 156 165C203.959 175.107 227.015 233.07 284.513 214.497C342.013 195.923 336.406 159.553 390.296 147.415C444.187 135.277 440.258 167.169 493.5 167C546.742 166.831 574.5 136.4 600 116V300H2.67029e-05L-0.000976562 156.334Z" fill="#515FF4"/>
<path d="M419.637 182.689C426.881 191.062 423.909 204.114 412.999 211.843C402.088 219.571 387.371 219.05 380.126 210.678C372.882 202.306 375.854 189.254 386.765 181.525C397.675 173.796 412.393 174.318 419.637 182.69V182.689ZM538.597 217.758C547.675 224.095 547.998 237.478 539.319 247.648C530.639 257.818 516.244 260.926 507.166 254.589C498.088 248.252 497.766 234.869 506.444 224.699C515.124 214.528 529.519 211.42 538.597 217.758ZM336.816 242.193C343.629 250.92 340.002 263.806 328.716 270.974C317.429 278.143 302.757 276.88 295.944 268.154C289.131 259.426 292.758 246.541 304.044 239.372C315.331 232.204 330.004 233.467 336.816 242.193Z" fill="#4956E6"/>
<path d="M119.152 56.0169C125.81 64.8329 121.986 77.6309 110.61 84.6029C99.2339 91.5749 84.6149 90.0809 77.9569 81.2649C71.2989 72.4489 75.1239 59.6509 86.4989 52.6789C97.8749 45.7059 112.494 47.2009 119.152 56.0169ZM298.851 33.8989C308.469 39.3819 310.012 52.6789 302.297 63.5989C294.582 74.5189 280.53 78.9269 270.912 73.4439C261.294 67.9619 259.751 54.6639 267.466 43.7439C275.181 32.8239 289.233 28.4169 298.851 33.8989ZM544.652 23.7409C552.92 31.1039 551.663 44.4309 541.846 53.5079C532.028 62.5849 517.367 63.9739 509.099 56.6109C500.832 49.2479 502.088 35.9209 511.906 26.8439C521.723 17.7669 536.384 16.3779 544.652 23.7409Z" fill="#8690FF"/>
<path d="M7.93285 205.521C16.4839 212.552 15.7549 225.919 6.30285 235.376C-3.14915 244.833 -17.7441 246.799 -26.2961 239.768C-34.8471 232.738 -34.1181 219.371 -24.6661 209.914C-15.2141 200.457 -0.619146 198.49 7.93285 205.521ZM450.569 283.685C457.617 292.223 454.343 305.202 443.255 312.675C432.168 320.148 417.466 319.285 410.419 310.746C403.371 302.208 406.646 289.228 417.733 281.756C428.821 274.283 443.522 275.146 450.57 283.685H450.569ZM135.615 294.746C142.428 303.473 138.801 316.358 127.515 323.526C116.228 330.696 101.555 329.432 94.7429 320.706C87.9299 311.979 91.5569 299.093 102.843 291.925C114.13 284.756 128.802 286.019 135.615 294.746ZM621.843 248.286C629.476 256.305 627.126 269.483 616.593 277.72C606.062 285.957 591.336 286.134 583.703 278.115C576.07 270.095 578.42 256.917 588.952 248.68C599.484 240.443 614.211 240.266 621.843 248.286ZM204.026 227.143C210.427 236.176 206.208 248.879 194.601 255.517C182.994 262.155 168.396 260.213 161.995 251.18C155.594 242.147 159.814 229.443 171.421 222.805C183.027 216.168 197.625 218.11 204.026 227.143Z" fill="#4956E6"/>
<path d="M72.729 -19.8528C80.989 -12.5158 79.751 0.785213 69.965 9.85421C60.18 18.9242 45.552 20.3282 37.293 12.9912C29.033 5.65321 30.271 -7.64679 40.057 -16.7158C49.842 -25.7858 64.47 -27.1898 72.729 -19.8528ZM213.87 -15.3478C222.13 -8.01079 220.892 5.28922 211.107 14.3592C201.321 23.4292 186.693 24.8322 178.434 17.4952C170.174 10.1582 171.412 -3.14179 181.198 -12.2118C190.983 -21.2818 205.611 -22.6858 213.87 -15.3478ZM395.552 -22.8558C403.812 -15.5188 402.574 -2.21779 392.788 6.85121C383.003 15.9212 368.375 17.3252 360.116 9.98821C351.856 2.65021 353.094 -10.6498 362.879 -19.7188C372.665 -28.7888 387.293 -30.1928 395.552 -22.8558ZM600.207 -30.3128C608.475 -22.9498 607.219 -9.62279 597.401 -0.545788C587.584 8.53121 572.923 9.92021 564.655 2.55721C556.387 -4.80579 557.644 -18.1328 567.461 -27.2098C577.279 -36.2868 591.94 -37.6758 600.207 -30.3128ZM491.649 -28.8608C499.907 -21.5248 498.669 -8.22379 488.884 0.845215C479.099 9.91521 464.471 11.3192 456.212 3.98221C447.952 -3.35579 449.19 -16.6558 458.975 -25.7248C468.761 -34.7948 483.389 -36.1988 491.648 -28.8618L491.649 -28.8608Z" fill="#8690FF"/>
<path d="M73.287 239.701C80.735 247.892 78.085 261.013 67.367 269.008C56.65 277.003 41.924 276.843 34.477 268.652C27.028 260.46 29.679 247.339 40.396 239.345C51.113 231.35 65.84 231.509 73.287 239.701ZM629.974 164.202C637.607 172.221 635.256 185.399 624.724 193.636C614.192 201.873 599.467 202.05 591.834 194.031C584.201 186.011 586.551 172.833 597.083 164.596C607.615 156.359 622.341 156.182 629.974 164.202Z" fill="#4956E6"/>
<path d="M325.352 82.0715C323.593 85.1844 322.001 88.3331 320.565 91.6248C306.924 89.5854 293.032 89.5854 279.355 91.6248C277.955 88.3331 276.339 85.1128 274.58 82C261.765 84.1827 249.273 88.0111 237.427 93.4138C213.95 128.085 207.596 161.861 210.755 195.172C224.504 205.298 239.904 213.027 256.309 217.964C260.006 213.027 263.273 207.767 266.073 202.293C260.76 200.325 255.627 197.856 250.709 194.993C252.001 194.063 253.257 193.097 254.478 192.167C283.303 205.692 316.688 205.692 345.549 192.167C346.77 193.169 348.026 194.135 349.318 194.993C344.401 197.892 339.267 200.325 333.919 202.328C336.719 207.803 339.985 213.062 343.683 218C360.087 213.062 375.487 205.37 389.237 195.244C392.969 156.601 382.847 123.111 362.492 93.4496C350.683 88.0469 338.19 84.2184 325.375 82.0715H325.352Z" stroke="black" stroke-opacity="0.145" stroke-width="13.5"/>
<path d="M325.339 82C323.58 85.1128 322.001 88.3331 320.565 91.6248C306.924 89.5854 293.031 89.5854 279.355 91.6248C277.955 88.3331 276.339 85.1128 274.58 82C261.765 84.1827 249.273 88.0111 237.427 93.4138C213.95 128.085 207.596 161.861 210.755 195.172C224.504 205.298 239.904 213.027 256.309 217.964C260.006 213.027 263.273 207.767 266.073 202.293C260.76 200.325 255.627 197.856 250.709 194.993C252.001 194.063 253.257 193.097 254.478 192.167C283.303 205.692 316.688 205.692 345.549 192.167C346.77 193.169 348.026 194.135 349.318 194.993C344.401 197.892 339.267 200.325 333.919 202.328C336.719 207.803 339.985 213.062 343.683 218C360.087 213.062 375.487 205.37 389.237 195.244C392.969 156.601 382.847 123.111 362.492 93.4496C350.683 88.0469 338.19 84.2184 325.375 82.0715L325.339 82ZM270.093 174.67C261.227 174.67 253.868 166.656 253.868 156.745C253.868 146.834 260.939 138.783 270.057 138.783C279.175 138.783 286.426 146.869 286.283 156.745C286.139 166.62 279.139 174.67 270.093 174.67ZM329.898 174.67C320.995 174.67 313.708 166.656 313.708 156.745C313.708 146.834 320.78 138.783 329.898 138.783C339.016 138.783 346.231 146.869 346.088 156.745C345.944 166.62 338.944 174.67 329.898 174.67Z" fill="white"/>
</g>
<defs>
<clipPath id="clip0_331_77">
<rect width="600" height="300" fill="white"/>
</clipPath>
</defs>
</svg>
