<svg xmlns="http://www.w3.org/2000/svg" xmlns:xlink="http://www.w3.org/1999/xlink" width="482" height="265" viewBox="0 0 482 265" fill="none"><g opacity="0.5"><g filter="url(#filter_D7IbU996B4Jao2TD_0Ya3)"><path d="M4 2L478 2L478 259L4 259L4 2Z"   fill="#000000" fill-opacity="0.5"></path></g></g><g filter="url(#filter_9AI3cvzps6v3Yz7uOYfOT)"><path d="M185.89 97.106L178.543 97.106L181.525 66.251L188.872 66.251L189.131 63.872L188.223 61.494L195.959 61.494L195.484 66.251L202.96 66.251L199.978 97.106L192.459 97.106L191.551 106.431L184.982 106.431L185.89 97.106ZM177.333 98.483L174.913 94.54L173.746 106.431L167.177 106.431L168.603 91.786L164.584 91.786L173.314 74.825L166.658 74.825L167.177 69.192L179.926 69.192L179.234 76.64L176.036 82.774L175.993 83.525L178.413 87.468L177.333 98.483ZM178.716 67.878L171.888 67.878L170.98 63.059L170.029 61.557L177.635 61.557L178.716 67.878ZM186.452 91.348L187.143 83.963L185.414 83.963L184.723 91.348L186.452 91.348ZM194.706 91.348L195.397 83.963L193.755 83.963L193.021 91.348L194.706 91.348ZM185.933 78.643L187.662 78.643L188.31 72.259L186.581 72.259L185.933 78.643ZM194.879 72.259L194.274 78.643L195.916 78.643L196.564 72.259L194.879 72.259ZM225.433 99.484L226.211 91.16L219.642 91.16L220.247 85.214L241.596 85.214L240.991 91.16L234.422 91.16L233.644 99.484L240.213 99.484L239.608 105.43L218.259 105.43L218.864 99.484L225.433 99.484ZM207.066 76.89L212.684 64.185L211.733 62.621L220.766 62.621L214.456 76.89L219.383 76.89L213.073 91.16L218 91.16L217.438 97.106L205.121 97.106L205.683 91.16L209.356 82.836L206.504 82.836L207.066 76.89ZM242.806 83.274L234.897 83.274L232.78 79.769L229.063 83.274L219.728 83.274L234.033 68.629L223.013 68.629L223.575 62.808L242.849 62.808L242.244 69.192L237.361 74.575L237.49 74.575L242.806 83.274ZM216.617 105.43L204.214 106.494L204.775 100.673L217.222 99.484L216.617 105.43ZM264.501 71.007L259.963 86.216L261.346 100.611L257.543 100.611L257.068 94.915L255.598 100.673L251.925 100.673L251.363 106.369L244.708 106.369L248.727 64.936L247.473 62.558L281.874 62.558L277.984 102.801C277.869 103.845 277.509 104.71 276.904 105.399C276.299 106.087 275.651 106.431 274.959 106.431L267.44 106.431L271.588 100.736L271.588 100.611L267.699 100.611L267.223 94.978L265.711 100.673L261.346 100.673L265.927 85.778L264.544 71.007L268.65 71.007L268.995 77.141L270.378 71.007L274.354 71.007L270.205 86.091L271.632 100.298L274.7 68.504L255.036 68.504L254.777 71.007L258.667 71.007L258.883 77.141L260.266 71.007L264.501 71.007ZM252.141 98.17L255.857 85.778L254.734 71.383L252.141 98.17ZM314.2 86.341L310.31 82.273L305.816 86.278L298.383 86.278L298.901 81.021L303.136 81.021L306.421 78.08L304.13 75.639L299.463 75.639L305.124 63.184L304.13 61.557L311.521 61.557L310.224 64.436L322.584 64.436L321.849 71.946L314.978 78.08L317.744 80.959L321.892 80.959L321.374 86.341L314.2 86.341ZM320.38 87.53L318.651 105.305L297.389 105.305L299.117 87.53L320.38 87.53ZM286.412 75.826L292.03 63.121L291.079 61.557L300.111 61.557L293.802 75.826L298.728 75.826L292.419 90.096L297.216 90.096L296.654 96.042L284.467 96.042L285.029 90.096L288.702 81.772L285.85 81.772L286.412 75.826ZM295.876 104.366L283.473 105.43L284.035 99.484L296.438 98.42L295.876 104.366ZM312.601 99.422L313.206 93.413L305.124 93.413L304.519 99.422L312.601 99.422ZM307.847 69.693L307.588 70.256L311.045 73.886L315.713 69.693L307.847 69.693Z"   fill="#3D3D3D" ></path></g><g filter="url(#filter_ODymulIdksqDAfLH2jdtM)"><path d="M155.939 135.246L155.784 135.246L155.784 163.658L151.584 163.658L151.584 127.098L158.402 127.098L162.731 155.981L163.068 155.981L163.068 127.098L167.267 127.098L167.267 163.658L160.294 163.658L155.939 135.246ZM182.847 162.144C182.191 162.944 181.426 163.537 180.553 163.919C179.68 164.302 178.838 164.494 178.025 164.494C175.26 164.494 173.165 163.171 171.739 160.525C170.313 157.878 169.6 154.17 169.6 149.4C169.6 144.664 170.236 141.034 171.506 138.51C172.776 135.986 174.509 134.723 176.703 134.723C178.881 134.723 180.605 135.986 181.875 138.51C183.145 141.034 183.78 144.664 183.78 149.4C183.78 149.922 183.763 150.671 183.729 151.646L173.644 151.646C174.025 156.137 175.485 158.383 178.025 158.383C179.806 158.383 181.413 157.321 182.847 155.197L182.847 162.144ZM179.866 145.796C179.641 144.055 179.252 142.767 178.699 141.931C178.146 141.095 177.481 140.677 176.703 140.677C175.978 140.677 175.36 141.113 174.85 141.983C174.34 142.854 173.981 144.125 173.774 145.796L179.866 145.796ZM195.601 163.711C195.325 162.666 195.161 161.552 195.109 160.368C194.469 161.517 193.705 162.466 192.815 163.214C191.925 163.963 191.047 164.337 190.183 164.337C188.853 164.337 187.794 163.554 187.008 161.987C186.222 160.42 185.828 158.4 185.828 155.928L185.828 135.455L189.976 135.455L189.976 154.518C189.976 155.528 190.144 156.355 190.481 156.999C190.818 157.643 191.264 157.965 191.817 157.965C192.179 157.965 192.668 157.704 193.281 157.182C193.895 156.66 194.409 156.085 194.824 155.458L194.824 135.455L198.971 135.455L198.971 158.279C198.971 159.428 199.006 160.394 199.075 161.177C199.144 161.961 199.282 162.805 199.49 163.711L195.601 163.711ZM205.711 135.455L205.711 138.484C206.161 137.509 206.701 136.752 207.331 136.212C207.962 135.672 208.589 135.402 209.211 135.402C209.643 135.402 210.049 135.524 210.429 135.768L210.429 142.192C209.945 141.948 209.487 141.826 209.055 141.826C208.399 141.826 207.777 142.044 207.189 142.479C206.601 142.915 206.109 143.602 205.711 144.542L205.711 163.658L201.564 163.658L201.564 135.455L205.711 135.455ZM217.584 164.337C216.271 164.337 215.126 163.711 214.149 162.457C213.173 161.204 212.421 159.48 211.894 157.286C211.367 155.093 211.103 152.533 211.103 149.609C211.103 146.719 211.367 144.151 211.894 141.905C212.421 139.659 213.164 137.909 214.123 136.656C215.082 135.402 216.201 134.776 217.48 134.776C218.068 134.776 218.66 134.993 219.256 135.428C219.852 135.864 220.41 136.464 220.928 137.23L220.928 135.455L225.076 135.455L225.076 157.077C225.076 159.898 225.249 162.091 225.594 163.658L221.706 163.658C221.585 163.171 221.481 162.544 221.395 161.778C220.323 163.484 219.053 164.337 217.584 164.337ZM215.069 149.609C215.069 151.21 215.229 152.673 215.549 153.996C215.869 155.319 216.292 156.372 216.819 157.156C217.346 157.939 217.904 158.331 218.491 158.331C218.906 158.331 219.373 158.148 219.891 157.783C220.41 157.417 220.859 156.625 221.239 155.406L221.239 143.707C220.859 142.488 220.414 141.705 219.904 141.356C219.394 141.008 218.923 140.834 218.491 140.834C217.904 140.834 217.346 141.217 216.819 141.983C216.292 142.749 215.869 143.802 215.549 145.143C215.229 146.484 215.069 147.972 215.069 149.609ZM232.386 164.076C230.831 164.076 229.656 163.197 228.86 161.439C228.066 159.68 227.668 157.095 227.668 153.683L227.668 123.494L231.816 123.494L231.816 151.593C231.816 152.986 231.868 154.048 231.971 154.779C232.075 155.511 232.248 156.068 232.49 156.451C232.68 156.764 232.892 156.964 233.125 157.051C233.358 157.138 233.769 157.182 234.356 157.182L234.356 164.076L232.386 164.076ZM247.266 135.246L247.11 135.246L247.11 163.658L242.911 163.658L242.911 127.098L249.729 127.098L254.058 155.981L254.395 155.981L254.395 127.098L258.594 127.098L258.594 163.658L251.621 163.658L247.266 135.246ZM274.174 162.144C273.518 162.944 272.753 163.537 271.88 163.919C271.007 164.302 270.164 164.494 269.352 164.494C266.587 164.494 264.492 163.171 263.066 160.525C261.64 157.878 260.927 154.17 260.927 149.4C260.927 144.664 261.562 141.034 262.833 138.51C264.103 135.986 265.835 134.723 268.03 134.723C270.208 134.723 271.932 135.986 273.202 138.51C274.472 141.034 275.107 144.664 275.107 149.4C275.107 149.922 275.089 150.671 275.055 151.646L264.971 151.646C265.352 156.137 266.812 158.383 269.352 158.383C271.133 158.383 272.74 157.321 274.174 155.197L274.174 162.144ZM271.193 145.796C270.968 144.055 270.579 142.767 270.026 141.931C269.474 141.095 268.808 140.677 268.03 140.677C267.304 140.677 266.687 141.113 266.177 141.983C265.667 142.854 265.308 144.125 265.101 145.796L271.193 145.796ZM278.27 135.455L278.27 127.411L282.158 127.411L282.158 135.455L284.854 135.455L284.854 141.826L282.158 141.826L282.158 153.944C282.158 154.953 282.197 155.719 282.275 156.242C282.353 156.764 282.495 157.121 282.703 157.312C282.91 157.504 283.213 157.6 283.61 157.6C283.869 157.6 284.089 157.582 284.271 157.548C284.452 157.513 284.613 157.46 284.751 157.391L284.751 163.815C284.025 163.989 283.351 164.076 282.729 164.076C281.536 164.076 280.646 163.832 280.058 163.345C279.47 162.858 279.026 162.013 278.723 160.812C278.421 159.611 278.27 157.896 278.27 155.667L278.27 141.826L276.248 141.826L276.248 135.455L278.27 135.455ZM297.531 139.998L297.427 139.998L295.379 163.658L290.168 163.658L285.762 127.098L290.22 127.098L292.813 154.675L292.916 154.675L295.509 127.098L299.423 127.098L302.015 154.675L302.119 154.675L304.711 127.098L309.17 127.098L304.763 163.658L299.553 163.658L297.531 139.998ZM316.921 164.337C315.452 164.337 314.16 163.728 313.046 162.509C311.931 161.291 311.071 159.558 310.466 157.312C309.862 155.067 309.559 152.412 309.559 149.348C309.559 144.647 310.215 141.043 311.529 138.536C312.843 136.029 314.64 134.776 316.921 134.776C319.185 134.776 320.973 136.029 322.287 138.536C323.601 141.043 324.257 144.647 324.257 149.348C324.257 152.412 323.954 155.067 323.35 157.312C322.745 159.558 321.89 161.291 320.784 162.509C319.677 163.728 318.39 164.337 316.921 164.337ZM313.655 149.348C313.655 152.029 313.958 154.187 314.562 155.824C315.167 157.46 315.954 158.279 316.921 158.279C317.888 158.279 318.671 157.46 319.267 155.824C319.863 154.187 320.161 152.029 320.161 149.348C320.161 146.562 319.872 144.447 319.293 143.002C318.714 141.557 317.924 140.834 316.921 140.834C315.918 140.834 315.124 141.557 314.536 143.002C313.948 144.447 313.655 146.562 313.655 149.348ZM330.479 135.455L330.479 138.484C330.928 137.509 331.469 136.752 332.099 136.212C332.729 135.672 333.356 135.402 333.978 135.402C334.411 135.402 334.816 135.524 335.197 135.768L335.197 142.192C334.712 141.948 334.255 141.826 333.823 141.826C333.167 141.826 332.544 142.044 331.956 142.479C331.368 142.915 330.876 143.602 330.479 144.542L330.479 163.658L326.331 163.658L326.331 135.455L330.479 135.455ZM336.908 163.658L336.908 123.494L341.055 123.494L341.055 144.647L341.678 144.647L344.892 135.455L349.221 135.455L344.736 147.781C345.687 149.591 346.543 151.785 347.303 154.361C348.063 156.938 348.824 160.037 349.584 163.658L345.67 163.658C344.91 160.316 344.274 157.765 343.764 156.007C343.254 154.248 342.593 152.638 341.781 151.176L341.055 151.176L341.055 163.658L336.908 163.658Z"   fill="#6000DE" ></path></g><g opacity="0.25" style="mix-blend-mode:multiply"><path    stroke="rgba(52, 152, 72, 1.00)" stroke-width="0.5"    d="M114.727 32.89C161.013 32.89 161.013 55.307 207.298 55.307"></path><path    stroke="rgba(52, 152, 72, 1.00)" stroke-width="0.5"    d="M114.727 32.89C161.013 32.89 161.013 71.571 207.298 71.571"></path><path    stroke="rgba(52, 152, 72, 1.00)" stroke-width="0.5"    d="M114.727 32.89C161.013 32.89 161.013 87.835 207.298 87.835"></path><path    stroke="rgba(52, 152, 72, 1.00)" stroke-width="0.5"    d="M114.727 32.89C161.013 32.89 161.013 104.098 207.298 104.098"></path><path    stroke="rgba(52, 152, 72, 1.00)" stroke-width="0.5"    d="M114.727 32.89C161.013 32.89 161.013 120.362 207.298 120.362"></path><path    stroke="rgba(52, 152, 72, 1.00)" stroke-width="0.5"    d="M114.727 32.89C161.013 32.89 161.013 136.626 207.298 136.626"></path><path    stroke="rgba(52, 152, 72, 1.00)" stroke-width="0.5"    d="M114.727 32.89C161.013 32.89 161.013 152.89 207.298 152.89"></path><path    stroke="rgba(52, 152, 72, 1.00)" stroke-width="0.5"    d="M114.727 32.89C161.013 32.89 161.013 169.153 207.298 169.153"></path><path    stroke="rgba(52, 152, 72, 1.00)" stroke-width="0.5"    d="M114.727 32.89C161.013 32.89 161.013 185.417 207.298 185.417"></path><path    stroke="rgba(52, 152, 72, 1.00)" stroke-width="0.5"    d="M114.727 32.89C161.013 32.89 161.013 201.681 207.298 201.681"></path><path    stroke="rgba(52, 152, 72, 1.00)" stroke-width="0.5"    d="M114.727 32.89C161.013 32.89 161.013 217.945 207.298 217.945"></path><path    stroke="rgba(52, 152, 72, 1.00)" stroke-width="0.5"    d="M114.728 45.637C161.013 45.637 161.013 55.307 207.299 55.307"></path><path    stroke="rgba(52, 152, 72, 1.00)" stroke-width="0.5"    d="M114.728 45.637C161.013 45.637 161.013 71.571 207.299 71.571"></path><path    stroke="rgba(52, 152, 72, 1.00)" stroke-width="0.5"    d="M114.728 45.637C161.013 45.637 161.013 87.835 207.299 87.835"></path><path    stroke="rgba(52, 152, 72, 1.00)" stroke-width="0.5"    d="M114.728 45.637C161.013 45.637 161.013 104.098 207.299 104.098"></path><path    stroke="rgba(52, 152, 72, 1.00)" stroke-width="0.5"    d="M114.728 45.637C161.013 45.637 161.013 120.362 207.299 120.362"></path><path    stroke="rgba(52, 152, 72, 1.00)" stroke-width="0.5"    d="M114.728 45.637C161.013 45.637 161.013 136.626 207.299 136.626"></path><path    stroke="rgba(52, 152, 72, 1.00)" stroke-width="0.5"    d="M114.728 45.637C161.013 45.637 161.013 152.89 207.299 152.89"></path><path    stroke="rgba(52, 152, 72, 1.00)" stroke-width="0.5"    d="M114.728 45.637C161.013 45.637 161.013 169.153 207.299 169.153"></path><path    stroke="rgba(52, 152, 72, 1.00)" stroke-width="0.5"    d="M114.728 45.637C161.013 45.637 161.013 185.417 207.299 185.417"></path><path    stroke="rgba(52, 152, 72, 1.00)" stroke-width="0.5"    d="M114.728 45.637C161.013 45.637 161.013 201.681 207.299 201.681"></path><path    stroke="rgba(52, 152, 72, 1.00)" stroke-width="0.5"    d="M114.728 45.637C161.013 45.637 161.013 217.944 207.299 217.944"></path><path    stroke="rgba(52, 152, 72, 1.00)" stroke-width="0.5"    d="M114.727 58.384C161.013 58.384 161.013 55.307 207.299 55.307"></path><path    stroke="rgba(52, 152, 72, 1.00)" stroke-width="0.5"    d="M114.727 58.384C161.013 58.384 161.013 71.57 207.299 71.57"></path><path    stroke="rgba(52, 152, 72, 1.00)" stroke-width="0.5"    d="M114.727 58.384C161.013 58.384 161.013 87.834 207.299 87.834"></path><path    stroke="rgba(52, 152, 72, 1.00)" stroke-width="0.5"    d="M114.727 58.384C161.013 58.384 161.013 104.098 207.299 104.098"></path><path    stroke="rgba(52, 152, 72, 1.00)" stroke-width="0.5"    d="M114.727 58.384C161.013 58.384 161.013 120.362 207.299 120.362"></path><path    stroke="rgba(52, 152, 72, 1.00)" stroke-width="0.5"    d="M114.727 58.384C161.013 58.384 161.013 136.625 207.298 136.625"></path><path    stroke="rgba(52, 152, 72, 1.00)" stroke-width="0.5"    d="M114.727 58.384C161.013 58.384 161.013 152.889 207.299 152.889"></path><path    stroke="rgba(52, 152, 72, 1.00)" stroke-width="0.5"    d="M114.727 58.384C161.013 58.384 161.013 169.153 207.299 169.153"></path><path    stroke="rgba(52, 152, 72, 1.00)" stroke-width="0.5"    d="M114.727 58.384C161.013 58.384 161.013 185.417 207.299 185.417"></path><path    stroke="rgba(52, 152, 72, 1.00)" stroke-width="0.5"    d="M114.727 58.384C161.013 58.384 161.013 201.68 207.299 201.68"></path><path    stroke="rgba(52, 152, 72, 1.00)" stroke-width="0.5"    d="M114.727 58.384C161.013 58.384 161.013 217.944 207.299 217.944"></path><path    stroke="rgba(52, 152, 72, 1.00)" stroke-width="0.5"    d="M114.727 71.131C161.013 71.131 161.013 55.307 207.299 55.307"></path><path    stroke="rgba(52, 152, 72, 1.00)" stroke-width="0.5"    d="M114.727 71.131C161.013 71.131 161.013 71.571 207.298 71.571"></path><path    stroke="rgba(52, 152, 72, 1.00)" stroke-width="0.5"    d="M114.727 71.131C161.013 71.131 161.013 87.835 207.298 87.835"></path><path    stroke="rgba(52, 152, 72, 1.00)" stroke-width="0.5"    d="M114.727 71.131C161.013 71.131 161.013 104.098 207.298 104.098"></path><path    stroke="rgba(52, 152, 72, 1.00)" stroke-width="0.5"    d="M114.727 71.131C161.013 71.131 161.013 120.362 207.298 120.362"></path><path    stroke="rgba(52, 152, 72, 1.00)" stroke-width="0.5"    d="M114.727 71.131C161.013 71.131 161.013 136.626 207.298 136.626"></path><path    stroke="rgba(52, 152, 72, 1.00)" stroke-width="0.5"    d="M114.727 71.131C161.013 71.131 161.013 152.89 207.298 152.89"></path><path    stroke="rgba(52, 152, 72, 1.00)" stroke-width="0.5"    d="M114.727 71.131C161.013 71.131 161.013 169.153 207.298 169.153"></path><path    stroke="rgba(52, 152, 72, 1.00)" stroke-width="0.5"    d="M114.727 71.131C161.013 71.131 161.013 185.417 207.298 185.417"></path><path    stroke="rgba(52, 152, 72, 1.00)" stroke-width="0.5"    d="M114.727 71.131C161.013 71.131 161.013 201.681 207.298 201.681"></path><path    stroke="rgba(52, 152, 72, 1.00)" stroke-width="0.5"    d="M114.727 71.131C161.013 71.131 161.013 217.944 207.298 217.944"></path><path    stroke="rgba(52, 152, 72, 1.00)" stroke-width="0.5"    d="M114.727 83.879C161.013 83.879 161.013 55.307 207.299 55.307"></path><path    stroke="rgba(52, 152, 72, 1.00)" stroke-width="0.5"    d="M114.727 83.8779C161.013 83.8779 161.013 71.571 207.299 71.571"></path><path    stroke="rgba(52, 152, 72, 1.00)" stroke-width="0.5"    d="M114.727 83.878C161.013 83.878 161.013 87.834 207.299 87.834"></path><path    stroke="rgba(52, 152, 72, 1.00)" stroke-width="0.5"    d="M114.727 83.878C161.013 83.878 161.013 104.098 207.299 104.098"></path><path    stroke="rgba(52, 152, 72, 1.00)" stroke-width="0.5"    d="M114.727 83.878C161.013 83.878 161.013 120.362 207.299 120.362"></path><path    stroke="rgba(52, 152, 72, 1.00)" stroke-width="0.5"    d="M114.727 83.878C161.013 83.878 161.013 136.625 207.299 136.625"></path><path    stroke="rgba(52, 152, 72, 1.00)" stroke-width="0.5"    d="M114.727 83.878C161.013 83.878 161.013 152.889 207.299 152.889"></path><path    stroke="rgba(52, 152, 72, 1.00)" stroke-width="0.5"    d="M114.727 83.878C161.013 83.878 161.013 169.153 207.299 169.153"></path><path    stroke="rgba(52, 152, 72, 1.00)" stroke-width="0.5"    d="M114.727 83.878C161.013 83.878 161.013 185.417 207.299 185.417"></path><path    stroke="rgba(52, 152, 72, 1.00)" stroke-width="0.5"    d="M114.727 83.878C161.013 83.878 161.013 201.68 207.299 201.68"></path><path    stroke="rgba(52, 152, 72, 1.00)" stroke-width="0.5"    d="M114.727 83.878C161.013 83.878 161.013 217.944 207.299 217.944"></path><path    stroke="rgba(52, 152, 72, 1.00)" stroke-width="0.5"    d="M114.727 96.626C161.013 96.626 161.013 55.307 207.299 55.307"></path><path    stroke="rgba(52, 152, 72, 1.00)" stroke-width="0.5"    d="M114.727 96.626C161.013 96.626 161.013 71.571 207.299 71.571"></path><path    stroke="rgba(52, 152, 72, 1.00)" stroke-width="0.5"    d="M114.727 96.625C161.013 96.625 161.013 87.834 207.299 87.834"></path><path    stroke="rgba(52, 152, 72, 1.00)" stroke-width="0.5"    d="M114.727 96.626C161.013 96.626 161.013 104.098 207.299 104.098"></path><path    stroke="rgba(52, 152, 72, 1.00)" stroke-width="0.5"    d="M114.727 96.626C161.013 96.626 161.013 120.362 207.299 120.362"></path><path    stroke="rgba(52, 152, 72, 1.00)" stroke-width="0.5"    d="M114.727 96.626C161.013 96.626 161.013 136.626 207.299 136.626"></path><path    stroke="rgba(52, 152, 72, 1.00)" stroke-width="0.5"    d="M114.727 96.626C161.013 96.626 161.013 152.89 207.299 152.89"></path><path    stroke="rgba(52, 152, 72, 1.00)" stroke-width="0.5"    d="M114.727 96.626C161.013 96.626 161.013 169.153 207.299 169.153"></path><path    stroke="rgba(52, 152, 72, 1.00)" stroke-width="0.5"    d="M114.727 96.626C161.013 96.626 161.013 185.417 207.299 185.417"></path><path    stroke="rgba(52, 152, 72, 1.00)" stroke-width="0.5"    d="M114.727 96.626C161.013 96.626 161.013 201.681 207.299 201.681"></path><path    stroke="rgba(52, 152, 72, 1.00)" stroke-width="0.5"    d="M114.727 96.626C161.013 96.626 161.013 217.945 207.299 217.945"></path><path    stroke="rgba(52, 152, 72, 1.00)" stroke-width="0.5"    d="M114.727 109.373C161.013 109.373 161.013 55.307 207.299 55.307"></path><path    stroke="rgba(52, 152, 72, 1.00)" stroke-width="0.5"    d="M114.727 109.373C161.013 109.373 161.013 71.571 207.299 71.571"></path><path    stroke="rgba(52, 152, 72, 1.00)" stroke-width="0.5"    d="M114.727 109.373C161.013 109.373 161.013 87.834 207.299 87.834"></path><path    stroke="rgba(52, 152, 72, 1.00)" stroke-width="0.5"    d="M114.727 109.373C161.013 109.373 161.013 104.098 207.299 104.098"></path><path    stroke="rgba(52, 152, 72, 1.00)" stroke-width="0.5"    d="M114.727 109.373C161.012 109.373 161.012 120.362 207.298 120.362"></path><path    stroke="rgba(52, 152, 72, 1.00)" stroke-width="0.5"    d="M114.727 109.373C161.012 109.373 161.012 136.626 207.298 136.626"></path><path    stroke="rgba(52, 152, 72, 1.00)" stroke-width="0.5"    d="M114.727 109.373C161.012 109.373 161.012 152.89 207.298 152.89"></path><path    stroke="rgba(52, 152, 72, 1.00)" stroke-width="0.5"    d="M114.727 109.373C161.012 109.373 161.012 169.153 207.298 169.153"></path><path    stroke="rgba(52, 152, 72, 1.00)" stroke-width="0.5"    d="M114.727 109.373C161.012 109.373 161.012 185.417 207.298 185.417"></path><path    stroke="rgba(52, 152, 72, 1.00)" stroke-width="0.5"    d="M114.727 109.373C161.012 109.373 161.012 201.681 207.298 201.681"></path><path    stroke="rgba(52, 152, 72, 1.00)" stroke-width="0.5"    d="M114.727 109.373C161.012 109.373 161.012 217.945 207.298 217.945"></path><path    stroke="rgba(52, 152, 72, 1.00)" stroke-width="0.5"    d="M114.727 122.12C161.013 122.12 161.013 55.307 207.299 55.307"></path><path    stroke="rgba(52, 152, 72, 1.00)" stroke-width="0.5"    d="M114.727 122.12C161.013 122.12 161.013 71.571 207.299 71.571"></path><path    stroke="rgba(52, 152, 72, 1.00)" stroke-width="0.5"    d="M114.727 122.12C161.013 122.12 161.013 87.834 207.299 87.834"></path><path    stroke="rgba(52, 152, 72, 1.00)" stroke-width="0.5"    d="M114.727 122.12C161.013 122.12 161.013 104.098 207.299 104.098"></path><path    stroke="rgba(52, 152, 72, 1.00)" stroke-width="0.5"    d="M114.728 122.12C161.013 122.12 161.013 120.362 207.299 120.362"></path><path    stroke="rgba(52, 152, 72, 1.00)" stroke-width="0.5"    d="M114.727 122.12C161.013 122.12 161.013 136.626 207.299 136.626"></path><path    stroke="rgba(52, 152, 72, 1.00)" stroke-width="0.5"    d="M114.727 122.12C161.013 122.12 161.013 152.89 207.299 152.89"></path><path    stroke="rgba(52, 152, 72, 1.00)" stroke-width="0.5"    d="M114.727 122.12C161.013 122.12 161.013 169.153 207.299 169.153"></path><path    stroke="rgba(52, 152, 72, 1.00)" stroke-width="0.5"    d="M114.727 122.12C161.013 122.12 161.013 185.417 207.299 185.417"></path><path    stroke="rgba(52, 152, 72, 1.00)" stroke-width="0.5"    d="M114.727 122.12C161.013 122.12 161.013 201.681 207.299 201.681"></path><path    stroke="rgba(52, 152, 72, 1.00)" stroke-width="0.5"    d="M114.727 122.12C161.013 122.12 161.013 217.945 207.299 217.945"></path><path    stroke="rgba(52, 152, 72, 1.00)" stroke-width="0.5"    d="M114.727 134.868C161.013 134.868 161.013 55.307 207.299 55.307"></path><path    stroke="rgba(52, 152, 72, 1.00)" stroke-width="0.5"    d="M114.727 134.867C161.013 134.867 161.013 71.571 207.299 71.571"></path><path    stroke="rgba(52, 152, 72, 1.00)" stroke-width="0.5"    d="M114.727 134.867C161.013 134.867 161.013 87.834 207.299 87.834"></path><path    stroke="rgba(52, 152, 72, 1.00)" stroke-width="0.5"    d="M114.727 134.867C161.013 134.867 161.013 104.098 207.299 104.098"></path><path    stroke="rgba(52, 152, 72, 1.00)" stroke-width="0.5"    d="M114.728 134.867C161.013 134.867 161.013 120.362 207.299 120.362"></path><path    stroke="rgba(52, 152, 72, 1.00)" stroke-width="0.5"    d="M114.727 134.867C161.013 134.867 161.013 136.626 207.299 136.626"></path><path    stroke="rgba(52, 152, 72, 1.00)" stroke-width="0.5"    d="M114.727 134.867C161.013 134.867 161.013 152.889 207.299 152.889"></path><path    stroke="rgba(52, 152, 72, 1.00)" stroke-width="0.5"    d="M114.727 134.867C161.013 134.867 161.013 169.153 207.299 169.153"></path><path    stroke="rgba(52, 152, 72, 1.00)" stroke-width="0.5"    d="M114.727 134.867C161.013 134.867 161.013 185.417 207.299 185.417"></path><path    stroke="rgba(52, 152, 72, 1.00)" stroke-width="0.5"    d="M114.727 134.867C161.013 134.867 161.013 201.681 207.299 201.681"></path><path    stroke="rgba(52, 152, 72, 1.00)" stroke-width="0.5"    d="M114.727 134.867C161.013 134.867 161.013 217.944 207.299 217.944"></path><path    stroke="rgba(52, 152, 72, 1.00)" stroke-width="0.5"    d="M114.727 147.615C161.013 147.615 161.013 55.307 207.299 55.307"></path><path    stroke="rgba(52, 152, 72, 1.00)" stroke-width="0.5"    d="M114.727 147.615C161.013 147.615 161.013 71.571 207.299 71.571"></path><path    stroke="rgba(52, 152, 72, 1.00)" stroke-width="0.5"    d="M114.727 147.614C161.013 147.614 161.013 87.834 207.299 87.834"></path><path    stroke="rgba(52, 152, 72, 1.00)" stroke-width="0.5"    d="M114.727 147.615C161.013 147.615 161.013 104.098 207.299 104.098"></path><path    stroke="rgba(52, 152, 72, 1.00)" stroke-width="0.5"    d="M114.728 147.615C161.013 147.615 161.013 120.362 207.299 120.362"></path><path    stroke="rgba(52, 152, 72, 1.00)" stroke-width="0.5"    d="M114.728 147.615C161.013 147.615 161.013 136.626 207.299 136.626"></path><path    stroke="rgba(52, 152, 72, 1.00)" stroke-width="0.5"    d="M114.727 147.615C161.013 147.615 161.013 152.89 207.298 152.89"></path><path    stroke="rgba(52, 152, 72, 1.00)" stroke-width="0.5"    d="M114.727 147.615C161.013 147.615 161.013 169.154 207.298 169.154"></path><path    stroke="rgba(52, 152, 72, 1.00)" stroke-width="0.5"    d="M114.727 147.615C161.013 147.615 161.013 185.418 207.298 185.418"></path><path    stroke="rgba(52, 152, 72, 1.00)" stroke-width="0.5"    d="M114.727 147.615C161.013 147.615 161.013 201.681 207.298 201.681"></path><path    stroke="rgba(52, 152, 72, 1.00)" stroke-width="0.5"    d="M114.727 147.615C161.013 147.615 161.013 217.945 207.298 217.945"></path><path    stroke="rgba(52, 152, 72, 1.00)" stroke-width="0.5"    d="M114.727 160.362C161.013 160.362 161.013 55.307 207.299 55.307"></path><path    stroke="rgba(52, 152, 72, 1.00)" stroke-width="0.5"    d="M114.727 160.362C161.013 160.362 161.013 71.571 207.299 71.571"></path><path    stroke="rgba(52, 152, 72, 1.00)" stroke-width="0.5"    d="M114.727 160.362C161.013 160.362 161.013 87.834 207.299 87.834"></path><path    stroke="rgba(52, 152, 72, 1.00)" stroke-width="0.5"    d="M114.727 160.362C161.013 160.362 161.013 104.098 207.299 104.098"></path><path    stroke="rgba(52, 152, 72, 1.00)" stroke-width="0.5"    d="M114.728 160.362C161.013 160.362 161.013 120.362 207.299 120.362"></path><path    stroke="rgba(52, 152, 72, 1.00)" stroke-width="0.5"    d="M114.728 160.362C161.013 160.362 161.013 136.626 207.299 136.626"></path><path    stroke="rgba(52, 152, 72, 1.00)" stroke-width="0.5"    d="M114.727 160.362C161.013 160.362 161.013 152.889 207.299 152.889"></path><path    stroke="rgba(52, 152, 72, 1.00)" stroke-width="0.5"    d="M114.728 160.362C161.013 160.362 161.013 169.153 207.299 169.153"></path><path    stroke="rgba(52, 152, 72, 1.00)" stroke-width="0.5"    d="M114.728 160.362C161.013 160.362 161.013 185.417 207.299 185.417"></path><path    stroke="rgba(52, 152, 72, 1.00)" stroke-width="0.5"    d="M114.728 160.362C161.013 160.362 161.013 201.681 207.299 201.681"></path><path    stroke="rgba(52, 152, 72, 1.00)" stroke-width="0.5"    d="M114.728 160.362C161.013 160.362 161.013 217.945 207.299 217.945"></path><path    stroke="rgba(52, 152, 72, 1.00)" stroke-width="0.5"    d="M114.727 173.109C161.013 173.109 161.013 55.307 207.299 55.307"></path><path    stroke="rgba(52, 152, 72, 1.00)" stroke-width="0.5"    d="M114.727 173.109C161.013 173.109 161.013 71.571 207.299 71.571"></path><path    stroke="rgba(52, 152, 72, 1.00)" stroke-width="0.5"    d="M114.727 173.109C161.013 173.109 161.013 87.834 207.299 87.834"></path><path    stroke="rgba(52, 152, 72, 1.00)" stroke-width="0.5"    d="M114.727 173.109C161.013 173.109 161.013 104.098 207.299 104.098"></path><path    stroke="rgba(52, 152, 72, 1.00)" stroke-width="0.5"    d="M114.728 173.109C161.013 173.109 161.013 120.362 207.299 120.362"></path><path    stroke="rgba(52, 152, 72, 1.00)" stroke-width="0.5"    d="M114.728 173.109C161.013 173.109 161.013 136.626 207.299 136.626"></path><path    stroke="rgba(52, 152, 72, 1.00)" stroke-width="0.5"    d="M114.727 173.109C161.013 173.109 161.013 152.889 207.299 152.889"></path><path    stroke="rgba(52, 152, 72, 1.00)" stroke-width="0.5"    d="M114.727 173.11C161.013 173.11 161.013 169.154 207.299 169.154"></path><path    stroke="rgba(52, 152, 72, 1.00)" stroke-width="0.5"    d="M114.727 173.109C161.013 173.109 161.013 185.417 207.299 185.417"></path><path    stroke="rgba(52, 152, 72, 1.00)" stroke-width="0.5"    d="M114.727 173.109C161.013 173.109 161.013 201.681 207.299 201.681"></path><path    stroke="rgba(52, 152, 72, 1.00)" stroke-width="0.5"    d="M114.727 173.109C161.013 173.109 161.013 217.945 207.299 217.945"></path><path    stroke="rgba(52, 152, 72, 1.00)" stroke-width="0.5"    d="M114.727 185.857C161.013 185.857 161.013 55.307 207.299 55.307"></path><path    stroke="rgba(52, 152, 72, 1.00)" stroke-width="0.5"    d="M114.727 185.856C161.013 185.856 161.013 71.571 207.299 71.571"></path><path    stroke="rgba(52, 152, 72, 1.00)" stroke-width="0.5"    d="M114.727 185.856C161.013 185.856 161.013 87.834 207.299 87.834"></path><path    stroke="rgba(52, 152, 72, 1.00)" stroke-width="0.5"    d="M114.727 185.857C161.013 185.856 161.013 104.098 207.299 104.098"></path><path    stroke="rgba(52, 152, 72, 1.00)" stroke-width="0.5"    d="M114.728 185.856C161.013 185.856 161.013 120.362 207.299 120.362"></path><path    stroke="rgba(52, 152, 72, 1.00)" stroke-width="0.5"    d="M114.728 185.857C161.013 185.857 161.013 136.626 207.299 136.626"></path><path    stroke="rgba(52, 152, 72, 1.00)" stroke-width="0.5"    d="M114.727 185.856C161.013 185.856 161.013 152.889 207.299 152.889"></path><path    stroke="rgba(52, 152, 72, 1.00)" stroke-width="0.5"    d="M114.727 185.857C161.013 185.857 161.013 169.154 207.299 169.154"></path><path    stroke="rgba(52, 152, 72, 1.00)" stroke-width="0.5"    d="M114.727 185.857C161.013 185.857 161.013 185.417 207.298 185.417"></path><path    stroke="rgba(52, 152, 72, 1.00)" stroke-width="0.5"    d="M114.727 185.857C161.013 185.857 161.013 201.681 207.298 201.681"></path><path    stroke="rgba(52, 152, 72, 1.00)" stroke-width="0.5"    d="M114.727 185.857C161.013 185.857 161.013 217.945 207.298 217.945"></path><path    stroke="rgba(52, 152, 72, 1.00)" stroke-width="0.5"    d="M114.727 198.604C161.013 198.604 161.013 55.307 207.299 55.307"></path><path    stroke="rgba(52, 152, 72, 1.00)" stroke-width="0.5"    d="M114.727 198.604C161.013 198.604 161.013 71.571 207.299 71.571"></path><path    stroke="rgba(52, 152, 72, 1.00)" stroke-width="0.5"    d="M114.727 198.604C161.013 198.604 161.013 87.834 207.299 87.834"></path><path    stroke="rgba(52, 152, 72, 1.00)" stroke-width="0.5"    d="M114.727 198.604C161.013 198.604 161.013 104.098 207.299 104.098"></path><path    stroke="rgba(52, 152, 72, 1.00)" stroke-width="0.5"    d="M114.728 198.604C161.013 198.604 161.013 120.362 207.299 120.362"></path><path    stroke="rgba(52, 152, 72, 1.00)" stroke-width="0.5"    d="M114.728 198.604C161.013 198.604 161.013 136.626 207.299 136.626"></path><path    stroke="rgba(52, 152, 72, 1.00)" stroke-width="0.5"    d="M114.727 198.604C161.013 198.604 161.013 152.889 207.299 152.889"></path><path    stroke="rgba(52, 152, 72, 1.00)" stroke-width="0.5"    d="M114.727 198.604C161.013 198.604 161.013 169.154 207.299 169.154"></path><path    stroke="rgba(52, 152, 72, 1.00)" stroke-width="0.5"    d="M114.727 198.604C161.013 198.604 161.013 185.417 207.298 185.417"></path><path    stroke="rgba(52, 152, 72, 1.00)" stroke-width="0.5"    d="M114.727 198.604C161.013 198.604 161.013 201.681 207.298 201.681"></path><path    stroke="rgba(52, 152, 72, 1.00)" stroke-width="0.5"    d="M114.727 198.604C161.013 198.604 161.013 217.945 207.298 217.945"></path><path    stroke="rgba(52, 152, 72, 1.00)" stroke-width="0.5"    d="M114.727 211.351C161.013 211.351 161.013 55.307 207.299 55.307"></path><path    stroke="rgba(52, 152, 72, 1.00)" stroke-width="0.5"    d="M114.727 211.351C161.013 211.351 161.013 71.571 207.299 71.571"></path><path    stroke="rgba(52, 152, 72, 1.00)" stroke-width="0.5"    d="M114.727 211.351C161.013 211.351 161.013 87.834 207.299 87.834"></path><path    stroke="rgba(52, 152, 72, 1.00)" stroke-width="0.5"    d="M114.727 211.351C161.013 211.351 161.013 104.098 207.299 104.098"></path><path    stroke="rgba(52, 152, 72, 1.00)" stroke-width="0.5"    d="M114.728 211.351C161.013 211.351 161.013 120.362 207.299 120.362"></path><path    stroke="rgba(52, 152, 72, 1.00)" stroke-width="0.5"    d="M114.728 211.351C161.013 211.351 161.013 136.626 207.299 136.626"></path><path    stroke="rgba(52, 152, 72, 1.00)" stroke-width="0.5"    d="M114.727 211.351C161.013 211.351 161.013 152.889 207.299 152.889"></path><path    stroke="rgba(52, 152, 72, 1.00)" stroke-width="0.5"    d="M114.727 211.352C161.013 211.352 161.013 169.154 207.299 169.154"></path><path    stroke="rgba(52, 152, 72, 1.00)" stroke-width="0.5"    d="M114.727 211.351C161.013 211.351 161.013 185.417 207.298 185.417"></path><path    stroke="rgba(52, 152, 72, 1.00)" stroke-width="0.5"    d="M114.727 211.351C161.013 211.351 161.013 201.681 207.299 201.681"></path><path    stroke="rgba(52, 152, 72, 1.00)" stroke-width="0.5"    d="M114.727 211.352C161.013 211.352 161.013 217.945 207.299 217.945"></path><path    stroke="rgba(52, 152, 72, 1.00)" stroke-width="0.5"    d="M114.727 224.098C161.013 224.098 161.013 55.307 207.299 55.307"></path><path    stroke="rgba(52, 152, 72, 1.00)" stroke-width="0.5"    d="M114.727 224.098C161.013 224.098 161.013 71.571 207.299 71.571"></path><path    stroke="rgba(52, 152, 72, 1.00)" stroke-width="0.5"    d="M114.727 224.098C161.013 224.098 161.013 87.834 207.299 87.834"></path><path    stroke="rgba(52, 152, 72, 1.00)" stroke-width="0.5"    d="M114.727 224.098C161.013 224.098 161.013 104.098 207.299 104.098"></path><path    stroke="rgba(52, 152, 72, 1.00)" stroke-width="0.5"    d="M114.728 224.098C161.013 224.098 161.013 120.362 207.299 120.362"></path><path    stroke="rgba(52, 152, 72, 1.00)" stroke-width="0.5"    d="M114.728 224.098C161.013 224.098 161.013 136.626 207.299 136.626"></path><path    stroke="rgba(52, 152, 72, 1.00)" stroke-width="0.5"    d="M114.727 224.098C161.013 224.098 161.013 152.889 207.299 152.889"></path><path    stroke="rgba(52, 152, 72, 1.00)" stroke-width="0.5"    d="M114.727 224.099C161.013 224.099 161.013 169.154 207.299 169.154"></path><path    stroke="rgba(52, 152, 72, 1.00)" stroke-width="0.5"    d="M114.727 224.098C161.013 224.098 161.013 185.417 207.298 185.417"></path><path    stroke="rgba(52, 152, 72, 1.00)" stroke-width="0.5"    d="M114.727 224.098C161.013 224.098 161.013 201.681 207.299 201.681"></path><path    stroke="rgba(52, 152, 72, 1.00)" stroke-width="0.5"    d="M114.727 224.099C161.013 224.099 161.013 217.945 207.299 217.945"></path><path    stroke="rgba(52, 152, 72, 1.00)" stroke-width="0.5"    d="M207.298 39.043C253.584 39.043 253.584 62.34 299.87 62.34"></path><path    stroke="rgba(52, 152, 72, 1.00)" stroke-width="0.5"    d="M207.298 39.043C253.584 39.043 253.584 81.241 299.87 81.241"></path><path    stroke="rgba(52, 152, 72, 1.00)" stroke-width="0.5"    d="M207.298 39.043C253.584 39.043 253.584 100.142 299.87 100.142"></path><path    stroke="rgba(52, 152, 72, 1.00)" stroke-width="0.5"    d="M207.298 39.043C253.584 39.043 253.584 119.044 299.87 119.044"></path><path    stroke="rgba(52, 152, 72, 1.00)" stroke-width="0.5"    d="M207.298 39.043C253.584 39.043 253.584 137.945 299.87 137.945"></path><path    stroke="rgba(52, 152, 72, 1.00)" stroke-width="0.5"    d="M207.298 39.043C253.584 39.043 253.584 156.846 299.87 156.846"></path><path    stroke="rgba(52, 152, 72, 1.00)" stroke-width="0.5"    d="M207.298 39.043C253.584 39.043 253.584 175.747 299.87 175.747"></path><path    stroke="rgba(52, 152, 72, 1.00)" stroke-width="0.5"    d="M207.298 39.043C253.584 39.043 253.584 194.648 299.87 194.648"></path><path    stroke="rgba(52, 152, 72, 1.00)" stroke-width="0.5"    d="M207.298 39.043C253.584 39.043 253.584 213.549 299.87 213.549"></path><path    stroke="rgba(52, 152, 72, 1.00)" stroke-width="0.5"    d="M207.298 55.307C253.584 55.307 253.584 62.34 299.87 62.34"></path><path    stroke="rgba(52, 152, 72, 1.00)" stroke-width="0.5"    d="M207.298 55.307C253.584 55.307 253.584 81.241 299.87 81.241"></path><path    stroke="rgba(52, 152, 72, 1.00)" stroke-width="0.5"    d="M207.298 55.307C253.584 55.307 253.584 100.142 299.87 100.142"></path><path    stroke="rgba(52, 152, 72, 1.00)" stroke-width="0.5"    d="M207.298 55.307C253.584 55.307 253.584 119.043 299.87 119.043"></path><path    stroke="rgba(52, 152, 72, 1.00)" stroke-width="0.5"    d="M207.298 55.307C253.584 55.307 253.584 137.945 299.87 137.945"></path><path    stroke="rgba(52, 152, 72, 1.00)" stroke-width="0.5"    d="M207.298 55.307C253.584 55.307 253.584 156.846 299.87 156.846"></path><path    stroke="rgba(52, 152, 72, 1.00)" stroke-width="0.5"    d="M207.298 55.307C253.584 55.307 253.584 175.747 299.87 175.747"></path><path    stroke="rgba(52, 152, 72, 1.00)" stroke-width="0.5"    d="M207.298 55.307C253.584 55.307 253.584 194.648 299.87 194.648"></path><path    stroke="rgba(52, 152, 72, 1.00)" stroke-width="0.5"    d="M207.298 55.307C253.584 55.307 253.584 213.549 299.87 213.549"></path><path    stroke="rgba(52, 152, 72, 1.00)" stroke-width="0.5"    d="M207.299 71.571C253.584 71.571 253.584 62.34 299.87 62.34"></path><path    stroke="rgba(52, 152, 72, 1.00)" stroke-width="0.5"    d="M207.298 71.571C253.584 71.571 253.584 81.241 299.87 81.241"></path><path    stroke="rgba(52, 152, 72, 1.00)" stroke-width="0.5"    d="M207.298 71.571C253.584 71.571 253.584 100.142 299.87 100.142"></path><path    stroke="rgba(52, 152, 72, 1.00)" stroke-width="0.5"    d="M207.298 71.571C253.584 71.571 253.584 119.044 299.87 119.044"></path><path    stroke="rgba(52, 152, 72, 1.00)" stroke-width="0.5"    d="M207.298 71.571C253.584 71.571 253.584 137.945 299.87 137.945"></path><path    stroke="rgba(52, 152, 72, 1.00)" stroke-width="0.5"    d="M207.298 71.571C253.584 71.571 253.584 156.846 299.87 156.846"></path><path    stroke="rgba(52, 152, 72, 1.00)" stroke-width="0.5"    d="M207.298 71.571C253.584 71.571 253.584 175.747 299.87 175.747"></path><path    stroke="rgba(52, 152, 72, 1.00)" stroke-width="0.5"    d="M207.298 71.571C253.584 71.571 253.584 194.648 299.87 194.648"></path><path    stroke="rgba(52, 152, 72, 1.00)" stroke-width="0.5"    d="M207.298 71.571C253.584 71.571 253.584 213.549 299.87 213.549"></path><path    stroke="rgba(52, 152, 72, 1.00)" stroke-width="0.5"    d="M207.299 87.835C253.584 87.835 253.584 62.34 299.87 62.34"></path><path    stroke="rgba(52, 152, 72, 1.00)" stroke-width="0.5"    d="M207.298 87.834C253.584 87.834 253.584 81.241 299.87 81.241"></path><path    stroke="rgba(52, 152, 72, 1.00)" stroke-width="0.5"    d="M207.298 87.834C253.584 87.834 253.584 100.142 299.87 100.142"></path><path    stroke="rgba(52, 152, 72, 1.00)" stroke-width="0.5"    d="M207.298 87.834C253.584 87.834 253.584 119.043 299.87 119.043"></path><path    stroke="rgba(52, 152, 72, 1.00)" stroke-width="0.5"    d="M207.298 87.834C253.584 87.834 253.584 137.944 299.87 137.944"></path><path    stroke="rgba(52, 152, 72, 1.00)" stroke-width="0.5"    d="M207.298 87.834C253.584 87.834 253.584 156.845 299.87 156.845"></path><path    stroke="rgba(52, 152, 72, 1.00)" stroke-width="0.5"    d="M207.298 87.834C253.584 87.834 253.584 175.747 299.87 175.747"></path><path    stroke="rgba(52, 152, 72, 1.00)" stroke-width="0.5"    d="M207.298 87.834C253.584 87.834 253.584 194.648 299.87 194.648"></path><path    stroke="rgba(52, 152, 72, 1.00)" stroke-width="0.5"    d="M207.298 87.834C253.584 87.834 253.584 213.549 299.87 213.549"></path><path    stroke="rgba(52, 152, 72, 1.00)" stroke-width="0.5"    d="M207.299 104.098C253.584 104.098 253.584 62.34 299.87 62.34"></path><path    stroke="rgba(52, 152, 72, 1.00)" stroke-width="0.5"    d="M207.298 104.098C253.584 104.098 253.584 81.241 299.87 81.241"></path><path    stroke="rgba(52, 152, 72, 1.00)" stroke-width="0.5"    d="M207.299 104.099C253.584 104.099 253.584 100.143 299.87 100.143"></path><path    stroke="rgba(52, 152, 72, 1.00)" stroke-width="0.5"    d="M207.298 104.098C253.584 104.098 253.584 119.043 299.87 119.043"></path><path    stroke="rgba(52, 152, 72, 1.00)" stroke-width="0.5"    d="M207.298 104.098C253.584 104.098 253.584 137.944 299.87 137.944"></path><path    stroke="rgba(52, 152, 72, 1.00)" stroke-width="0.5"    d="M207.298 104.098C253.584 104.098 253.584 156.845 299.87 156.845"></path><path    stroke="rgba(52, 152, 72, 1.00)" stroke-width="0.5"    d="M207.298 104.098C253.584 104.098 253.584 175.746 299.87 175.746"></path><path    stroke="rgba(52, 152, 72, 1.00)" stroke-width="0.5"    d="M207.298 104.098C253.584 104.098 253.584 194.648 299.87 194.648"></path><path    stroke="rgba(52, 152, 72, 1.00)" stroke-width="0.5"    d="M207.298 104.098C253.584 104.098 253.584 213.549 299.87 213.549"></path><path    stroke="rgba(52, 152, 72, 1.00)" stroke-width="0.5"    d="M207.299 120.362C253.584 120.362 253.584 62.34 299.87 62.34"></path><path    stroke="rgba(52, 152, 72, 1.00)" stroke-width="0.5"    d="M207.298 120.362C253.584 120.362 253.584 81.241 299.87 81.241"></path><path    stroke="rgba(52, 152, 72, 1.00)" stroke-width="0.5"    d="M207.299 120.362C253.584 120.362 253.584 100.143 299.87 100.143"></path><path    stroke="rgba(52, 152, 72, 1.00)" stroke-width="0.5"    d="M207.299 120.362C253.584 120.362 253.584 119.043 299.87 119.043"></path><path    stroke="rgba(52, 152, 72, 1.00)" stroke-width="0.5"    d="M207.299 120.362C253.584 120.362 253.584 137.944 299.87 137.944"></path><path    stroke="rgba(52, 152, 72, 1.00)" stroke-width="0.5"    d="M207.299 120.362C253.584 120.362 253.584 156.846 299.87 156.846"></path><path    stroke="rgba(52, 152, 72, 1.00)" stroke-width="0.5"    d="M207.299 120.362C253.584 120.362 253.584 175.747 299.87 175.747"></path><path    stroke="rgba(52, 152, 72, 1.00)" stroke-width="0.5"    d="M207.299 120.362C253.584 120.362 253.584 194.648 299.87 194.648"></path><path    stroke="rgba(52, 152, 72, 1.00)" stroke-width="0.5"    d="M207.299 120.362C253.584 120.362 253.584 213.549 299.87 213.549"></path><path    stroke="rgba(52, 152, 72, 1.00)" stroke-width="0.5"    d="M207.299 136.626C253.584 136.626 253.584 62.34 299.87 62.34"></path><path    stroke="rgba(52, 152, 72, 1.00)" stroke-width="0.5"    d="M207.298 136.626C253.584 136.626 253.584 81.241 299.87 81.241"></path><path    stroke="rgba(52, 152, 72, 1.00)" stroke-width="0.5"    d="M207.299 136.626C253.584 136.626 253.584 100.143 299.87 100.143"></path><path    stroke="rgba(52, 152, 72, 1.00)" stroke-width="0.5"    d="M207.299 136.626C253.584 136.626 253.584 119.043 299.87 119.043"></path><path    stroke="rgba(52, 152, 72, 1.00)" stroke-width="0.5"    d="M207.299 136.626C253.584 136.626 253.584 137.945 299.87 137.945"></path><path    stroke="rgba(52, 152, 72, 1.00)" stroke-width="0.5"    d="M207.299 136.626C253.584 136.626 253.584 156.846 299.87 156.846"></path><path    stroke="rgba(52, 152, 72, 1.00)" stroke-width="0.5"    d="M207.299 136.626C253.584 136.626 253.584 175.747 299.87 175.747"></path><path    stroke="rgba(52, 152, 72, 1.00)" stroke-width="0.5"    d="M207.299 136.626C253.584 136.626 253.584 194.648 299.87 194.648"></path><path    stroke="rgba(52, 152, 72, 1.00)" stroke-width="0.5"    d="M207.299 136.626C253.584 136.626 253.584 213.549 299.87 213.549"></path><path    stroke="rgba(52, 152, 72, 1.00)" stroke-width="0.5"    d="M207.299 152.89C253.584 152.89 253.584 62.34 299.87 62.34"></path><path    stroke="rgba(52, 152, 72, 1.00)" stroke-width="0.5"    d="M207.298 152.889C253.584 152.889 253.584 81.241 299.87 81.241"></path><path    stroke="rgba(52, 152, 72, 1.00)" stroke-width="0.5"    d="M207.299 152.89C253.584 152.89 253.584 100.143 299.87 100.143"></path><path    stroke="rgba(52, 152, 72, 1.00)" stroke-width="0.5"    d="M207.299 152.89C253.584 152.89 253.584 119.043 299.87 119.043"></path><path    stroke="rgba(52, 152, 72, 1.00)" stroke-width="0.5"    d="M207.298 152.89C253.584 152.89 253.584 137.945 299.87 137.945"></path><path    stroke="rgba(52, 152, 72, 1.00)" stroke-width="0.5"    d="M207.299 152.89C253.584 152.89 253.584 156.846 299.87 156.846"></path><path    stroke="rgba(52, 152, 72, 1.00)" stroke-width="0.5"    d="M207.299 152.89C253.584 152.89 253.584 175.747 299.87 175.747"></path><path    stroke="rgba(52, 152, 72, 1.00)" stroke-width="0.5"    d="M207.299 152.89C253.584 152.89 253.584 194.648 299.87 194.648"></path><path    stroke="rgba(52, 152, 72, 1.00)" stroke-width="0.5"    d="M207.299 152.89C253.584 152.89 253.584 213.549 299.87 213.549"></path><path    stroke="rgba(52, 152, 72, 1.00)" stroke-width="0.5"    d="M207.299 169.153C253.585 169.153 253.584 62.34 299.87 62.34"></path><path    stroke="rgba(52, 152, 72, 1.00)" stroke-width="0.5"    d="M207.298 169.153C253.584 169.153 253.584 81.241 299.87 81.241"></path><path    stroke="rgba(52, 152, 72, 1.00)" stroke-width="0.5"    d="M207.299 169.154C253.584 169.154 253.584 100.143 299.87 100.143"></path><path    stroke="rgba(52, 152, 72, 1.00)" stroke-width="0.5"    d="M207.299 169.153C253.584 169.153 253.584 119.043 299.87 119.043"></path><path    stroke="rgba(52, 152, 72, 1.00)" stroke-width="0.5"    d="M207.298 169.153C253.584 169.153 253.584 137.945 299.87 137.945"></path><path    stroke="rgba(52, 152, 72, 1.00)" stroke-width="0.5"    d="M207.299 169.154C253.585 169.154 253.585 156.846 299.87 156.846"></path><path    stroke="rgba(52, 152, 72, 1.00)" stroke-width="0.5"    d="M207.299 169.153C253.584 169.153 253.584 175.747 299.87 175.747"></path><path    stroke="rgba(52, 152, 72, 1.00)" stroke-width="0.5"    d="M207.299 169.153C253.584 169.153 253.584 194.648 299.87 194.648"></path><path    stroke="rgba(52, 152, 72, 1.00)" stroke-width="0.5"    d="M207.299 169.153C253.584 169.153 253.584 213.549 299.87 213.549"></path><path    stroke="rgba(52, 152, 72, 1.00)" stroke-width="0.5"    d="M207.299 185.417C253.584 185.417 253.584 62.34 299.87 62.34"></path><path    stroke="rgba(52, 152, 72, 1.00)" stroke-width="0.5"    d="M207.298 185.417C253.584 185.417 253.584 81.241 299.87 81.241"></path><path    stroke="rgba(52, 152, 72, 1.00)" stroke-width="0.5"    d="M207.299 185.417C253.584 185.417 253.584 100.143 299.87 100.143"></path><path    stroke="rgba(52, 152, 72, 1.00)" stroke-width="0.5"    d="M207.299 185.417C253.584 185.417 253.584 119.043 299.87 119.043"></path><path    stroke="rgba(52, 152, 72, 1.00)" stroke-width="0.5"    d="M207.298 185.417C253.584 185.417 253.584 137.945 299.87 137.945"></path><path    stroke="rgba(52, 152, 72, 1.00)" stroke-width="0.5"    d="M207.299 185.418C253.585 185.418 253.585 156.846 299.87 156.846"></path><path    stroke="rgba(52, 152, 72, 1.00)" stroke-width="0.5"    d="M207.299 185.417C253.584 185.417 253.584 175.747 299.87 175.747"></path><path    stroke="rgba(52, 152, 72, 1.00)" stroke-width="0.5"    d="M207.299 185.417C253.584 185.417 253.584 194.648 299.87 194.648"></path><path    stroke="rgba(52, 152, 72, 1.00)" stroke-width="0.5"    d="M207.299 185.417C253.584 185.417 253.584 213.549 299.87 213.549"></path><path    stroke="rgba(52, 152, 72, 1.00)" stroke-width="0.5"    d="M207.299 201.681C253.584 201.681 253.584 62.34 299.87 62.34"></path><path    stroke="rgba(52, 152, 72, 1.00)" stroke-width="0.5"    d="M207.298 201.681C253.584 201.681 253.584 81.241 299.87 81.241"></path><path    stroke="rgba(52, 152, 72, 1.00)" stroke-width="0.5"    d="M207.299 201.681C253.584 201.681 253.584 100.143 299.87 100.143"></path><path    stroke="rgba(52, 152, 72, 1.00)" stroke-width="0.5"    d="M207.299 201.681C253.584 201.681 253.584 119.043 299.87 119.043"></path><path    stroke="rgba(52, 152, 72, 1.00)" stroke-width="0.5"    d="M207.298 201.681C253.584 201.681 253.584 137.945 299.87 137.945"></path><path    stroke="rgba(52, 152, 72, 1.00)" stroke-width="0.5"    d="M207.299 201.681C253.585 201.681 253.585 156.846 299.87 156.846"></path><path    stroke="rgba(52, 152, 72, 1.00)" stroke-width="0.5"    d="M207.299 201.681C253.584 201.681 253.584 175.747 299.87 175.747"></path><path    stroke="rgba(52, 152, 72, 1.00)" stroke-width="0.5"    d="M207.298 201.681C253.584 201.681 253.584 194.648 299.87 194.648"></path><path    stroke="rgba(52, 152, 72, 1.00)" stroke-width="0.5"    d="M207.299 201.681C253.584 201.681 253.584 213.549 299.87 213.549"></path><path    stroke="rgba(52, 152, 72, 1.00)" stroke-width="0.5"    d="M207.299 217.945C253.585 217.945 253.584 62.34 299.87 62.34"></path><path    stroke="rgba(52, 152, 72, 1.00)" stroke-width="0.5"    d="M207.298 217.944C253.584 217.944 253.584 81.241 299.87 81.241"></path><path    stroke="rgba(52, 152, 72, 1.00)" stroke-width="0.5"    d="M207.299 217.945C253.584 217.945 253.584 100.143 299.87 100.143"></path><path    stroke="rgba(52, 152, 72, 1.00)" stroke-width="0.5"    d="M207.299 217.945C253.584 217.945 253.584 119.043 299.87 119.043"></path><path    stroke="rgba(52, 152, 72, 1.00)" stroke-width="0.5"    d="M207.298 217.945C253.584 217.945 253.584 137.945 299.87 137.945"></path><path    stroke="rgba(52, 152, 72, 1.00)" stroke-width="0.5"    d="M207.299 217.945C253.585 217.945 253.585 156.846 299.87 156.846"></path><path    stroke="rgba(52, 152, 72, 1.00)" stroke-width="0.5"    d="M207.299 217.944C253.584 217.944 253.584 175.747 299.87 175.747"></path><path    stroke="rgba(52, 152, 72, 1.00)" stroke-width="0.5"    d="M207.298 217.945C253.584 217.945 253.584 194.648 299.87 194.648"></path><path    stroke="rgba(52, 152, 72, 1.00)" stroke-width="0.5"    d="M207.299 217.945C253.585 217.945 253.585 213.549 299.87 213.549"></path><path    stroke="rgba(52, 152, 72, 1.00)" stroke-width="0.5"    d="M299.87 43.439C346.155 43.439 346.155 128.494 392.441 128.494"></path><path    stroke="rgba(52, 152, 72, 1.00)" stroke-width="0.5"    d="M299.87 62.34C346.155 62.34 346.155 128.494 392.441 128.494"></path><path    stroke="rgba(52, 152, 72, 1.00)" stroke-width="0.5"    d="M299.87 81.241C346.156 81.241 346.156 128.494 392.441 128.494"></path><path    stroke="rgba(52, 152, 72, 1.00)" stroke-width="0.5"    d="M299.87 100.142C346.155 100.142 346.155 128.494 392.441 128.494"></path><path    stroke="rgba(52, 152, 72, 1.00)" stroke-width="0.5"    d="M299.87 119.044C346.155 119.044 346.155 128.494 392.441 128.494"></path><path    stroke="rgba(52, 152, 72, 1.00)" stroke-width="0.5"    d="M299.87 137.945C346.156 137.945 346.156 128.494 392.441 128.494"></path><path    stroke="rgba(52, 152, 72, 1.00)" stroke-width="0.5"    d="M299.87 156.846C346.156 156.846 346.156 128.494 392.441 128.494"></path><path    stroke="rgba(52, 152, 72, 1.00)" stroke-width="0.5"    d="M299.87 175.747C346.156 175.747 346.156 128.494 392.441 128.494"></path><path    stroke="rgba(52, 152, 72, 1.00)" stroke-width="0.5"    d="M299.87 194.648C346.156 194.648 346.156 128.494 392.441 128.494"></path><path    stroke="rgba(52, 152, 72, 1.00)" stroke-width="0.5"    d="M299.87 213.55C346.156 213.55 346.156 128.494 392.441 128.494"></path><path    stroke="rgba(52, 152, 72, 1.00)" stroke-width="0.5"    d="M114.727 32.89C161.013 32.89 161.013 39.043 207.298 39.043"></path><path    stroke="rgba(52, 152, 72, 1.00)" stroke-width="0.5"    d="M114.727 45.637C161.013 45.637 161.013 39.043 207.299 39.043"></path><path    stroke="rgba(52, 152, 72, 1.00)" stroke-width="0.5"    d="M114.727 58.384C161.013 58.384 161.013 39.043 207.299 39.043"></path><path    stroke="rgba(52, 152, 72, 1.00)" stroke-width="0.5"    d="M114.727 71.131C161.013 71.131 161.013 39.043 207.299 39.043"></path><path    stroke="rgba(52, 152, 72, 1.00)" stroke-width="0.5"    d="M114.727 83.879C161.013 83.879 161.013 39.043 207.299 39.043"></path><path    stroke="rgba(52, 152, 72, 1.00)" stroke-width="0.5"    d="M114.727 96.626C161.013 96.626 161.013 39.043 207.299 39.043"></path><path    stroke="rgba(52, 152, 72, 1.00)" stroke-width="0.5"    d="M114.727 109.373C161.013 109.373 161.013 39.043 207.299 39.043"></path><path    stroke="rgba(52, 152, 72, 1.00)" stroke-width="0.5"    d="M114.727 122.12C161.013 122.12 161.013 39.043 207.299 39.043"></path><path    stroke="rgba(52, 152, 72, 1.00)" stroke-width="0.5"    d="M114.727 134.868C161.013 134.868 161.013 39.043 207.299 39.043"></path><path    stroke="rgba(52, 152, 72, 1.00)" stroke-width="0.5"    d="M114.727 147.615C161.013 147.615 161.013 39.043 207.299 39.043"></path><path    stroke="rgba(52, 152, 72, 1.00)" stroke-width="0.5"    d="M114.727 160.362C161.013 160.362 161.013 39.043 207.299 39.043"></path><path    stroke="rgba(52, 152, 72, 1.00)" stroke-width="0.5"    d="M114.727 173.11C161.013 173.109 161.013 39.043 207.299 39.043"></path><path    stroke="rgba(52, 152, 72, 1.00)" stroke-width="0.5"    d="M114.727 185.857C161.013 185.857 161.013 39.043 207.299 39.043"></path><path    stroke="rgba(52, 152, 72, 1.00)" stroke-width="0.5"    d="M114.727 198.604C161.013 198.604 161.013 39.043 207.299 39.043"></path><path    stroke="rgba(52, 152, 72, 1.00)" stroke-width="0.5"    d="M114.727 211.351C161.013 211.351 161.013 39.043 207.299 39.043"></path><path    stroke="rgba(52, 152, 72, 1.00)" stroke-width="0.5"    d="M114.727 224.098C161.013 224.098 161.013 39.043 207.299 39.043"></path><path    stroke="rgba(52, 152, 72, 1.00)" stroke-width="0.5"    d="M207.298 39.043C253.584 39.043 253.584 43.439 299.87 43.439"></path><path    stroke="rgba(52, 152, 72, 1.00)" stroke-width="0.5"    d="M207.299 55.307C253.584 55.307 253.584 43.439 299.87 43.439"></path><path    stroke="rgba(52, 152, 72, 1.00)" stroke-width="0.5"    d="M207.299 71.571C253.584 71.571 253.584 43.439 299.87 43.439"></path><path    stroke="rgba(52, 152, 72, 1.00)" stroke-width="0.5"    d="M207.299 87.835C253.584 87.835 253.584 43.439 299.87 43.439"></path><path    stroke="rgba(52, 152, 72, 1.00)" stroke-width="0.5"    d="M207.299 104.099C253.584 104.099 253.584 43.439 299.87 43.439"></path><path    stroke="rgba(52, 152, 72, 1.00)" stroke-width="0.5"    d="M207.299 120.362C253.584 120.362 253.584 43.439 299.87 43.439"></path><path    stroke="rgba(52, 152, 72, 1.00)" stroke-width="0.5"    d="M207.299 136.626C253.584 136.626 253.584 43.439 299.87 43.439"></path><path    stroke="rgba(52, 152, 72, 1.00)" stroke-width="0.5"    d="M207.299 152.89C253.584 152.89 253.584 43.439 299.87 43.439"></path><path    stroke="rgba(52, 152, 72, 1.00)" stroke-width="0.5"    d="M207.299 169.154C253.584 169.154 253.584 43.439 299.87 43.439"></path><path    stroke="rgba(52, 152, 72, 1.00)" stroke-width="0.5"    d="M207.299 185.417C253.584 185.417 253.584 43.439 299.87 43.439"></path><path    stroke="rgba(52, 152, 72, 1.00)" stroke-width="0.5"    d="M207.299 201.681C253.584 201.681 253.584 43.439 299.87 43.439"></path><path    stroke="rgba(52, 152, 72, 1.00)" stroke-width="0.5"    d="M207.299 217.945C253.584 217.945 253.584 43.439 299.87 43.439"></path><ellipse cx="114.7276023416406" cy="32.88960237128729" transform="rotate(-0.000006936905990462176 109.58474731445312 28.493988037109375)" rx="5.142855027187483" ry="4.395614334177914" stroke="rgba(51, 51, 51, 1.00)" stroke-width="1"      fill="#FFFFFF" ></ellipse><ellipse cx="114.7268699197656" cy="45.63648957831854" transform="rotate(-0.000006936905990462176 109.58401489257812 41.240875244140625)" rx="5.142855027187483" ry="4.395614334177914" stroke="rgba(51, 51, 51, 1.00)" stroke-width="1"      fill="#FFFFFF" ></ellipse><ellipse cx="114.7273582010156" cy="58.38374299628726" transform="rotate(-0.000006936905990462176 109.58450317382812 53.988128662109375)" rx="5.142855027187483" ry="4.3956143341778855" stroke="rgba(51, 51, 51, 1.00)" stroke-width="1"      fill="#FFFFFF" ></ellipse><ellipse cx="114.7273582010156" cy="71.1311184845685" transform="rotate(-0.000006936905990462176 109.58450317382812 66.73550415039062)" rx="5.142855027187483" ry="4.3956143341778855" stroke="rgba(51, 51, 51, 1.00)" stroke-width="1"      fill="#FFFFFF" ></ellipse><ellipse cx="114.72686991976565" cy="83.87872428431879" transform="rotate(-0.000008275906280250818 109.58401489257812 79.48312377929688)" rx="5.142855027187515" ry="4.395600505021924" stroke="rgba(51, 51, 51, 1.00)" stroke-width="1"      fill="#FFFFFF" ></ellipse><ellipse cx="114.72729716585937" cy="96.62567252650628" transform="rotate(-0.00000961490657003945 109.58444213867188 92.23007202148438)" rx="5.142855027187497" ry="4.395600505021899" stroke="rgba(51, 51, 51, 1.00)" stroke-width="1"      fill="#FFFFFF" ></ellipse><ellipse cx="114.72729716585937" cy="109.37249869838128" transform="rotate(-0.00000961490657003945 109.58444213867188 104.97689819335938)" rx="5.142855027187497" ry="4.395600505021899" stroke="rgba(51, 51, 51, 1.00)" stroke-width="1"      fill="#FFFFFF" ></ellipse><ellipse cx="114.72711406039062" cy="122.12085074916253" transform="rotate(-0.00000961490657003945 109.58425903320312 117.72525024414062)" rx="5.142855027187497" ry="4.395600505021899" stroke="rgba(51, 51, 51, 1.00)" stroke-width="1"      fill="#FFFFFF" ></ellipse><ellipse cx="114.72723613070312" cy="134.86767692103746" transform="rotate(-0.00000961490657003945 109.58438110351562 130.47207641601562)" rx="5.142855027187497" ry="4.395600505021842" stroke="rgba(51, 51, 51, 1.00)" stroke-width="1"      fill="#FFFFFF" ></ellipse><ellipse cx="114.72741923617187" cy="147.61493033900626" transform="rotate(-0.00000961490657003945 109.58456420898438 143.21932983398438)" rx="5.142855027187497" ry="4.395600505021899" stroke="rgba(51, 51, 51, 1.00)" stroke-width="1"      fill="#FFFFFF" ></ellipse><ellipse cx="114.72705302523437" cy="160.36200065150626" transform="rotate(-0.00000961490657003945 109.58419799804688 155.96640014648438)" rx="5.142855027187497" ry="4.395600505021899" stroke="rgba(51, 51, 51, 1.00)" stroke-width="1"      fill="#FFFFFF" ></ellipse><ellipse cx="114.72735820101562" cy="173.1098644210375" transform="rotate(-0.00000961490657003945 109.58450317382812 168.71426391601562)" rx="5.142855027187497" ry="4.395600505021899" stroke="rgba(51, 51, 51, 1.00)" stroke-width="1"      fill="#FFFFFF" ></ellipse><ellipse cx="114.72735820101587" cy="185.85711783900646" transform="rotate(-0.000019004583050865858 109.58450317382812 181.46151733398438)" rx="5.142855027187747" ry="4.395600505022087" stroke="rgba(51, 51, 51, 1.00)" stroke-width="1"      fill="#FFFFFF" ></ellipse><ellipse cx="114.72697816091942" cy="198.6036323864617" transform="rotate(-0.000011529566698067486 109.58413696289062 194.20803833007812)" rx="5.142841198028785" ry="4.39559405638358" stroke="rgba(51, 51, 51, 1.00)" stroke-width="1"      fill="#FFFFFF" ></ellipse><ellipse cx="114.72699199007806" cy="211.35125846400624" transform="rotate(-0.000004659362995051825 109.58413696289062 206.95565795898438)" rx="5.1428550271874425" ry="4.395600505021861" stroke="rgba(51, 51, 51, 1.00)" stroke-width="1"      fill="#FFFFFF" ></ellipse><ellipse cx="114.72711406039086" cy="224.09808463588146" transform="rotate(-0.00001890030075419179 109.58425903320312 219.70248413085938)" rx="5.142855027187741" ry="4.395600505022084" stroke="rgba(51, 51, 51, 1.00)" stroke-width="1"      fill="#FFFFFF" ></ellipse><ellipse cx="207.29895243929687" cy="39.043091960100035" transform="rotate(-0.00000765021005754036 202.15609741210938 34.647491455078125)" rx="5.1428550271875" ry="4.3956005050219105" stroke="rgba(51, 51, 51, 1.00)" stroke-width="1"      fill="#FFFFFF" ></ellipse><ellipse cx="207.29937968539062" cy="55.30688590541248" transform="rotate(-0.000007754493168436436 202.15652465820312 50.911285400390625)" rx="5.142855027187503" ry="4.395600505021856" stroke="rgba(51, 51, 51, 1.00)" stroke-width="1"      fill="#FFFFFF" ></ellipse><ellipse cx="207.29913554476562" cy="71.57006949916249" transform="rotate(-0.000007754493168436436 202.15628051757812 67.17446899414062)" rx="5.142855027187503" ry="4.395600505021856" stroke="rgba(51, 51, 51, 1.00)" stroke-width="1"      fill="#FFFFFF" ></ellipse><ellipse cx="207.29901347445312" cy="87.83459586635004" transform="rotate(-0.000007754493168436436 202.15615844726562 83.43899536132812)" rx="5.142855027187503" ry="4.395600505021912" stroke="rgba(51, 51, 51, 1.00)" stroke-width="1"      fill="#FFFFFF" ></ellipse><ellipse cx="207.29901347445312" cy="104.09826774134999" transform="rotate(-0.000007754493168436436 202.15615844726562 99.70266723632812)" rx="5.142855027187503" ry="4.395600505021856" stroke="rgba(51, 51, 51, 1.00)" stroke-width="1"      fill="#FFFFFF" ></ellipse><ellipse cx="207.29876933382812" cy="120.36230582728749" transform="rotate(-0.000007754493168436436 202.15591430664062 115.96670532226562)" rx="5.142855027187503" ry="4.395600505021856" stroke="rgba(51, 51, 51, 1.00)" stroke-width="1"      fill="#FFFFFF" ></ellipse><ellipse cx="207.29858622835937" cy="136.6259166671313" transform="rotate(-0.000007754493168436436 202.15573120117188 132.23031616210938)" rx="5.142855027187503" ry="4.395600505021912" stroke="rgba(51, 51, 51, 1.00)" stroke-width="1"      fill="#FFFFFF" ></ellipse><ellipse cx="207.29864726351562" cy="152.88977164759999" transform="rotate(-0.000007754493168436436 202.15579223632812 148.49417114257812)" rx="5.142855027187503" ry="4.395600505021856" stroke="rgba(51, 51, 51, 1.00)" stroke-width="1"      fill="#FFFFFF" ></ellipse><ellipse cx="207.29895243929687" cy="169.15326041713124" transform="rotate(-0.000007754493168436436 202.15609741210938 164.75765991210938)" rx="5.142855027187503" ry="4.395600505021856" stroke="rgba(51, 51, 51, 1.00)" stroke-width="1"      fill="#FFFFFF" ></ellipse><ellipse cx="207.29901347445312" cy="185.41754264369374" transform="rotate(-0.000007754493168436436 202.15615844726562 181.02194213867188)" rx="5.142855027187503" ry="4.395600505021856" stroke="rgba(51, 51, 51, 1.00)" stroke-width="1"      fill="#FFFFFF" ></ellipse><ellipse cx="207.29870829867187" cy="201.6802379561938" transform="rotate(-0.000007754493168436436 202.15585327148438 197.28463745117188)" rx="5.142855027187503" ry="4.395600505021912" stroke="rgba(51, 51, 51, 1.00)" stroke-width="1"      fill="#FFFFFF" ></ellipse><ellipse cx="207.29876933382812" cy="217.94464225306874" transform="rotate(-0.000007754493168436436 202.15591430664062 213.54904174804688)" rx="5.142855027187503" ry="4.395600505021856" stroke="rgba(51, 51, 51, 1.00)" stroke-width="1"      fill="#FFFFFF" ></ellipse><ellipse cx="299.8696921853907" cy="43.43878287806876" transform="rotate(-0.000007754493168436436 294.7268371582031 39.043182373046875)" rx="5.14285502718756" ry="4.395600505021885" stroke="rgba(51, 51, 51, 1.00)" stroke-width="1"      fill="#FFFFFF" ></ellipse><ellipse cx="299.8700583963282" cy="62.340516276506285" transform="rotate(-0.000007754493168436436 294.7272033691406 57.944915771484375)" rx="5.14285502718756" ry="4.395600505021912" stroke="rgba(51, 51, 51, 1.00)" stroke-width="1"      fill="#FFFFFF" ></ellipse><ellipse cx="299.8694480447657" cy="81.24115104213124" transform="rotate(-0.000007754493168436436 294.7265930175781 76.84555053710938)" rx="5.14285502718756" ry="4.395600505021856" stroke="rgba(51, 51, 51, 1.00)" stroke-width="1"      fill="#FFFFFF" ></ellipse><ellipse cx="299.8698142557032" cy="100.14190787806879" transform="rotate(-0.000007754493168436436 294.7269592285156 95.74630737304688)" rx="5.14285502718756" ry="4.395600505021912" stroke="rgba(51, 51, 51, 1.00)" stroke-width="1"      fill="#FFFFFF" ></ellipse><ellipse cx="299.86975322054695" cy="119.04351920619374" transform="rotate(-0.000007754493168436436 294.7268981933594 114.64791870117188)" rx="5.14285502718756" ry="4.395600505021856" stroke="rgba(51, 51, 51, 1.00)" stroke-width="1"      fill="#FFFFFF" ></ellipse><ellipse cx="299.8698142557032" cy="137.9446422530688" transform="rotate(-0.000007754493168436436 294.7269592285156 133.54904174804688)" rx="5.14285502718756" ry="4.395600505021912" stroke="rgba(51, 51, 51, 1.00)" stroke-width="1"      fill="#FFFFFF" ></ellipse><ellipse cx="299.86999736117195" cy="156.84521598353749" transform="rotate(-0.000007754493168436436 294.7271423339844 152.44961547851562)" rx="5.14285502718756" ry="4.395600505021856" stroke="rgba(51, 51, 51, 1.00)" stroke-width="1"      fill="#FFFFFF" ></ellipse><ellipse cx="299.8696921853907" cy="175.7474986983813" transform="rotate(-0.000007754493168436436 294.7268371582031 171.35189819335938)" rx="5.14285502718756" ry="4.395600505021912" stroke="rgba(51, 51, 51, 1.00)" stroke-width="1"      fill="#FFFFFF" ></ellipse><ellipse cx="299.8698142557032" cy="194.64788932338124" transform="rotate(-0.000007754493168436436 294.7269592285156 190.25228881835938)" rx="5.14285502718756" ry="4.395600505021856" stroke="rgba(51, 51, 51, 1.00)" stroke-width="1"      fill="#FFFFFF" ></ellipse><ellipse cx="299.86963115023445" cy="213.5485240890063" transform="rotate(-0.000007754493168436436 294.7267761230469 209.15292358398438)" rx="5.14285502718756" ry="4.395600505021912" stroke="rgba(51, 51, 51, 1.00)" stroke-width="1"      fill="#FFFFFF" ></ellipse><ellipse cx="392.4414084939844" cy="128.49377555384999" transform="rotate(-0.000007754493168436436 387.2985534667969 124.09817504882812)" rx="5.142855027187503" ry="4.395600505021856" stroke="rgba(51, 51, 51, 1.00)" stroke-width="1"      fill="#FFFFFF" ></ellipse></g><defs><filter id="filter_D7IbU996B4Jao2TD_0Ya3" x="0" y="0" width="482" height="265" filterUnits="userSpaceOnUse" color-interpolation-filters="sRGB"><feFlood flood-opacity="0" result="feFloodId_D7IbU996B4Jao2TD_0Ya3"/><feColorMatrix in="SourceAlpha" type="matrix" values="0 0 0 0 0 0 0 0 0 0 0 0 0 0 0 0 0 0 127 0" result="hardAlpha_D7IbU996B4Jao2TD_0Ya3"/><feOffset dx="0" dy="2"/><feGaussianBlur stdDeviation="2"/><feComposite in2="hardAlpha_D7IbU996B4Jao2TD_0Ya3" operator="out"/><feColorMatrix type="matrix" values="0 0 0 0 0 0 0 0 0 0 0 0 0 0 0 0 0 0 0.25 0"/><feBlend mode="normal" in2="feFloodId_D7IbU996B4Jao2TD_0Ya3" result="dropShadow_1_D7IbU996B4Jao2TD_0Ya3"/><feBlend mode="normal" in="SourceGraphic" in2="dropShadow_1_D7IbU996B4Jao2TD_0Ya3" result="shape_D7IbU996B4Jao2TD_0Ya3"/></filter><filter id="filter_9AI3cvzps6v3Yz7uOYfOT" x="154.58401489257812" y="55.493988037109375" width="178" height="65" filterUnits="userSpaceOnUse" color-interpolation-filters="sRGB"><feFlood flood-opacity="0" result="feFloodId_9AI3cvzps6v3Yz7uOYfOT"/><feColorMatrix in="SourceAlpha" type="matrix" values="0 0 0 0 0 0 0 0 0 0 0 0 0 0 0 0 0 0 127 0" result="hardAlpha_9AI3cvzps6v3Yz7uOYfOT"/><feOffset dx="0" dy="4"/><feGaussianBlur stdDeviation="5"/><feComposite in2="hardAlpha_9AI3cvzps6v3Yz7uOYfOT" operator="out"/><feColorMatrix type="matrix" values="0 0 0 0 0 0 0 0 0 0 0 0 0 0 0 0 0 0 0.3 0"/><feBlend mode="normal" in2="feFloodId_9AI3cvzps6v3Yz7uOYfOT" result="dropShadow_1_9AI3cvzps6v3Yz7uOYfOT"/><feBlend mode="normal" in="SourceGraphic" in2="dropShadow_1_9AI3cvzps6v3Yz7uOYfOT" result="shape_9AI3cvzps6v3Yz7uOYfOT"/></filter><filter id="filter_ODymulIdksqDAfLH2jdtM" x="141.58401489257812" y="117.49398803710938" width="218" height="61" filterUnits="userSpaceOnUse" color-interpolation-filters="sRGB"><feFlood flood-opacity="0" result="feFloodId_ODymulIdksqDAfLH2jdtM"/><feColorMatrix in="SourceAlpha" type="matrix" values="0 0 0 0 0 0 0 0 0 0 0 0 0 0 0 0 0 0 127 0" result="hardAlpha_ODymulIdksqDAfLH2jdtM"/><feOffset dx="0" dy="4"/><feGaussianBlur stdDeviation="5"/><feComposite in2="hardAlpha_ODymulIdksqDAfLH2jdtM" operator="out"/><feColorMatrix type="matrix" values="0 0 0 0 0 0 0 0 0 0 0 0 0 0 0 0 0 0 0.3 0"/><feBlend mode="normal" in2="feFloodId_ODymulIdksqDAfLH2jdtM" result="dropShadow_1_ODymulIdksqDAfLH2jdtM"/><feBlend mode="normal" in="SourceGraphic" in2="dropShadow_1_ODymulIdksqDAfLH2jdtM" result="shape_ODymulIdksqDAfLH2jdtM"/></filter></defs></svg>