<svg
   width="600"
   height="300"
   version="1.1"
   id="svg10"
   xmlns:xlink="http://www.w3.org/1999/xlink"
   xmlns="http://www.w3.org/2000/svg"
   xmlns:svg="http://www.w3.org/2000/svg">
  <defs
     id="defs10">
    <radialGradient
       xlink:href="#linearGradient5"
       id="radialGradient6"
       cx="51.79702"
       cy="39.450672"
       fx="51.79702"
       fy="39.450672"
       r="58.128956"
       gradientTransform="matrix(1.3617194,0,0,1.3495528,-15.804202,-8.2099895)"
       gradientUnits="userSpaceOnUse" />
    <linearGradient
       id="linearGradient5">
      <stop
         style="stop-color:#ffc7a6;stop-opacity:0.80000001;"
         offset="0"
         id="stop5" />
      <stop
         style="stop-color:#ff8e4c;stop-opacity:0.80000001;"
         offset="1"
         id="stop6" />
    </linearGradient>
    <radialGradient
       xlink:href="#linearGradient3"
       id="radialGradient4"
       cx="80"
       cy="50"
       fx="80"
       fy="50"
       r="25"
       gradientUnits="userSpaceOnUse"
       gradientTransform="matrix(1.5204505,0,0,1.5202909,-42.093058,-23.328394)" />
    <linearGradient
       id="linearGradient3">
      <stop
         style="stop-color:#ffffff;stop-opacity:1;"
         offset="0.29274613"
         id="stop3" />
      <stop
         style="stop-color:#ffffff;stop-opacity:0;"
         offset="1"
         id="stop4" />
    </linearGradient>
  </defs>
  <path
     fill="#0fbd8c"
     d="M 0,0 H 600 V 300 H 0 Z"
     style="fill:#ff8e4c;fill-opacity:1;stroke-width:0.898027"
     id="path1" />
  <path
     fill="#ffd641"
     d="m -8.422523e-5,150.00081 c 0,-165.686195 134.31519422523,-300.00139 300.00139422523,-300.00139 165.68619,0 300.00139,134.315195 300.00139,300.00139 0,165.68619 -134.3152,300.00139 -300.00139,300.00139 C 134.31511,450.0022 -8.422523e-5,315.687 -8.422523e-5,150.00081 Z"
     style="fill:#ffb878;fill-opacity:1;fill-rule:nonzero;stroke-width:0.93943;stroke-linecap:butt;stroke-linejoin:miter;stroke-miterlimit:10;stroke-dasharray:none;stroke-dashoffset:0"
     id="path2" />
  <path
     fill="#ffc800"
     d="m 37.10739,150.00081 c 0,-145.1922913 117.70161,-262.89392 262.89392,-262.89392 145.19229,0 262.89391,117.7016184 262.89391,262.89392 0,145.19229 -117.70162,262.89391 -262.89391,262.89391 -145.1923,0 -262.893911,-117.70161 -262.893911,-262.89391 z"
     style="fill:#ff8e4c;fill-opacity:1;fill-rule:nonzero;stroke-width:0.93943;stroke-linecap:butt;stroke-linejoin:miter;stroke-miterlimit:10;stroke-dasharray:none;stroke-dashoffset:0"
     id="path3" />
  <path
     fill="#ffd641"
     d="m 74.684594,150.00081 c 0,-124.438987 100.877726,-225.316718 225.316726,-225.316718 124.43898,0 225.3167,100.877731 225.3167,225.316718 0,124.43898 -100.87773,225.31671 -225.3167,225.31671 -124.439,0 -225.316726,-100.87773 -225.316726,-225.31671 z"
     style="fill:#ffb878;fill-opacity:1;fill-rule:nonzero;stroke-width:0.93943;stroke-linecap:butt;stroke-linejoin:miter;stroke-miterlimit:10;stroke-dasharray:none;stroke-dashoffset:0"
     id="path4" />
  <path
     fill="#ffc800"
     d="m 112.73151,150.0008 c 0,-103.426247 83.84353,-187.269793 187.2698,-187.269793 103.42625,0 187.2698,83.843546 187.2698,187.269803 0,103.42625 -83.84355,187.2698 -187.26979,187.2698 -103.42626,0 -187.26979,-83.84355 -187.26979,-187.26979 z"
     style="fill:#ff8e4c;fill-opacity:1;fill-rule:nonzero;stroke-width:0.93943;stroke-linecap:butt;stroke-linejoin:miter;stroke-miterlimit:10;stroke-dasharray:none;stroke-dashoffset:0"
     id="path5" />
  <path
     fill="#ffd641"
     d="m 149.60413,150.0008 c 0,-83.062057 67.33512,-150.397165 150.39718,-150.397165 83.06206,0 150.39717,67.335117 150.39717,150.397175 0,83.06206 -67.33511,150.39717 -150.39716,150.39717 -83.06207,0 -150.39718,-67.33511 -150.39718,-150.39716 z"
     style="fill:#ffb878;fill-opacity:1;fill-rule:nonzero;stroke-width:0.93943;stroke-linecap:butt;stroke-linejoin:miter;stroke-miterlimit:10;stroke-dasharray:none;stroke-dashoffset:0"
     id="path6" />
  <path
     fill="#ffc800"
     d="m 187.88591,150.0008 c 0,-61.919616 50.19577,-112.115393 112.11541,-112.115393 61.91961,0 112.1154,50.195777 112.1154,112.115403 0,61.91962 -50.19578,112.1154 -112.11539,112.1154 -61.91962,0 -112.1154,-50.19577 -112.1154,-112.11539 z"
     style="fill:#ff8e4c;fill-opacity:1;fill-rule:nonzero;stroke-width:0.93943;stroke-linecap:butt;stroke-linejoin:miter;stroke-miterlimit:10;stroke-dasharray:none;stroke-dashoffset:0"
     id="path7" />
  <path
     fill="#ffd641"
     d="m 224.75853,150.0008 c 0,-41.55543 33.68734,-75.242762 75.24278,-75.242762 41.55543,0 75.24277,33.687332 75.24277,75.242772 0,41.55543 -33.68733,75.24277 -75.24276,75.24277 -41.55544,0 -75.24277,-33.68733 -75.24277,-75.24276 z"
     style="fill:#ffb878;fill-opacity:1;fill-rule:nonzero;stroke-width:0.93943;stroke-linecap:butt;stroke-linejoin:miter;stroke-miterlimit:10;stroke-dasharray:none;stroke-dashoffset:0"
     id="path8" />
  <path
     fill="#ffc800"
     d="m 262.49231,150.00081 c 0,-20.71564 16.79335,-37.509 37.509,-37.509 20.71564,0 37.50899,16.79336 37.50899,37.509 0,20.71564 -16.79335,37.509 -37.50899,37.509 -20.71565,0 -37.509,-16.79336 -37.509,-37.509 z"
     style="fill:#ff8e4c;fill-opacity:1;fill-rule:nonzero;stroke-width:0.93943;stroke-linecap:butt;stroke-linejoin:miter;stroke-miterlimit:10;stroke-dasharray:none;stroke-dashoffset:0"
     id="path9" />
  <g
     id="g19"
     transform="matrix(0.20862311,-2.0997367,2.0995541,0.20851042,210.88259,306.56094)"
     style="stroke-width:0.987372">
    <path
       id="path17"
       style="fill:#800000;fill-opacity:1;stroke:#400000;stroke-width:1.97472;stroke-linecap:round;stroke-opacity:1"
       d="m 69.408029,78.204659 c 0,0.203822 -11.852371,-1.48888 -11.852371,-1.48888 0,0 0.2223,-1.137687 0.401801,-1.664276 0.137949,-0.404691 -0.933385,-2.317026 -0.933385,-2.317026 0,0 1.859178,0.386513 2.115913,0.04307 1.086589,-1.453532 2.605877,-2.356419 4.287205,-2.356419 0.528155,0 3.061361,-0.432954 3.061361,-0.432954 0,0 -0.574187,1.106213 -0.140451,1.422728 1.825939,1.332464 3.059927,3.875563 3.059927,6.793746 z" />
    <path
       style="fill:#ff8f4d;fill-opacity:1;stroke:#804726;stroke-width:1.97472;stroke-linecap:round;stroke-linejoin:miter;stroke-dasharray:none;stroke-opacity:1"
       d="m 71.109305,79.739833 c 0,0 4.975469,5.640105 5.870976,9.152209 0.454043,1.780719 1.285894,4.747056 -0.391365,5.499171 -2.513774,1.127235 -6.546562,-5.043207 -6.546562,-5.043207 0,0 2.645871,9.143094 1.377444,13.477344 -0.403581,1.37906 -1.24428,3.35496 -2.681167,3.37596 -1.470122,0.0215 -2.239048,-2.03188 -2.842946,-3.37241 -1.16668,-2.5898 -1.240604,-8.430586 -1.240604,-8.430586 0,0 0.624126,6.014306 -0.424059,8.734116 -0.52648,1.3661 -1.325652,3.49653 -2.786185,3.39527 -1.54125,-0.10686 -2.099987,-2.44243 -2.417583,-3.95438 -0.636578,-3.030507 1.247058,-9.205852 1.247058,-9.205852 0,0 -1.246918,6.757042 -3.267598,9.379792 -0.835321,1.08421 -2.118765,2.76349 -3.404762,2.295 -1.545315,-0.56296 -1.54524,-3.10918 -1.3587,-4.74323 0.37189,-3.257664 4.77025,-8.602371 4.77025,-8.602371 0,0 -2.576661,3.855248 -4.456799,5.109293 -1.334446,0.890069 -3.249372,2.447257 -4.563357,1.52725 -1.184417,-0.829288 -0.558069,-2.960323 -0.113473,-4.336149 0.724344,-2.241526 3.205591,-3.526129 4.284,-5.620443 1.991864,-3.868284 3.069604,-7.190548 3.85434,-12.470941 l 14.846524,0.589801 z"
       id="path18" />
    <path
       id="path19"
       style="fill:#b26436;fill-opacity:1;stroke:#59321a;stroke-width:1.97472;stroke-linecap:round;stroke-opacity:1"
       d="m 59.193062,80.953821 7.993755,0.31603 c 1.107135,0.04377 1.963201,0.970312 1.919431,2.077447 l -0.07901,1.998439 c -0.04377,1.107135 -0.970311,1.963202 -2.077447,1.919432 l -7.993755,-0.31603 c -1.107135,-0.04377 -1.963201,-0.970312 -1.919431,-2.077447 l 0.07901,-1.998439 c 0.04377,-1.107135 0.970311,-1.963202 2.077447,-1.919432 z" />
  </g>
  <path
     fill="#fff"
     d="m 460.54309,161.51901 c -23.03677,0 -26.10859,13.82255 -26.10859,23.03677 0,9.21495 1.53578,16.89437 1.53578,26.10859 1.53579,9.21496 1.53579,18.42967 1.53579,26.10859 0,33.78875 -21.50148,46.07479 -52.21842,46.07479 H 373.001 v -26.10859 h 6.14326 c 15.35786,0 19.9662,-9.21496 19.9662,-24.5733 0,-6.14326 0,-12.28665 -1.53579,-18.42967 0,-7.67917 -1.53578,-15.35786 -1.53578,-23.03678 0,-26.10859 10.75074,-35.32404 29.18041,-39.93115 -18.42967,-4.60748 -29.18041,-13.82256 -29.18041,-39.93115 0,-9.21496 1.53578,-16.894377 1.53578,-23.038014 1.53579,-7.679166 1.53579,-13.822549 1.53579,-19.966185 0,-15.357853 -6.14327,-23.038002 -19.9662,-24.57329 H 373.001 V 14.079199 h 12.28665 c 32.25222,0 52.21842,13.822564 52.21842,46.074781 0,9.214957 -1.53579,16.894385 -1.53579,26.108601 -1.53578,9.214958 -1.53578,18.429669 -1.53578,26.108589 0,10.75073 3.07169,23.03801 26.10859,23.03801 z"
     id="path12"
     style="fill:#ffffff;fill-opacity:1" />
  <g
     id="g20"
     transform="matrix(2.0833331,0,0,2.0833331,175,36.818127)">
    <path
       id="circle1"
       style="fill:url(#radialGradient6);stroke:#804726;stroke-width:1.97471;stroke-linecap:round;stroke-linejoin:miter;stroke-opacity:0.8"
       d="m 120.5542,49.155814 c 0,22.719228 -18.12376,41.205864 -40.70361,41.793586 -0.368417,0.0097 -1.108754,0.01443 -1.108754,0.01443 0,0 2.371786,-3.117156 0.276674,-5.555038 -2.095113,-2.437889 -11.444823,-2.890953 -13.655091,-1.387748 -2.210267,1.503204 0.555953,4.713025 0.555953,4.713025 0,0 -13.188078,-5.2354 -18.671577,-8.409971 -2.972004,-1.720595 -2.399964,-4.899939 -4.9643,-7.326065 -2.56434,-2.426125 -10.45847,-6.201435 -10.45847,-6.201435 0,0 12.070932,0.736288 11.984901,-13.139872 -0.02546,-4.103823 -8.726216,-7.911781 -8.726216,-7.911781 0,0 1.377149,-7.03655 -7.679082,-10.924138 -9.056232,-3.887584 -13.927728,4.944965 -13.927728,4.944965 0,0 -7.914023,-22.810847 -8.4769005,-37.4855959 0,0 16.2894085,14.1237679 26.5381765,15.3290369 10.248771,1.205271 9.39713,11.607489 19.226593,8.262554 9.829471,-3.344928 5.83805,-13.354071 5.83805,-13.354071 0,0 14.965245,0.483504 17.822733,0.158792 5.280864,-0.600096 -1.8162,-4.9029873 -1.8162,-4.9029873 0,0 4.484386,-0.4256874 6.132484,-0.4256874 23.092324,0 41.812364,18.7180827 41.812364,41.8080037 z"
       transform="matrix(1.0128412,0,0,1.012738,-3.102279,-0.04275547)" />
    <path
       id="path5-4"
       style="fill:#ffa570;fill-opacity:0.8;stroke:#804726;stroke-width:1.97471;stroke-linecap:round;stroke-opacity:0.8"
       d="m 47.41963,11.976391 -8.264886,0.351855 c 0,0 -4.156026,-3.4668565 -6.248922,-4.8405829 C 30.81292,6.113937 26.669495,4.0596206 26.669495,4.0596206 L 37.220412,1.4206975 c 0,0 2.260281,3.8681197 3.950585,5.7205474 1.6903,1.8524276 6.248633,4.8351461 6.248633,4.8351461 z"
       transform="matrix(1.0128412,0,0,1.012738,-3.102279,-0.04275547)" />
    <path
       id="path6-8"
       style="fill:#ffb082;fill-opacity:0.8;stroke:#804726;stroke-width:1.97471;stroke-linecap:round;stroke-opacity:0.8"
       d="m 6.4643903,50.317511 c 0,0 8.7008267,-0.238468 12.0369877,-1.84571 3.336164,-1.607237 7.375832,-6.813208 7.375832,-6.813208 0,0 -1.88314,7.942218 -0.541915,9.275977 1.341226,1.333763 6.790163,0.869938 6.790163,0.869938 l -0.823766,8.902108 c 0,0 -3.920472,-1.836294 -5.950751,-1.439609 -2.030283,0.396687 -5.10679,3.671146 -5.10679,3.671146 0,0 -3.914503,-4.642295 -6.052401,-6.949725 -2.137904,-2.307431 -7.7273597,-5.670917 -7.7273597,-5.670917 z"
       transform="matrix(1.0128412,0,0,1.012738,-3.102279,-0.04275547)" />
    <path
       id="path7-8"
       style="fill:#ffb082;fill-opacity:0.8;stroke:#804726;stroke-width:1.97471;stroke-linecap:round;stroke-opacity:0.8"
       d="M 68.065489,2.6533376 63.881393,4.423614 60.681785,1.4731533 64.742827,1.2764558 Z"
       transform="matrix(1.0128412,0,0,1.012738,-3.102279,-0.04275547)" />
    <path
       id="path8-2"
       style="fill:#ffb082;fill-opacity:0.8;stroke:#804726;stroke-width:1.97471;stroke-linecap:round;stroke-opacity:0.8"
       d="m 36.587281,85.076952 3.89793,-2.333708 3.578123,2.47795 -3.994451,0.758284 z"
       transform="matrix(1.0128412,0,0,1.012738,-3.102279,-0.04275547)" />
    <g
       id="g11"
       transform="matrix(1.0128412,0,0,1.012738,-3.102279,-0.04275547)"
       style="stroke-width:0.987372" />
    <path
       id="path11"
       style="fill:#800000;fill-opacity:0.75;stroke:#400000;stroke-width:2;stroke-linecap:round;stroke-opacity:0.75"
       d="m 98.801999,52.686157 c 0,0.50427 3.084461,0.870212 3.084461,0.870212 0,0 -3.734378,4.454571 -4.424628,6.201734 -0.914807,2.315547 -2.265559,4.411309 -3.951088,6.18612 -0.719416,0.757523 1.706243,6.038707 1.706243,6.038707 0,0 -5.614039,-2.844065 -6.462282,-2.381252 -2.736358,1.492995 -5.874952,2.3415 -9.211744,2.3415 -1.302089,0 -7.753417,1.599209 -7.753417,1.599209 0,0 1.588256,-2.567488 0.479304,-3.020123 -1.962618,-0.801069 -3.763446,-1.91659 -5.339873,-3.283959 -1.026784,-0.890613 -6.457962,1.782174 -6.457962,1.782174 0,0 2.257589,-6.851165 1.705182,-7.999905 -0.680427,-1.414954 -1.192981,-2.925871 -1.511855,-4.506928 -0.249488,-1.237011 -4.330236,-1.673266 -4.330236,-1.673266 0,0 4.070799,-4.645537 4.301786,-5.837828 0.278159,-1.435811 0.715836,-2.814717 1.293853,-4.117545 0.44421,-1.001234 -3.005615,-5.732495 -3.005615,-5.732495 0,0 5.986787,0.956265 6.813504,0.106581 3.498947,-3.596148 8.391247,-5.829958 13.805329,-5.829958 1.700728,0 9.857967,-1.071162 9.857967,-1.071162 0,0 -1.848953,2.736859 -0.452271,3.51994 5.879747,3.296611 9.853342,9.588436 9.853342,16.808244 z" />
    <path
       id="circle3"
       style="fill:url(#radialGradient4);stroke-width:0;stroke-linecap:round"
       d="M 117.5542,52.686155 A 38.011255,38.007277 0 0 1 79.542961,90.693427 38.011255,38.007277 0 0 1 41.531706,52.686155 38.011255,38.007277 0 0 1 79.542961,14.678875 38.011255,38.007277 0 0 1 117.5542,52.686155 Z" />
    <path
       id="path9-4"
       style="fill:#ffffff;stroke:#808080;stroke-width:2;stroke-linecap:round"
       d="m 74.370203,40.523825 a 6.5886179,11.655566 0 0 1 -6.588616,11.655566 6.5886179,11.655566 0 0 1 -6.58862,-11.655566 6.5886179,11.655566 0 0 1 6.58862,-11.655564 6.5886179,11.655566 0 0 1 6.588616,11.655564 z" />
    <path
       id="ellipse9"
       style="fill:#ffffff;stroke:#808080;stroke-width:2;stroke-linecap:round"
       d="m 98.697405,40.523825 a 6.5886179,11.655566 0 0 1 -6.58862,11.655566 6.5886179,11.655566 0 0 1 -6.588614,-11.655566 6.5886179,11.655566 0 0 1 6.588614,-11.655564 6.5886179,11.655566 0 0 1 6.58862,11.655564 z" />
    <path
       style="fill:#ffffff;fill-opacity:1;stroke:#808080;stroke-width:2;stroke-linecap:round;stroke-dasharray:none;stroke-opacity:1"
       d="m 74.172408,66.30767 19.108189,-5.003752 -3.20767,-1.972531 9.611737,-0.06086 c 0.519436,6.825832 -3.903027,8.89597 -6.485861,10.355568 -2.582836,1.459599 -11.255809,1.736196 -11.255809,1.736196 l -4.790515,3.772146 -0.573707,-6.244755 z"
       id="path10-5" />
    <g
       id="g16"
       transform="matrix(1.0128412,0,0,1.012738,-3.102279,-0.31292868)"
       style="stroke-width:0.987372">
      <path
         id="path16"
         style="fill:#800000;fill-opacity:1;stroke:#400000;stroke-width:1.97472;stroke-linecap:round;stroke-opacity:1"
         d="m 69.408029,78.204659 c 0,0.203822 -11.852371,-1.48888 -11.852371,-1.48888 0,0 0.2223,-1.137687 0.401801,-1.664276 0.137949,-0.404691 -0.933385,-2.317026 -0.933385,-2.317026 0,0 1.859178,0.386513 2.115913,0.04307 1.086589,-1.453532 2.605877,-2.356419 4.287205,-2.356419 0.528155,0 3.061361,-0.432954 3.061361,-0.432954 0,0 -0.574187,1.106213 -0.140451,1.422728 1.825939,1.332464 3.059927,3.875563 3.059927,6.793746 z" />
      <path
         style="fill:#ff8f4d;fill-opacity:1;stroke:#804726;stroke-width:1.97472;stroke-linecap:round;stroke-linejoin:miter;stroke-dasharray:none;stroke-opacity:1"
         d="m 71.109305,79.739833 c 0,0 4.975469,5.640105 5.870976,9.152209 0.454043,1.780719 1.285894,4.747056 -0.391365,5.499171 -2.513774,1.127235 -6.546562,-5.043207 -6.546562,-5.043207 0,0 2.645871,9.143094 1.377444,13.477344 -0.403581,1.37906 -1.24428,3.35496 -2.681167,3.37596 -1.470122,0.0215 -2.239048,-2.03188 -2.842946,-3.37241 -1.16668,-2.5898 -1.240604,-8.430586 -1.240604,-8.430586 0,0 0.624126,6.014306 -0.424059,8.734116 -0.52648,1.3661 -1.325652,3.49653 -2.786185,3.39527 -1.54125,-0.10686 -2.099987,-2.44243 -2.417583,-3.95438 -0.636578,-3.030507 1.247058,-9.205852 1.247058,-9.205852 0,0 -1.246918,6.757042 -3.267598,9.379792 -0.835321,1.08421 -2.118765,2.76349 -3.404762,2.295 -1.545315,-0.56296 -1.54524,-3.10918 -1.3587,-4.74323 0.37189,-3.257664 4.77025,-8.602371 4.77025,-8.602371 0,0 -2.576661,3.855248 -4.456799,5.109293 -1.334446,0.890069 -3.249372,2.447257 -4.563357,1.52725 -1.184417,-0.829288 -0.558069,-2.960323 -0.113473,-4.336149 0.724344,-2.241526 3.205591,-3.526129 4.284,-5.620443 1.991864,-3.868284 3.069604,-7.190548 3.85434,-12.470941 l 14.846524,0.589801 z"
         id="path15" />
      <path
         id="rect16"
         style="fill:#b26436;fill-opacity:1;stroke:#59321a;stroke-width:1.97472;stroke-linecap:round;stroke-opacity:1"
         d="m 59.193062,80.953821 7.993755,0.31603 c 1.107135,0.04377 1.963201,0.970312 1.919431,2.077447 l -0.07901,1.998439 c -0.04377,1.107135 -0.970311,1.963202 -2.077447,1.919432 l -7.993755,-0.31603 c -1.107135,-0.04377 -1.963201,-0.970312 -1.919431,-2.077447 l 0.07901,-1.998439 c 0.04377,-1.107135 0.970311,-1.963202 2.077447,-1.919432 z" />
    </g>
  </g>
  <path
     fill="#fff"
     d="m 139.457,135.41042 c 23.03677,0 26.10859,-12.28666 26.10859,-23.03802 0,-9.21495 -1.53578,-16.894373 -1.53578,-26.108588 0,-9.214216 -1.53579,-18.42967 -1.53579,-26.108592 0,-32.252225 19.9662,-46.074788 52.21842,-46.074788 h 12.28664 v 29.180421 h -6.14324 c -15.35787,0 -19.9662,9.214948 -19.9662,24.573289 0,6.143269 1.53579,12.286643 1.53579,19.966185 0,6.14327 1.53578,13.822563 1.53578,23.038013 0,26.10859 -10.75074,35.32405 -29.18042,39.93116 18.42968,4.60747 29.18042,13.82255 29.18042,39.93114 0,9.21497 -1.53578,16.8944 -1.53578,23.03679 0,6.14327 -1.53579,13.82256 -1.53579,18.42967 0,15.35785 4.60748,24.57329 19.9662,24.57329 h 6.14324 v 29.18041 h -12.28664 c -30.71694,0 -50.68189,-12.28665 -50.68189,-46.07478 0,-9.21496 0,-16.89439 1.53578,-26.1086 1.53579,-9.21421 1.53579,-18.42966 1.53579,-26.1086 0,-9.21495 -3.07169,-23.038 -26.1086,-23.038 z"
     id="path10"
     style="fill:#ffffff;fill-opacity:1" />
</svg>
